<svg viewBox="0 0 617.47 462.77" xmlns="http://www.w3.org/2000/svg" xmlns:xlink="http://www.w3.org/1999/xlink" id="Layer_1" overflow="hidden"><defs></defs><path d="M550.11 442.53C439.16 442.53 328.21 442.53 217.26 442.53 167.29 442.53 117.32 442.53 67.35 442.53 62.86 442.53 39 442.08 19.72 422.8 7.54 410.61 0 393.77 0 375.17L0 67.36C0 30.16 30.16 0 67.36 0L550.12 0C587.32 0 617.48 30.16 617.48 67.36L617.48 375.17C617.48 412.37 587.32 442.53 550.12 442.53Z" fill="#FFFFFF"/><path d="M32.91 378.59C34.68 388.19 47.06 398.8 61.2 398.8L551.94 398.8C551.94 398.8 574.23 399.22 582.57 381.31 585.05 375.99 586.94 368.63 586.62 361.16 585.53 335.4 585.1 330.55 585.41 330.72L32.16 344.46C32.16 344.46 31.14 368.99 32.9 378.59Z" fill="#92C73E"/><path d="M32.52 371.26C34.29 380.86 46.67 391.47 60.81 391.47L551.55 391.47C551.55 391.47 573.84 391.89 582.18 373.98 589.65 357.94 585.02 323.39 585.02 323.39L31.78 337.13C31.78 337.13 30.76 361.66 32.52 371.26Z" fill="#E4EDB9"/><path d="M550.11 442.7 67.36 442.7C30.16 442.7 0 412.54 0 375.34L0 385.44C0 422.64 30.16 452.8 67.36 452.8L550.12 452.8C587.32 452.8 617.48 422.64 617.48 385.44L617.48 375.34C617.48 412.54 587.32 442.7 550.12 442.7Z" fill="#BBBBBB"/><path d="M550.11 452.67 67.36 452.67C30.16 452.67 0 422.51 0 385.31L0 395.41C0 432.62 30.16 462.77 67.36 462.77L550.12 462.77C587.32 462.77 617.48 432.61 617.48 395.41L617.48 385.31C617.48 422.51 587.32 452.67 550.12 452.67Z" fill="#231F20" opacity="0.47"/><path d="M167.84-69.31 449.62-69.31C469.59-69.31 485.8-53.1 485.8-33.13L485.8 449.62C485.8 469.59 469.59 485.8 449.62 485.8L167.84 485.8C147.87 485.8 131.66 469.59 131.66 449.62L131.66-33.13C131.66-53.1 147.87-69.3 167.83-69.3Z" fill="#C2DA6D" transform="matrix(6.12323e-17 1 -1 6.12323e-17 516.98 -100.49)"/><path d="M571.2 95.21C571.2 137.5 453.69 230.53 308.73 230.53 163.77 230.53 46.27 137.5 46.27 95.21 46.27 74.07 51.31 51.77 83.14 51.77 133.72 51.77 231.92 51.77 304.4 51.77 376.88 51.77 489.95 51.71 539.21 54.06 568.32 55.45 571.2 74.77 571.2 95.21Z" fill="#FFFFFF" opacity="0.3"/><g><path d="M71.09 134.26C69.48 134.87 67.04 135.76 63.78 136.93 60.71 137.99 58.26 138.52 56.42 138.52L56.37 138.52C54.14 138.52 52.29 137.83 50.84 136.44 49.37 135.05 48.63 133.25 48.61 131.04L48.61 130.87C48.61 129.35 48.89 127.75 49.46 126.07 49.8 125.02 50.32 123.43 51.03 121.28L55.26 122.33C54.99 123.21 54.57 124.54 53.99 126.32 53.53 127.83 53.3 129.22 53.3 130.48 53.3 131.55 53.69 132.44 54.47 133.15 55.15 133.76 56.06 134.06 57.21 134.06 58.52 134.06 60.04 133.77 61.78 133.18 62.78 132.8 64.27 132.26 66.25 131.57L63.8 121.49 67.96 120.68 71.11 134.25ZM61.23 124.28 57.34 124.28 57.34 120.34 61.23 120.34 61.23 124.28Z"/><path d="M86.1 131.12 85.54 131.12C84.38 131.12 83.63 130.79 83.31 130.14 83.39 130.5 83.43 130.87 83.43 131.24 83.43 133.26 82.25 135.09 79.88 136.72 79.25 137.18 77.21 138.28 73.76 140L71.81 136.24C74.71 134.84 76.27 134.08 76.48 133.96 78.39 132.72 79.34 131.43 79.34 130.1 79.34 129.48 79.16 128.6 78.8 127.46 78.7 127.19 78.53 126.79 78.3 126.25 78.07 125.71 77.89 125.3 77.77 125.01L81.83 123.55C82.46 125.06 82.91 125.95 83.18 126.22 83.6 126.56 84.57 126.73 86.11 126.73L86.11 131.11ZM79.62 119.94 75.71 119.94 75.71 116 79.62 116 79.62 119.94Z"/><path d="M86.52 126.74C88.08 126.74 88.85 126.17 88.85 125.03L88.85 124.86C88.85 124.51 88.66 123.6 88.29 122.14L92.33 121.29C93.02 123.48 93.36 125.19 93.36 126.43 93.36 127.98 92.77 129.17 91.6 130.02 90.55 130.75 89.21 131.12 87.59 131.12L84.7 131.12 84.7 126.74 86.51 126.74ZM91.92 139.02 87.67 139.02 87.67 134.84 91.92 134.84 91.92 139.02Z"/><path d="M138.19 126.43C138.19 128.07 137.56 129.29 136.31 130.1 135.26 130.78 133.87 131.12 132.15 131.12 130.1 131.12 128.82 130.67 128.31 129.77 127.24 130.65 126.2 131.09 125.2 131.09 124.31 131.09 123.74 130.9 123.49 130.53L124.96 136.16C123.35 136.75 120.89 137.63 117.6 138.8 114.49 139.87 112 140.41 110.14 140.41 107.88 140.41 106.05 139.71 104.65 138.32 103.25 136.93 102.53 135.1 102.51 132.85 102.51 131.14 103.2 127.87 104.59 123.05L109.06 124.18 107.84 128.27C107.43 129.62 107.22 131.02 107.2 132.47L107.2 132.52C107.2 133.5 107.57 134.32 108.32 134.99 108.99 135.6 109.88 135.9 110.99 135.9 112.67 135.9 115.69 135.06 120.06 133.38L117.57 123.47 121.88 122.23C122.09 123.11 122.33 124.05 122.57 125.04 123.01 126.15 123.66 126.7 124.52 126.7 125.49 126.7 126.11 125.36 126.38 122.67L130.86 123.4C130.62 124.4 130.5 125.17 130.5 125.7 130.5 126.39 130.99 126.73 131.96 126.73 133.07 126.73 133.63 126.34 133.65 125.56L133.65 125.46C133.65 124.76 133.43 123.88 132.99 122.82L137.05 121.53C137.81 123.9 138.18 125.53 138.18 126.42Z"/><path d="M155.71 131.12 155.46 131.12C154.37 131.12 153.64 131.05 153.28 130.9 152.67 130.66 152.08 130.23 151.52 129.61 150.26 130.61 148.58 131.12 146.48 131.12L140.59 131.12 140.59 126.74C143.36 126.89 144.8 126.96 144.9 126.96 147.26 126.96 148.44 126.63 148.44 125.96 148.44 125.47 147.87 124.34 146.73 122.56 146.22 121.78 145.47 120.6 144.46 119.02L148.18 116.65 152.71 124.79C153.25 125.79 153.62 126.36 153.81 126.48 154.15 126.65 154.78 126.73 155.7 126.73L155.7 131.11Z"/><path d="M171.32 125.89C169.81 126.45 168.21 127.28 166.52 128.38 164.52 129.68 162.57 130.51 160.65 130.87 159.82 131.04 157.71 131.12 154.32 131.12L154.32 126.74C158.83 126.74 162.62 126.01 165.69 124.54L160.17 123.27 159.9 124.18 155.82 123.08 157.17 118.36 171.31 121.79 171.31 125.88Z"/><path d="M193.47 130.93C193.47 132.93 192.25 134.72 189.82 136.31 188.99 136.86 186.92 137.91 183.63 139.44L181.74 135.72C182.64 135.31 183.97 134.7 185.72 133.89 187.38 133.07 188.56 132.25 189.27 131.44 186.66 131.06 185.02 130.72 184.33 130.42 182.65 129.71 181.81 128.43 181.81 126.58 181.81 125.26 182.42 124.01 183.64 122.82 184.58 121.92 185.66 120.99 186.91 120.03 187.67 119.44 188.47 119.13 189.31 119.08L189.46 119.08C190.63 119.08 191.61 119.62 192.39 120.69 193.12 121.67 193.49 122.82 193.49 124.12L193.49 130.92ZM189.63 127.61 189.63 124.46C189.63 123.85 189.47 123.55 189.16 123.55 188.85 123.55 188.23 123.96 187.32 124.77 186.41 125.58 185.86 126.17 185.68 126.55 186.02 126.93 187.34 127.29 189.64 127.62Z"/><path d="M207.63 130.34 207.63 130.44C207.63 132.12 207.07 133.61 205.96 134.91 205.04 136 203.77 136.98 202.15 137.84 201.86 137.99 200.37 138.71 197.7 140.01L195.75 136.2C197.28 135.47 198.83 134.73 200.39 134 202.39 132.84 203.38 131.61 203.38 130.31 203.38 129.32 202.83 127.54 201.74 124.98L205.83 123.58C207 126.64 207.6 128.89 207.62 130.35Z"/><path d="M237.64 132.37C235.4 133.63 233.41 134.67 231.68 135.47 229.2 136.56 227.08 137.11 225.32 137.11 222.82 137.11 220.78 136.41 219.2 135.01 217.62 133.61 216.84 131.65 216.84 129.14 216.84 127.27 217.65 124.43 219.26 120.63L223.39 121.83C223.04 122.69 222.55 124 221.92 125.76 221.56 126.85 221.38 127.91 221.38 128.92 221.38 129.99 221.76 130.91 222.53 131.66 223.3 132.41 224.23 132.79 225.32 132.79 226.3 132.79 227.68 132.44 229.45 131.74 231.09 131.1 232.41 130.46 233.41 129.83 231.86 129.83 230.53 129.34 229.4 128.35 228.27 127.36 227.7 126.13 227.67 124.65L227.67 124.63C227.67 121.62 230.43 119.53 235.96 118.35L237.09 122C236.06 122.17 235.05 122.46 234.06 122.88 232.66 123.47 231.96 124.1 231.96 124.77 231.96 125.84 233.44 126.52 236.39 126.82L237.63 132.35Z"/><path d="M250.4 130.34 250.4 130.44C250.4 132.12 249.84 133.61 248.73 134.91 247.81 136 246.54 136.98 244.92 137.84 244.63 137.99 243.14 138.71 240.47 140.01L238.52 136.2 243.16 133.97C245.16 132.83 246.15 131.61 246.15 130.32 246.15 129.49 245.6 127.71 244.51 124.99L248.6 123.59C249.77 126.57 250.37 128.82 250.39 130.36ZM245.87 119.75 242.03 119.75 242.03 115.82 245.87 115.82 245.87 119.75Z"/><path d="M260.25 131.12 259.1 131.12C258.34 131.12 256.41 130.92 253.3 130.53L253.3 112.99 257.65 112.99 257.65 126.66C258.02 126.72 258.89 126.74 260.26 126.74L260.26 131.12Z"/><path d="M260.67 126.74C262.23 126.74 263 126.17 263 125.03L263 124.86C263 124.51 262.81 123.6 262.44 122.14L266.48 121.29C267.17 123.48 267.51 125.19 267.51 126.43 267.51 127.98 266.92 129.17 265.75 130.02 264.7 130.75 263.36 131.12 261.74 131.12L258.85 131.12 258.85 126.74 260.66 126.74ZM266.07 139.02 261.82 139.02 261.82 134.84 266.07 134.84 266.07 139.02Z"/><path d="M295.96 127.02C295.96 128.22 295.57 129.2 294.78 129.96 293.99 130.72 293.01 131.11 291.84 131.11L286.66 131.11C285.43 131.11 284.43 130.72 283.65 129.94 282.87 129.16 282.48 128.16 282.48 126.95L282.48 126.9C282.48 125.74 283.14 124.45 284.46 123.03 284.9 122.62 286.09 121.6 288.03 119.97L287.01 118.51 289.97 116.56 295.1 124.24C295.68 125.09 295.96 126.01 295.96 127.01ZM291.8 126.33C291.8 126.12 291.16 125.09 289.87 123.27 287.82 125.21 286.79 126.34 286.79 126.67 286.79 127.05 287.13 127.25 287.82 127.25L290.81 127.25C291.46 127.25 291.79 126.95 291.79 126.34Z"/><path d="M306.79 130.34 306.79 130.44C306.79 132.12 306.23 133.61 305.12 134.91 304.2 136 302.93 136.98 301.31 137.84 301.02 137.99 299.53 138.71 296.86 140.01L294.91 136.2C296.44 135.47 297.99 134.73 299.55 134 301.55 132.84 302.54 131.61 302.54 130.31 302.54 129.32 301.99 127.54 300.9 124.98L304.99 123.58C306.16 126.64 306.76 128.89 306.78 130.35Z"/><path d="M316.64 131.12 315.49 131.12C314.73 131.12 312.8 130.92 309.69 130.53L309.69 112.99 314.04 112.99 314.04 126.66C314.41 126.72 315.28 126.74 316.65 126.74L316.65 131.12Z"/><path d="M338.16 126.36C338.16 127.85 337.46 129.04 336.05 129.95 334.83 130.73 333.44 131.12 331.89 131.12 330 131.12 328.77 130.62 328.2 129.63 327.37 130.62 326.29 131.12 324.99 131.12 323.57 131.12 322.35 130.51 321.34 129.29 320.99 130.05 320.22 130.59 319.02 130.93 318.32 131.05 317.32 131.12 316.03 131.12L315.27 131.12 315.27 126.74 316.03 126.74C317.79 126.74 318.67 126.27 318.67 125.32 318.67 124.9 318.53 124.29 318.26 123.48L322.47 122.68C322.56 123.22 322.75 124.03 323.03 125.12 323.31 126.21 323.79 126.74 324.47 126.74 325.2 126.74 325.73 126.22 326.04 125.17 326.1 124.8 326.23 123.95 326.45 122.62L330.58 123.38 330.17 126.02C330.29 126.51 330.83 126.75 331.78 126.75 332.3 126.75 332.73 126.68 333.07 126.53 333.56 126.3 333.81 125.97 333.85 125.53L332.97 122.15 337.13 121.22C337.83 123.96 338.18 125.68 338.18 126.38ZM326.3 118.46 322.41 118.46 322.41 114.59 326.3 114.59 326.3 118.46ZM328.99 113.22 325.08 113.22 325.08 109.38 328.99 109.38 328.99 113.22ZM331.76 118.46 327.82 118.46 327.82 114.59 331.76 114.59 331.76 118.46Z"/><path d="M346.31 131.12 342 131.12 342 113 346.31 113 346.31 131.12Z"/><path d="M368.36 126.43C368.36 127.94 367.73 129.16 366.48 130.08 365.27 130.77 363.91 131.11 362.39 131.11L356.11 131.11 356.11 126.73 362.83 126.73C363.56 126.73 363.93 126.46 363.93 125.92 363.93 125.65 362.59 123.35 359.92 119.02L363.71 116.69C364.35 117.73 365.33 119.3 366.64 121.39 367.79 123.34 368.37 125.02 368.37 126.43Z"/><path d="M379.25 130.34 379.25 130.44C379.25 132.12 378.69 133.61 377.58 134.91 376.66 136 375.39 136.98 373.77 137.84 373.48 137.99 371.99 138.71 369.32 140.01L367.37 136.2C368.9 135.47 370.45 134.73 372.01 134 374.01 132.84 375 131.61 375 130.31 375 129.32 374.45 127.54 373.36 124.98L377.45 123.58C378.62 126.64 379.22 128.89 379.24 130.35Z"/><path d="M395.6 131.12 393.05 131.12C392.59 133.29 390.66 135.22 387.26 136.92L383.5 138.68 381.52 134.96C382.42 134.57 383.78 133.94 385.58 133.1 387.26 132.22 388.43 131.4 389.08 130.65 386.52 130.28 384.87 129.93 384.14 129.62 382.41 128.88 381.55 127.55 381.55 125.64 381.55 124.35 382.18 123.1 383.44 121.88 385.98 119.43 387.86 118.21 389.07 118.21L389.14 118.21C391.01 118.21 392.26 119.24 392.88 121.29 393.2 122.34 393.35 124.15 393.35 126.74L395.58 126.74 395.58 131.12ZM389.46 126.87 389.46 123.71C389.46 123.02 389.3 122.68 388.99 122.68 388.79 122.68 388.19 123.11 387.21 123.97 386.23 124.83 385.73 125.37 385.73 125.57 385.73 125.98 386.27 126.31 387.34 126.59 387.29 126.59 388.01 126.69 389.47 126.88Z"/><path d="M408.64 128.09C408.64 129.23 408.21 130.2 407.36 131.01 406.51 131.82 405.5 132.24 404.32 132.29L404.18 132.29C403.39 132.29 402.48 131.93 401.44 131.22 400.88 130.81 400.01 130.2 398.83 129.39 398.15 130.25 397.4 130.77 396.56 130.96 396.12 131.06 395.33 131.11 394.19 131.11L394.19 126.73 394.82 126.73C395.24 126.73 395.52 126.71 395.68 126.66 396.27 126.56 396.98 125.84 397.81 124.49 398.97 122.66 399.8 121.5 400.3 120.99 401.44 119.79 402.66 119.2 403.95 119.2 405.65 119.2 406.76 120.09 407.27 121.86 408.15 125.06 408.6 127.14 408.62 128.09ZM404.95 127.75 404.95 127.65C404.95 127.21 404.81 126.43 404.54 125.3 404.25 124.08 403.9 123.44 403.49 123.37 403.05 123.54 402.22 124.54 401 126.36 402.97 127.68 404.08 128.34 404.32 128.34 404.71 128.34 404.92 128.14 404.95 127.75Z"/><path d="M446.68 131.12C444.95 131.12 443.94 130.89 443.65 130.43 443.9 133.01 444.15 134.95 444.41 136.23 438.32 138.6 434.16 139.78 431.92 139.78 429.68 139.78 427.92 139.08 426.45 137.68 424.98 136.28 424.24 134.46 424.24 132.22 424.24 130.29 424.84 127.52 426.03 123.91L430.26 125.2C430.05 125.91 429.74 127 429.35 128.48 429.01 129.71 428.84 130.82 428.84 131.81 428.84 132.8 429.2 133.66 429.92 134.28 430.64 134.9 431.53 135.22 432.58 135.24L432.7 135.24C433.56 135.24 434.72 135 436.2 134.51 437 134.24 438.22 133.82 439.85 133.26L438.02 113.94 442.15 113.53 443.35 125.44C443.42 126.11 443.84 126.52 444.62 126.69 444.9 126.74 445.26 126.76 445.69 126.76 445.98 126.76 446.31 126.75 446.67 126.73L446.67 131.11Z"/><path d="M457.39 131.12 456.04 131.12C454.36 131.12 452.99 130.68 451.95 129.8 450.75 130.68 449.09 131.12 446.94 131.12L445.3 131.12 445.3 126.74 446.03 126.74C448.06 126.74 449.09 126.36 449.11 125.61 449.11 125.32 449.04 124.87 448.89 124.26 448.77 123.74 448.67 123.28 448.6 122.87L452.76 121.87C452.93 122.87 453.11 123.87 453.3 124.85 453.45 125.62 453.77 126.12 454.27 126.37 454.77 126.62 455.81 126.74 457.39 126.74L457.39 131.12ZM449.51 118.65 445.77 118.65 445.77 114.89 449.51 114.89 449.51 118.65ZM452.01 113.76 448.29 113.76 448.29 109.99 452.01 109.99 452.01 113.76ZM454.53 118.65 450.77 118.65 450.77 114.89 454.53 114.89 454.53 118.65Z"/><path d="M473.09 131.12C472.46 131.11 472 131.07 471.72 131 471.18 130.83 470.69 130.45 470.26 129.87 469.93 130.68 469.39 131.28 468.64 131.67 467.89 132.06 467.06 132.26 466.17 132.29L466.05 132.29C465.34 132.29 464.46 131.92 463.41 131.19 463.07 130.95 462.26 130.36 460.97 129.41 460.41 130.06 459.66 130.56 458.74 130.9 458.15 131.05 457.24 131.12 456 131.12L456 126.74C457.59 126.74 458.88 126.1 459.87 124.83 460.29 124.25 461.09 123.04 462.29 121.18 463.31 119.89 464.51 119.25 465.91 119.25 467.11 119.25 468.02 119.68 468.65 120.55 468.81 120.76 468.97 121.16 469.13 121.74 469.29 122.32 469.62 123.5 470.1 125.27 470.37 126.27 471.17 126.78 472.5 126.78L473.21 126.78C475.33 126.76 476.39 126.13 476.39 124.89 476.39 122.37 475.79 118.62 474.58 113.62L479.08 112.93C480.34 118.55 481.01 123.18 481.08 126.82 481.08 128.37 480.26 129.51 478.63 130.25 477.37 130.84 475.86 131.13 474.1 131.13L473.08 131.13ZM467.08 127.75 467.08 127.65C467.08 127.21 466.94 126.43 466.67 125.3 466.38 124.08 466.03 123.44 465.62 123.37 465.18 123.54 464.35 124.54 463.13 126.36 465.1 127.68 466.21 128.34 466.45 128.34 466.84 128.34 467.05 128.14 467.08 127.75Z"/><path d="M489.23 131.12 484.92 131.12 484.92 113 489.23 113 489.23 131.12Z"/><path d="M524.47 126.67 524.47 126.77C524.47 129.67 522.41 131.12 518.29 131.12L504.35 131.12C500.21 131.12 498.13 129.69 498.11 126.84 498.11 126.31 498.38 124.79 498.91 122.27L503.31 123.05C503.14 123.92 503.01 124.72 502.9 125.45 502.9 126.31 503.69 126.74 505.27 126.74L516.06 126.74C517.15 126.74 517.9 126.71 518.29 126.66 519.28 126.49 519.78 126.05 519.78 125.32 519.78 125.03 519.63 124.27 519.34 123.05L523.72 122.27C524.22 124.66 524.46 126.13 524.46 126.67ZM513.71 138.94 509.84 138.94 509.84 135.03 513.71 135.03 513.71 138.94Z"/><path d="M537.85 131.12 537.12 131.12C536.07 131.12 535.38 130.79 535.06 130.14 535.14 130.5 535.18 130.89 535.18 131.31 535.18 133.26 534 135.07 531.63 136.72 531.02 137.17 528.98 138.27 525.51 140L523.56 136.24 528.23 133.96C530.11 132.72 531.07 131.43 531.09 130.1 531.09 129.49 530.91 128.61 530.55 127.46 530.45 127.19 530.28 126.79 530.05 126.25 529.82 125.71 529.64 125.3 529.52 125.01L533.58 123.55C534.21 125.08 534.66 125.98 534.93 126.22 535.31 126.56 536.29 126.73 537.86 126.73L537.94 126.73C539.33 126.73 540.02 126.25 540.02 125.29 540.02 124.93 539.77 123.79 539.26 121.87L543.71 120.84C543.83 121.72 544.13 123.2 544.59 125.29 546.42 123.64 548.36 122.21 550.41 120.99 553.09 119.4 555.31 118.6 557.06 118.6 558.5 118.6 559.68 119.04 560.6 119.92 561.52 120.8 561.98 121.97 562 123.42L562 123.62C562 127.38 560.73 129.73 558.19 130.69 557.43 130.96 554.57 131.1 549.6 131.1L547.96 131.1C547.28 131.1 546.38 130.86 545.25 130.37 543.92 129.81 543.24 129.28 543.2 128.8 542.52 129.85 541.67 130.53 540.65 130.85 540.19 131 539.26 131.08 537.86 131.1ZM557.56 124.32C557.56 123.56 557.15 123.19 556.32 123.19 555.59 123.19 553.16 124.37 549.04 126.74L554.86 126.74C556.65 126.74 557.55 125.93 557.55 124.32ZM555.78 116.39 551.89 116.39 551.89 112.48 555.78 112.48 555.78 116.39Z"/><path d="M183.89 193.47 182.91 193.47C181.5 193.47 180.58 193.03 180.14 192.15 180.25 192.63 180.3 193.16 180.3 193.72 180.3 196.34 178.71 198.76 175.53 200.99 174.71 201.6 171.97 203.06 167.31 205.4L164.7 200.36 170.97 197.29C173.5 195.62 174.78 193.9 174.81 192.11 174.81 191.29 174.57 190.11 174.08 188.57 173.94 188.21 173.72 187.67 173.41 186.95 173.1 186.23 172.86 185.67 172.69 185.28L178.14 183.33C178.99 185.39 179.59 186.59 179.96 186.92 180.47 187.37 181.78 187.6 183.89 187.6L183.89 193.48Z"/><path d="M198.27 193.47 196.45 193.47C194.19 193.47 192.36 192.88 190.95 191.7 189.34 192.88 187.1 193.47 184.23 193.47L182.03 193.47 182.03 187.59 183.01 187.59C185.74 187.59 187.11 187.08 187.14 186.07 187.14 185.68 187.04 185.07 186.84 184.25 186.67 183.55 186.54 182.93 186.45 182.39L192.04 181.05C192.27 182.4 192.51 183.73 192.77 185.05 192.97 186.08 193.4 186.76 194.08 187.09 194.76 187.42 196.15 187.59 198.27 187.59L198.27 193.47ZM188.55 204.01 183.55 204.01 183.55 198.92 188.55 198.92 188.55 204.01ZM195.32 204.01 190.23 204.01 190.23 198.92 195.32 198.92 195.32 204.01Z"/><path d="M207.99 165.85 197.04 175.21 195.56 173.42 206.55 164.13 207.98 165.86ZM201.38 187.59C203.14 187.59 204.05 187.21 204.11 186.45 204.11 185.72 203.25 184.07 201.54 181.5 200.77 180.39 199.59 178.74 198.02 176.55L208.92 167.17 212.3 170.71 204.9 176.89 210.78 185.27C211.34 186.09 211.96 186.72 212.64 187.18 213.2 187.45 214.06 187.59 215.23 187.59L215.23 193.47C212.23 193.47 209.82 192.74 207.98 191.27 206.74 192.31 205.35 192.98 203.8 193.27 203.16 193.38 202.25 193.44 201.05 193.47L196.39 193.47 196.39 187.59 201.36 187.59Z"/><path d="M215.8 187.58C217.89 187.58 218.93 186.82 218.93 185.29L218.93 185.06C218.93 184.59 218.68 183.37 218.18 181.4L223.61 180.26C224.53 183.2 225 185.5 225 187.16 225 189.23 224.21 190.84 222.64 191.98 221.23 192.96 219.44 193.46 217.26 193.46L213.38 193.46 213.38 187.58 215.81 187.58ZM223.05 204.07 217.35 204.07 217.35 198.46 223.05 198.46 223.05 204.07Z"/><path d="M254.1 187.97C254.1 189.58 253.57 190.89 252.51 191.92 251.45 192.95 250.13 193.46 248.56 193.46L241.61 193.46C239.96 193.46 238.61 192.94 237.57 191.89 236.53 190.84 236 189.51 236 187.87L236 187.8C236 186.24 236.89 184.51 238.66 182.6 239.25 182.05 240.85 180.68 243.45 178.49L242.09 176.54 246.06 173.93 252.94 184.24C253.71 185.38 254.1 186.62 254.1 187.96ZM248.51 187.04C248.51 186.75 247.65 185.38 245.92 182.93 243.16 185.53 241.79 187.06 241.79 187.5 241.79 188.01 242.25 188.27 243.18 188.27L247.2 188.27C248.08 188.27 248.52 187.86 248.52 187.04Z"/><path d="M272.74 193.47 271.99 193.47C270.43 193.47 269.43 193.03 268.99 192.15 269.1 192.63 269.15 193.13 269.15 193.63 269.15 196.34 267.56 198.79 264.38 200.99 263.53 201.61 260.79 203.08 256.16 205.4L253.55 200.36C257.44 198.48 259.53 197.46 259.82 197.29 262.38 195.62 263.66 193.9 263.66 192.11 263.66 191.28 263.42 190.1 262.93 188.57 262.79 188.21 262.57 187.67 262.26 186.95 261.95 186.23 261.71 185.67 261.54 185.28L266.99 183.33C267.84 185.36 268.44 186.56 268.81 186.92 269.37 187.37 270.68 187.6 272.74 187.6L272.74 193.48ZM264.04 178.46 258.79 178.46 258.79 173.17 264.04 173.17 264.04 178.46Z"/><path d="M275.13 187.58C277.22 187.58 278.26 186.82 278.26 185.29L278.26 185.06C278.26 184.59 278.01 183.37 277.51 181.4L282.94 180.26C283.86 183.2 284.33 185.5 284.33 187.16 284.33 189.23 283.54 190.84 281.97 191.98 280.56 192.96 278.77 193.46 276.59 193.46L270.89 193.46 270.89 187.58 275.14 187.58ZM277.45 198.91 277.4 204 272.31 204 272.45 198.91 277.45 198.91ZM284.24 198.91 284.17 204 279.13 204 279.18 198.91 284.25 198.91Z"/><path d="M297.59 193.47 296.05 193.47C295.04 193.47 292.44 193.21 288.26 192.68L288.26 169.13 294.1 169.13 294.1 187.48C294.6 187.56 295.77 187.59 297.6 187.59L297.6 193.47Z"/><path d="M318.56 186.45C316.53 187.21 314.38 188.32 312.11 189.79 309.43 191.53 306.8 192.64 304.23 193.13 303.11 193.36 300.28 193.47 295.74 193.47L295.74 187.59C301.8 187.59 306.88 186.61 311 184.64L303.6 182.94 303.24 184.17 297.77 182.69 299.59 176.35 318.58 180.96 318.58 186.46ZM310.27 203.96 305.07 203.96 305.07 198.71 310.27 198.71 310.27 203.96Z"/><path d="M346.43 192.42 346.43 192.56C346.43 194.82 345.68 196.81 344.18 198.56 342.94 200.03 341.23 201.34 339.07 202.49 338.68 202.69 336.69 203.66 333.1 205.4L330.49 200.29C332.55 199.31 334.62 198.32 336.71 197.34 339.39 195.78 340.73 194.13 340.73 192.39 340.73 191.06 340 188.67 338.53 185.24L344.03 183.35C345.6 187.45 346.41 190.48 346.44 192.44Z"/><path d="M368.23 187.92C368.23 191.58 365.07 193.42 358.76 193.42 356.73 193.42 353.9 193.18 350.27 192.69L350.27 170.07 356.02 170.07 356.02 187.63C358.08 187.8 359.31 187.88 359.7 187.88 361.37 187.88 362.23 186.95 362.29 185.09L362.29 184.93C362.29 182.95 362.03 180.48 361.52 177.53L360.04 169.97 365.79 169.04C366.47 172.84 367.02 175.98 367.45 178.47 367.98 181.85 368.24 185 368.24 187.94Z"/><path d="M387.49 187.17C387.49 189.2 386.65 190.83 384.97 192.08 383.35 193 381.52 193.47 379.47 193.47L371.04 193.47 371.04 187.59 380.06 187.59C381.04 187.59 381.54 187.23 381.54 186.5 381.54 186.14 379.75 183.05 376.16 177.23L381.25 174.1C382.11 175.49 383.42 177.6 385.18 180.41 386.72 183.03 387.5 185.29 387.5 187.18Z"/><path d="M419.52 174.27C419.52 176.97 418.21 178.72 415.59 179.54 414.41 179.92 412.01 180.11 408.39 180.11L408.39 193.47 402.69 193.47 402.64 168.94 408.39 168.94 408.39 174.69 411.52 174.69C412.96 174.69 413.68 174.11 413.68 172.96 413.68 172.37 413.47 171.2 413.04 169.44L418.38 168.1C419.14 171.14 419.52 173.2 419.52 174.28Z"/><path d="M434.21 185.13 426.9 185.13 426.9 177.77 434.21 177.77 434.21 185.13Z"/><path d="M451.34 185.13 444.03 185.13 444.03 177.77 451.34 177.77 451.34 185.13Z"/><path d="M108.43 261.05C107.13 261.05 106.16 260.85 105.5 260.46L106.67 266.13C105.07 266.72 102.65 267.6 99.43 268.77 96.44 269.82 93.99 270.34 92.09 270.34 89.8 270.34 87.93 269.65 86.48 268.26 85.03 266.87 84.29 265.05 84.27 262.78 84.27 261.27 84.55 259.62 85.12 257.84L86.66 252.97 90.89 254.04C90.6 254.92 90.17 256.27 89.6 258.1 89.14 259.69 88.91 261.11 88.91 262.35L88.91 262.43C88.91 263.47 89.3 264.3 90.08 264.93 90.81 265.54 91.73 265.84 92.84 265.84 94.1 265.84 95.64 265.55 97.44 264.96 98.17 264.71 99.66 264.14 101.89 263.25L99.45 253.34 103.54 252.46C104.09 254.58 104.49 255.75 104.74 255.98 105.18 256.44 106.41 256.67 108.43 256.67L108.43 261.05ZM96.93 255.94 93.06 255.94 93.06 252.07 96.93 252.07 96.93 255.94Z"/><path d="M132.26 261.05C130.6 261.05 129.25 260.58 128.2 259.63 126.81 260.58 125.28 261.05 123.6 261.05 121.75 261.05 120.54 260.55 119.98 259.56 119 260.55 117.89 261.05 116.65 261.05 116 261.05 115.35 260.86 114.72 260.47 114.18 260.24 113.65 259.86 113.15 259.32 112.66 260.03 111.86 260.54 110.73 260.86 110 260.98 108.99 261.05 107.7 261.05L107.04 261.05 107.04 256.67 107.92 256.7C108.04 256.71 108.17 256.72 108.29 256.72 109.64 256.72 110.34 256.24 110.37 255.28 110.37 255.26 110.26 254.62 110.03 253.37L114.31 252.64C114.48 253.73 114.66 254.55 114.85 255.09 115.19 256.14 115.69 256.66 116.36 256.66 117.58 256.66 118.2 255.28 118.22 252.53L122.38 253.22C122.11 254.7 121.97 255.56 121.97 255.81 121.97 256.37 122.57 256.66 123.76 256.66 124.81 256.66 125.33 256.27 125.33 255.49 125.33 255.2 125.12 254.25 124.69 252.66L128.8 251.46C129.13 253.33 129.4 254.45 129.61 254.83 130.13 256.05 131.01 256.66 132.25 256.66L132.25 261.04ZM118.12 248.51 114.19 248.51 114.19 244.53 118.12 244.53 118.12 248.51ZM120.81 243.28 116.87 243.28 116.87 239.34 120.81 239.34 120.81 243.28ZM123.57 248.51 119.61 248.51 119.61 244.53 123.57 244.53 123.57 248.51Z"/><path d="M134.04 256.67C135.6 256.67 136.37 256.1 136.37 254.96L136.37 254.79C136.37 254.44 136.18 253.53 135.81 252.07L139.85 251.22C140.54 253.41 140.88 255.12 140.88 256.36 140.88 257.91 140.29 259.1 139.12 259.95 138.07 260.68 136.73 261.05 135.11 261.05L130.86 261.05 130.86 256.67 134.02 256.67ZM135.77 265.11 135.74 268.9 131.95 268.9 132.05 265.11 135.77 265.11ZM140.83 265.11 140.78 268.9 137.02 268.9 137.05 265.11 140.82 265.11Z"/><path d="M157.46 261.05 156.73 261.05C155.68 261.05 154.99 260.72 154.67 260.07 154.75 260.43 154.79 260.82 154.79 261.24 154.79 263.19 153.61 265 151.24 266.65 150.63 267.1 148.59 268.2 145.12 269.93L143.17 266.17 147.84 263.89C149.72 262.65 150.68 261.36 150.7 260.03 150.7 259.42 150.52 258.54 150.16 257.39 150.06 257.12 149.89 256.72 149.66 256.18 149.43 255.64 149.25 255.23 149.13 254.94L153.19 253.48C153.82 255.01 154.27 255.91 154.54 256.15 154.92 256.49 155.9 256.66 157.47 256.66L157.47 261.04Z"/><path d="M164.7 240.48 156.55 247.45 155.45 246.11 163.64 239.19 164.71 240.48ZM159.78 256.67C161.09 256.67 161.77 256.39 161.81 255.82 161.81 255.28 161.17 254.05 159.9 252.13 159.32 251.31 158.45 250.08 157.28 248.44L165.4 241.45 167.92 244.09 162.4 248.69 166.78 254.93C167.2 255.54 167.66 256.01 168.17 256.35 168.59 256.55 169.23 256.65 170.1 256.65L170.1 261.03C167.87 261.03 166.07 260.48 164.7 259.39 163.78 260.17 162.74 260.66 161.59 260.88 161.12 260.96 160.43 261.01 159.54 261.03L156.07 261.03 156.07 256.65 159.78 256.65Z"/><path d="M184.44 260.94C183.9 260.77 183.41 260.39 182.98 259.81 182.65 260.62 182.11 261.22 181.36 261.61 180.61 262 179.78 262.2 178.89 262.23L178.77 262.23C178.06 262.23 177.18 261.86 176.13 261.13 175.79 260.89 174.98 260.3 173.69 259.35 173.13 260 172.38 260.5 171.46 260.84 171.03 260.95 170.43 261.03 169.65 261.06L168.7 261.06 168.7 256.68 168.72 256.68C170.31 256.68 171.6 256.04 172.59 254.77 173.01 254.19 173.81 252.98 175.01 251.12 176.03 249.83 177.23 249.19 178.63 249.19 179.83 249.19 180.74 249.62 181.37 250.49 181.53 250.7 181.69 251.1 181.85 251.68 182.01 252.26 182.34 253.44 182.82 255.21 183.08 256.19 183.87 256.68 185.19 256.68L186.68 256.68 186.68 261.06 185.28 261.06C184.91 261.03 184.63 260.99 184.43 260.94ZM179.8 257.69 179.8 257.59C179.8 257.15 179.66 256.37 179.39 255.24 179.1 254.02 178.75 253.38 178.34 253.31 177.9 253.48 177.07 254.48 175.85 256.3 177.82 257.62 178.93 258.28 179.17 258.28 179.56 258.28 179.77 258.08 179.8 257.69Z"/><path d="M188.47 256.67C190.03 256.67 190.8 256.1 190.8 254.96L190.8 254.79C190.8 254.44 190.61 253.53 190.24 252.07L194.28 251.22C194.97 253.41 195.31 255.12 195.31 256.36 195.31 257.91 194.72 259.1 193.55 259.95 192.5 260.68 191.16 261.05 189.54 261.05L185.29 261.05 185.29 256.67 188.45 256.67ZM190.2 265.11 190.17 268.9 186.38 268.9 186.48 265.11 190.2 265.11ZM195.26 265.11 195.21 268.9 191.45 268.9 191.48 265.11 195.25 265.11Z"/><path d="M203.46 261.05 199.15 261.05 199.15 242.93 203.46 242.93 203.46 261.05Z"/><path d="M227.08 256.93C227.08 259.66 224.73 261.02 220.02 261.02 218.51 261.02 216.4 260.84 213.69 260.48L213.69 243.63 217.97 243.63 217.97 256.71C219.5 256.83 220.42 256.9 220.71 256.9 221.95 256.9 222.59 256.21 222.64 254.82L222.64 254.7C222.64 253.22 222.45 251.38 222.06 249.18L220.96 243.55 225.24 242.86C225.75 245.69 226.16 248.03 226.48 249.88 226.87 252.4 227.07 254.75 227.07 256.94Z"/><path d="M235.37 261.05 231.06 261.05 231.06 242.93 235.37 242.93 235.37 261.05Z"/><path d="M249.48 260.87C249.48 262.87 248.26 264.66 245.83 266.25 245 266.8 242.93 267.85 239.64 269.38L237.75 265.66C238.65 265.25 239.98 264.64 241.73 263.83 243.39 263.01 244.57 262.19 245.28 261.38 242.67 261 241.03 260.66 240.34 260.36 238.66 259.65 237.82 258.37 237.82 256.52 237.82 255.2 238.43 253.95 239.65 252.76 240.59 251.86 241.67 250.93 242.92 249.97 243.68 249.38 244.48 249.07 245.32 249.02L245.47 249.02C246.64 249.02 247.62 249.56 248.4 250.63 249.13 251.61 249.5 252.76 249.5 254.06L249.5 260.86ZM245.64 257.55 245.64 254.4C245.64 253.79 245.48 253.49 245.17 253.49 244.86 253.49 244.24 253.9 243.33 254.71 242.42 255.52 241.87 256.11 241.69 256.49 242.03 256.87 243.35 257.23 245.65 257.56Z"/><path d="M294.63 261.05C292.51 261.05 291.16 260.6 290.57 259.7 289.67 260.6 288.11 261.05 285.9 261.05L271.79 261.05C270.2 261.05 268.81 260.66 267.63 259.88 266.31 259 265.65 257.78 265.65 256.23 265.65 255.56 265.73 254.89 265.9 254.22 266.15 253.23 266.28 252.56 266.31 252.21L270.78 252.97C270.6 253.87 270.45 254.59 270.34 255.14 270.34 256.17 271.47 256.68 273.72 256.68L283.99 256.68C286.17 256.68 287.26 256.13 287.26 255.04 287.26 254.69 287.11 254 286.82 252.98L291.24 252.18C291.3 252.71 291.39 253.52 291.53 254.6 291.61 255.32 291.86 255.85 292.29 256.18 292.72 256.51 293.5 256.68 294.64 256.68L294.64 261.06ZM277.74 248.61 273.83 248.61 273.83 244.75 277.74 244.75 277.74 248.61ZM283.15 248.61 279.28 248.61 279.28 244.75 283.15 244.75 283.15 248.61Z"/><path d="M298.98 255.67C298.98 255.09 297.34 252.55 294.06 248.04L302.32 240.98 305.13 244.13 299.68 248.63C300.77 250.06 301.6 251.22 302.17 252.1 303.03 253.46 303.46 254.76 303.46 255.97 303.46 257.63 302.72 258.91 301.23 259.81 299.91 260.63 298.41 261.05 296.73 261.05L293.26 261.05 293.26 256.67 296.73 256.67C298.19 256.65 298.94 256.31 299 255.67Z"/><path d="M314.36 261.05C313.36 261.03 312.7 260.7 312.38 260.07 312.46 260.43 312.5 260.82 312.5 261.24 312.5 263.19 311.32 265 308.95 266.65 308.34 267.1 306.3 268.2 302.83 269.93L300.88 266.17 305.55 263.89C307.43 262.65 308.39 261.36 308.41 260.03 308.41 259.42 308.23 258.54 307.87 257.39 307.77 257.12 307.6 256.72 307.37 256.18 307.14 255.64 306.96 255.23 306.84 254.94L310.9 253.48C311.53 255.01 311.98 255.91 312.25 256.15 312.57 256.43 313.27 256.6 314.36 256.64L314.36 256.66 315.12 256.66C316.88 256.66 317.76 256.19 317.76 255.24 317.76 254.82 317.62 254.21 317.35 253.4L321.56 252.6C321.65 253.14 321.84 253.95 322.12 255.04 322.4 256.13 322.88 256.66 323.56 256.66 324.29 256.66 324.82 256.14 325.13 255.09 325.19 254.72 325.32 253.87 325.54 252.54L329.67 253.3 329.26 255.94C329.38 256.43 329.92 256.67 330.87 256.67 331.39 256.67 331.82 256.6 332.16 256.45 332.65 256.22 332.9 255.89 332.94 255.45L332.06 252.07 336.22 251.14C336.92 253.88 337.27 255.6 337.27 256.3 337.27 257.79 336.57 258.98 335.16 259.89 333.94 260.67 332.55 261.06 331 261.06 329.11 261.06 327.88 260.56 327.31 259.57 326.48 260.56 325.4 261.06 324.1 261.06 322.68 261.06 321.46 260.45 320.45 259.23 320.1 259.99 319.33 260.53 318.13 260.87 317.43 260.99 316.43 261.06 315.14 261.06L314.38 261.06ZM325.41 248.39 321.52 248.39 321.52 244.52 325.41 244.52 325.41 248.39ZM328.1 243.15 324.19 243.15 324.19 239.31 328.1 239.31 328.1 243.15ZM330.87 248.39 326.93 248.39 326.93 244.52 330.87 244.52 330.87 248.39Z"/><path d="M363.05 258.03C363.05 259.21 362.64 260.19 361.82 260.95 361 261.71 359.98 262.09 358.77 262.09 357.92 262.09 356.76 261.61 355.28 260.64 353.8 259.67 352.67 259.19 351.9 259.19L351.85 259.19C350.71 259.19 350.14 259.85 350.14 261.17 350.14 263.06 350.33 265.26 350.7 267.77 350.89 269.21 351.22 271.37 351.68 274.25L347.52 274.84C346.85 270.57 346.47 268.11 346.35 267.48 346 264.68 345.81 262.21 345.79 260.07L345.79 259.99C345.79 258.75 346.28 257.62 347.26 256.59 348.21 255.6 349.34 255.1 350.66 255.1 351.02 255.1 351.31 255.12 351.52 255.17L354.26 251.11C355.53 249.63 356.89 248.88 358.32 248.86L358.35 248.86C359.99 248.86 361.07 249.77 361.62 251.6 362.57 254.74 363.04 256.88 363.04 258.03ZM359.31 257.4C359.31 256.87 359.16 256.08 358.87 255.03 358.55 253.8 358.22 253.15 357.85 253.08 357.39 253.2 356.56 254.2 355.36 256.07 357.36 257.37 358.47 258.03 358.69 258.05 359.1 258.05 359.3 257.83 359.3 257.39Z"/><path d="M373.53 261.05 372.38 261.05C371.62 261.05 369.69 260.85 366.58 260.46L366.58 242.92 370.93 242.92 370.93 256.59C371.3 256.65 372.17 256.67 373.54 256.67L373.54 261.05Z"/><path d="M373.95 256.67C375.51 256.67 376.28 256.1 376.28 254.96L376.28 254.79C376.28 254.44 376.09 253.53 375.72 252.07L379.76 251.22C380.45 253.41 380.79 255.12 380.79 256.36 380.79 257.91 380.2 259.1 379.03 259.95 377.98 260.68 376.64 261.05 375.02 261.05L372.13 261.05 372.13 256.67 373.94 256.67ZM379.41 247.82 375.57 247.82 375.57 243.88 379.41 243.88 379.41 247.82Z"/><path d="M403.42 261.05 402 261.05C399.97 261.05 398.59 260.33 397.87 258.9 394.89 258.48 393.11 258.16 392.52 257.94 390.52 257.21 389.53 255.89 389.53 254 389.53 252.53 390.08 251.26 391.17 250.19 393.65 247.73 395.55 246.49 396.87 246.47L396.95 246.47C398.78 246.47 400 247.27 400.6 248.86 401.01 249.88 401.21 251.42 401.21 253.5 401.21 255.28 401.33 256.27 401.58 256.46 401.92 256.62 402.38 256.7 402.97 256.7 403.11 256.7 403.25 256.7 403.41 256.68L403.41 261.06ZM397.35 254.94 397.35 251.66C397.35 251.03 397.21 250.71 396.94 250.71 396.62 250.71 396 251.12 395.06 251.95 394.12 252.78 393.66 253.32 393.66 253.59 393.66 253.98 394.18 254.32 395.23 254.59 395.99 254.68 396.69 254.8 397.34 254.95Z"/><path d="M403.85 256.67C405.41 256.67 406.18 256.1 406.18 254.96L406.18 254.79C406.18 254.44 405.99 253.53 405.62 252.07L409.66 251.22C410.35 253.41 410.69 255.12 410.69 256.36 410.69 257.91 410.1 259.1 408.93 259.95 407.88 260.68 406.54 261.05 404.92 261.05L402.03 261.05 402.03 256.67 403.84 256.67ZM409.25 268.95 405 268.95 405 264.77 409.25 264.77 409.25 268.95Z"/><path d="M420.6 245.56 424.81 245.56 424.81 249.77 420.6 249.77 420.6 245.56ZM420.6 256.84 424.81 256.84 424.81 261.05 420.6 261.05 420.6 256.84Z"/><path d="M447.48 261.05 446.74 261.05C445.77 261.05 445.08 260.72 444.66 260.07 443.84 261.4 442.6 262.07 440.94 262.07 440.09 262.07 438.95 261.62 437.51 260.72 436.07 259.82 435.03 259.36 434.4 259.34L434.37 259.34C433.01 259.34 432.32 260.04 432.32 261.45 432.32 263.28 432.51 265.42 432.88 267.88 433.07 269.29 433.4 271.41 433.86 274.24L429.7 274.83C429.03 270.56 428.65 268.1 428.53 267.47 428.18 264.67 427.99 262.2 427.97 260.06L427.97 259.98C427.97 258.74 428.46 257.61 429.44 256.58 430.39 255.59 431.52 255.09 432.84 255.09 433.2 255.09 433.49 255.11 433.7 255.16L436.44 251.1C437.71 249.62 439.07 248.87 440.5 248.85L440.53 248.85C441.91 248.85 442.91 249.46 443.54 250.68 443.78 251.17 444.08 252.35 444.44 254.25 444.69 255.61 445.02 256.37 445.44 256.52 445.74 256.63 446.22 256.69 446.86 256.69 447.05 256.69 447.26 256.69 447.49 256.67L447.49 261.05ZM441.47 257.4C441.47 256.87 441.32 256.08 441.03 255.03 440.71 253.8 440.38 253.15 440.01 253.08 439.55 253.2 438.72 254.2 437.52 256.07 439.52 257.37 440.63 258.03 440.85 258.05 441.26 258.05 441.46 257.83 441.46 257.39Z"/><path d="M458.09 261.05 456.74 261.05C455.06 261.05 453.69 260.61 452.65 259.73 451.45 260.61 449.79 261.05 447.64 261.05L446 261.05 446 256.67 446.73 256.67C448.76 256.67 449.79 256.29 449.81 255.54 449.81 255.25 449.74 254.8 449.59 254.19 449.47 253.67 449.37 253.21 449.3 252.8L453.46 251.8C453.63 252.8 453.81 253.8 454 254.78 454.15 255.55 454.47 256.05 454.97 256.3 455.47 256.55 456.51 256.67 458.09 256.67L458.09 261.05ZM450.85 268.9 447.13 268.9 447.13 265.11 450.85 265.11 450.85 268.9ZM455.89 268.9 452.1 268.9 452.1 265.11 455.89 265.11 455.89 268.9Z"/><path d="M465.62 240.58 457.52 247.45 456.45 245.96 464.49 239.26 465.62 240.58ZM462.79 255.82C462.79 255.28 461.28 252.8 458.26 248.39L466.48 241.39 468.97 244.13 463.54 248.61C464.09 249.37 464.9 250.51 465.98 252.04 466.81 253.38 467.23 254.67 467.23 255.91 467.23 257.48 466.69 258.72 465.61 259.65 464.53 260.58 463.23 261.04 461.69 261.04L456.7 261.04 456.7 256.66 460.93 256.66C462.17 256.64 462.79 256.36 462.79 255.81Z"/><path d="M496.19 261.05 495.45 261.05C494.48 261.05 493.79 260.72 493.37 260.07 492.55 261.4 491.31 262.07 489.65 262.07 488.8 262.07 487.66 261.62 486.22 260.72 484.78 259.82 483.74 259.36 483.11 259.34L483.08 259.34C481.72 259.34 481.03 260.04 481.03 261.45 481.03 263.28 481.22 265.42 481.59 267.88 481.78 269.29 482.11 271.41 482.57 274.24L478.41 274.83C477.74 270.56 477.36 268.1 477.24 267.47 476.89 264.67 476.7 262.2 476.68 260.06L476.68 259.98C476.68 258.74 477.17 257.61 478.15 256.58 479.1 255.59 480.23 255.09 481.55 255.09 481.91 255.09 482.2 255.11 482.41 255.16L485.15 251.1C486.42 249.62 487.78 248.87 489.21 248.85L489.24 248.85C490.62 248.85 491.62 249.46 492.25 250.68 492.49 251.17 492.79 252.35 493.15 254.25 493.4 255.61 493.73 256.37 494.15 256.52 494.45 256.63 494.93 256.69 495.57 256.69 495.76 256.69 495.97 256.69 496.2 256.67L496.2 261.05ZM490.18 257.4C490.18 256.87 490.03 256.08 489.74 255.03 489.42 253.8 489.09 253.15 488.72 253.08 488.26 253.2 487.43 254.2 486.23 256.07 488.23 257.37 489.34 258.03 489.56 258.05 489.97 258.05 490.17 257.83 490.17 257.39Z"/><path d="M517.61 256.3C517.61 257.74 516.91 258.92 515.5 259.82 514.26 260.64 512.87 261.06 511.34 261.06 509.45 261.06 508.22 260.56 507.65 259.57 506.85 260.56 505.78 261.06 504.44 261.06 503.02 261.06 501.8 260.45 500.79 259.23 500.16 260.45 498.5 261.06 495.82 261.06L494.72 261.06 494.72 256.68 495.48 256.68C497.24 256.68 498.12 256.21 498.12 255.26 498.12 254.82 497.98 254.21 497.71 253.42L501.92 252.62C502.11 253.88 502.27 254.7 502.39 255.07 502.75 256.14 503.26 256.68 503.91 256.68 504.62 256.68 505.15 256.16 505.48 255.11 505.51 254.77 505.65 253.92 505.89 252.56L510.02 253.32 509.61 255.96C509.73 256.45 510.27 256.69 511.22 256.69 512.58 256.69 513.27 256.26 513.27 255.4 513.27 255.16 512.98 254.06 512.41 252.08L516.57 251.15C517.27 253.89 517.62 255.61 517.62 256.31Z"/><path d="M525.76 261.05 521.45 261.05 521.45 242.93 525.76 242.93 525.76 261.05Z"/><path d="M213.69 298.34 219.27 296.57 226.95 320.11 227.02 320.11 235.65 296.57 241.02 298.34 229.58 327.14 224.39 327.14 213.69 298.34Z"/><path d="M243.33 327.74 238.17 326.18 249.68 297.17 254.8 297.17 265.5 326.18 260.08 327.74 257.13 319.16 246.71 319.16 243.34 327.74ZM252.15 302.97 252.08 302.97 248.31 314.67 255.61 314.67 252.14 302.97Z"/><path d="M270.1 297.18 275.64 297.18 275.38 322.37 287.13 322.37 287.13 327.14 269.85 327.14 270.11 297.18Z"/><path d="M294.6 327.74 289.44 326.18 300.95 297.17 306.07 297.17 316.77 326.18 311.35 327.74 308.4 319.16 297.98 319.16 294.61 327.74ZM303.42 302.97 303.35 302.97 299.58 314.67 306.88 314.67 303.41 302.97Z"/><path d="M315.09 298.34 320.67 296.57 328.35 320.11 328.42 320.11 337.05 296.57 342.42 298.34 330.98 327.14 325.79 327.14 315.09 298.34Z"/><path d="M346.57 297.18 352.11 297.18 351.85 327.14 346.31 327.14 346.57 297.18Z"/><path d="M359.01 321.21C360.98 322.56 362.74 323.23 364.29 323.23 365.84 323.23 366.97 322.81 367.85 321.97 368.69 321.16 369.11 320.14 369.11 318.9 369.09 317.61 368.44 316.54 367.16 315.69 366.82 315.47 365.42 314.8 362.95 313.67 358.86 311.82 356.81 309.03 356.81 305.27 356.81 302.77 357.72 300.71 359.55 299.08 361.43 297.41 363.85 296.57 366.81 296.57 369.54 296.57 372.35 297.41 375.25 299.08L372.92 303.06C370.49 301.73 368.59 301.06 367.24 301.06 365.89 301.06 364.76 301.39 363.84 302.06 362.83 302.8 362.33 303.81 362.33 305.08 362.33 306.35 362.99 307.46 364.31 308.36 364.73 308.64 366.16 309.35 368.61 310.5 372.8 312.45 374.89 315.18 374.89 318.69 374.89 321.26 373.97 323.41 372.12 325.13 370.23 326.87 367.85 327.74 364.98 327.74 362.11 327.74 359.44 326.97 356.84 325.44L359 321.21Z"/><path d="M382.79 327.74 377.63 326.18 389.14 297.17 394.26 297.17 404.96 326.18 399.54 327.74 396.59 319.16 386.17 319.16 382.8 327.74ZM391.61 302.97 391.54 302.97 387.77 314.67 395.07 314.67 391.6 302.97Z"/></g></svg>