<svg viewBox="0 0 353.28 130.72" xmlns="http://www.w3.org/2000/svg" xmlns:xlink="http://www.w3.org/1999/xlink" id="Layer_1" overflow="hidden"><defs></defs><path d="M6.03 21.96C3.51 21.96 1.76 21.35 0.77 20.13 0.5 19.8 0.3 19.44 0.19 19.07 0.08 18.7 0.01 18.32 4.996e-16 17.96-0.01 17.6 4.996e-16 17.26 0.07 16.95 0.14 16.64 0.2 16.38 0.29 16.17 0.55 15.62 0.87 15.12 1.23 14.66 1.59 14.2 1.99 13.79 2.4 13.42 2.81 13.05 3.24 12.73 3.69 12.44 4.14 12.15 4.56 11.9 4.98 11.69 5.4 11.48 5.79 11.29 6.16 11.13 6.53 10.97 6.85 10.85 7.13 10.75 7.05 10.01 7 9.46 6.96 9.12 6.92 8.78 6.91 8.59 6.91 8.58L9.78 7.98 9.78 7.96C9.78 8.05 9.81 8.23 9.84 8.5 9.87 8.77 9.9 9.1 9.94 9.47 9.98 9.84 10.02 10.25 10.06 10.67 10.1 11.09 10.15 11.49 10.18 11.86 10.21 12.23 10.25 12.55 10.28 12.83 10.31 13.11 10.33 13.27 10.34 13.34 10.49 14.6 10.62 15.63 10.75 16.43 10.88 17.23 10.99 17.87 11.09 18.34 11.19 18.81 11.27 19.15 11.33 19.36 11.39 19.57 11.44 19.7 11.47 19.75 11.59 20.01 11.72 20.23 11.87 20.41 12.02 20.59 12.2 20.72 12.4 20.83 12.6 20.94 12.84 21.01 13.1 21.05 13.36 21.09 13.67 21.12 14.01 21.12 14.41 21.12 14.75 21.26 15.04 21.53 15.33 21.8 15.46 22.15 15.46 22.56 15.46 22.76 15.42 22.94 15.34 23.12 15.26 23.3 15.16 23.45 15.03 23.58 14.9 23.71 14.74 23.81 14.57 23.89 14.4 23.97 14.21 24 14.01 24 13.64 24 13.2 23.97 12.68 23.9 12.16 23.83 11.66 23.69 11.15 23.45 10.37 23.08 9.72 22.48 9.22 21.66 8.61 21.76 8.05 21.83 7.52 21.87 6.99 21.91 6.49 21.94 6.01 21.94ZM7.47 13.73C7.24 13.83 6.96 13.95 6.64 14.09 6.32 14.23 5.98 14.39 5.64 14.57 5.3 14.75 4.95 14.95 4.61 15.17 4.27 15.39 3.97 15.62 3.7 15.87 3.43 16.12 3.21 16.39 3.05 16.68 2.89 16.97 2.8 17.27 2.8 17.58 2.8 17.89 2.9 18.16 3.1 18.36 3.3 18.56 3.56 18.72 3.88 18.83 4.2 18.94 4.56 19.02 4.96 19.06 5.36 19.1 5.76 19.12 6.17 19.11 6.58 19.1 6.96 19.08 7.33 19.04 7.7 19 8.01 18.96 8.26 18.91 8.14 18.34 8.02 17.65 7.9 16.83 7.78 16.01 7.64 14.97 7.48 13.72Z" fill="#FFFFFF"/><path d="M12.65 22.57C12.65 22.17 12.79 21.83 13.06 21.55 13.33 21.27 13.68 21.13 14.09 21.13L14.34 21.13C15.98 21.13 17.17 20.83 17.91 20.24 18.65 19.65 19.02 18.77 19.02 17.61 19.02 17.34 19.02 17.06 18.99 16.78 18.96 16.5 18.94 16.21 18.89 15.92 18.84 15.63 18.79 15.31 18.71 14.98 18.63 14.65 18.55 14.3 18.44 13.93L21.19 13.15C21.29 13.49 21.37 13.82 21.44 14.14 21.51 14.46 21.57 14.79 21.62 15.14 21.67 15.49 21.72 15.87 21.76 16.28 21.8 16.69 21.84 17.15 21.88 17.67 21.91 18.03 21.96 18.41 22.03 18.81 22.1 19.21 22.22 19.58 22.4 19.92 22.58 20.26 22.82 20.54 23.13 20.77 23.44 21 23.84 21.11 24.34 21.11 24.54 21.11 24.72 21.15 24.9 21.22 25.08 21.29 25.23 21.4 25.36 21.53 25.49 21.66 25.6 21.82 25.67 21.99 25.74 22.16 25.79 22.35 25.79 22.55 25.79 22.76 25.75 22.94 25.67 23.11 25.59 23.28 25.49 23.43 25.36 23.56 25.23 23.69 25.08 23.79 24.91 23.87 24.74 23.95 24.56 23.98 24.36 23.98 23.87 23.98 23.42 23.94 23.02 23.85 22.62 23.76 22.25 23.64 21.92 23.48 21.59 23.32 21.3 23.13 21.04 22.9 20.78 22.67 20.55 22.43 20.34 22.17 19.72 22.78 18.93 23.23 17.94 23.53 16.95 23.83 15.75 23.99 14.33 23.99L14.08 23.99C13.67 23.99 13.33 23.85 13.05 23.58 12.77 23.31 12.64 22.96 12.64 22.55ZM22.11 29.29 19.72 31.68 17.32 29.28 19.71 26.89 22.11 29.29Z" fill="#FFFFFF"/><path d="M23.17 22.57C23.17 22.17 23.31 21.83 23.58 21.55 23.85 21.27 24.2 21.13 24.61 21.13L24.86 21.13C26.5 21.13 27.69 20.83 28.43 20.24 29.17 19.65 29.54 18.77 29.54 17.61 29.54 17.34 29.54 17.06 29.51 16.78 29.48 16.5 29.46 16.21 29.41 15.92 29.36 15.63 29.31 15.31 29.23 14.98 29.15 14.65 29.07 14.3 28.96 13.93L31.71 13.15C31.81 13.49 31.89 13.82 31.96 14.14 32.03 14.46 32.09 14.79 32.14 15.14 32.19 15.49 32.24 15.87 32.28 16.28 32.32 16.69 32.36 17.15 32.4 17.67 32.43 18.03 32.48 18.41 32.55 18.81 32.62 19.21 32.74 19.58 32.92 19.92 33.1 20.26 33.34 20.54 33.65 20.77 33.96 21 34.36 21.11 34.86 21.11 35.06 21.11 35.24 21.15 35.42 21.22 35.6 21.29 35.75 21.4 35.88 21.53 36.01 21.66 36.12 21.82 36.19 21.99 36.26 22.16 36.31 22.35 36.31 22.55 36.31 22.76 36.27 22.94 36.19 23.11 36.11 23.28 36.01 23.43 35.88 23.56 35.75 23.69 35.6 23.79 35.43 23.87 35.26 23.95 35.08 23.98 34.88 23.98 34.39 23.98 33.94 23.94 33.54 23.85 33.14 23.76 32.77 23.64 32.44 23.48 32.11 23.32 31.82 23.13 31.56 22.9 31.3 22.67 31.07 22.43 30.86 22.17 30.24 22.78 29.45 23.23 28.46 23.53 27.47 23.83 26.27 23.99 24.85 23.99L24.6 23.99C24.19 23.99 23.85 23.85 23.57 23.58 23.29 23.31 23.16 22.96 23.16 22.55ZM32.56 7.17 30.17 9.56 27.77 7.16 30.16 4.77 32.56 7.17Z" fill="#FFFFFF"/><path d="M33.53 22.59C33.53 22.4 33.56 22.23 33.63 22.06 33.7 21.89 33.79 21.74 33.92 21.61 34.05 21.48 34.19 21.37 34.35 21.3 34.51 21.23 34.69 21.17 34.88 21.15 35.46 21.15 35.98 21.04 36.44 20.81 36.9 20.58 37.31 20.29 37.67 19.91 38.03 19.53 38.34 19.1 38.61 18.61 38.88 18.12 39.12 17.61 39.31 17.08 39.5 16.55 39.67 16.01 39.8 15.47 39.93 14.93 40.05 14.42 40.14 13.94L43.04 14.56C42.96 14.79 42.87 15.1 42.75 15.47 42.63 15.84 42.53 16.24 42.42 16.66 42.31 17.08 42.22 17.52 42.14 17.96 42.06 18.4 42.02 18.82 42.02 19.2 42.02 19.46 42.04 19.72 42.09 19.97 42.14 20.22 42.22 20.44 42.34 20.64 42.46 20.84 42.62 20.99 42.82 21.11 43.02 21.23 43.28 21.29 43.6 21.29 44.1 21.29 44.54 21.15 44.94 20.88 45.34 20.61 45.69 20.25 45.99 19.81 46.29 19.37 46.56 18.87 46.79 18.32 47.02 17.77 47.21 17.2 47.37 16.62 47.53 16.04 47.67 15.48 47.77 14.94 47.87 14.4 47.96 13.93 48.02 13.53L50.83 14.04C50.72 14.67 50.63 15.22 50.56 15.67 50.49 16.12 50.42 16.61 50.36 17.12 50.3 17.63 50.27 18.09 50.27 18.49 50.27 18.85 50.3 19.2 50.35 19.52 50.4 19.84 50.49 20.14 50.61 20.38 50.73 20.62 50.89 20.83 51.09 21 51.29 21.17 51.54 21.26 51.83 21.29 52.28 21.35 52.65 21.34 52.95 21.28 53.25 21.22 53.48 21.12 53.66 21.01 53.84 20.9 53.97 20.78 54.05 20.65 54.13 20.52 54.19 20.43 54.22 20.37L54.21 20.37C54.35 20.16 54.44 19.91 54.5 19.64 54.56 19.37 54.58 19.07 54.58 18.76 54.58 18.2 54.5 17.6 54.35 16.96 54.2 16.32 54.02 15.68 53.81 15.06 53.6 14.44 53.38 13.86 53.15 13.33 52.92 12.8 52.73 12.37 52.57 12.06L55.13 10.71C55.18 10.81 55.27 11 55.41 11.27 55.55 11.54 55.7 11.89 55.88 12.3 56.06 12.71 56.24 13.16 56.43 13.67 56.62 14.18 56.79 14.71 56.95 15.27 57.11 15.83 57.24 16.41 57.34 16.99 57.44 17.57 57.49 18.15 57.49 18.7 57.49 19.54 57.37 20.3 57.14 20.98 56.91 21.66 56.55 22.24 56.09 22.72 55.63 23.2 55.03 23.57 54.32 23.83 53.61 24.09 52.78 24.21 51.84 24.2 51.46 24.2 51.08 24.14 50.71 24.02 50.34 23.9 49.98 23.74 49.64 23.54 49.3 23.34 48.98 23.11 48.69 22.84 48.4 22.57 48.15 22.28 47.94 21.97 47.35 22.65 46.69 23.19 45.95 23.59 45.21 23.99 44.42 24.19 43.59 24.19 43.23 24.19 42.86 24.14 42.47 24.05 42.08 23.96 41.72 23.82 41.36 23.63 41 23.44 40.69 23.21 40.4 22.94 40.11 22.67 39.89 22.35 39.73 21.99 39.14 22.61 38.48 23.09 37.74 23.45 37 23.81 36.11 24 35.07 24.02L34.84 24.02C34.65 24.02 34.48 23.97 34.31 23.89 34.14 23.81 34 23.71 33.88 23.58 33.76 23.45 33.66 23.3 33.59 23.13 33.52 22.96 33.49 22.78 33.49 22.58ZM42.73 6.58 45.1 4.19 47.5 6.59 45.13 8.98 42.73 6.58ZM46.26 2.17 48.43 0 50.61 2.18 48.44 4.35 46.26 2.17ZM49.16 6.59 51.53 4.22 53.93 6.62 51.56 8.99 49.16 6.59Z" fill="#FFFFFF"/><path d="M58.95 31.46C60.45 31.16 61.8 30.74 62.99 30.2 64.18 29.66 65.2 29.06 66.05 28.38 66.9 27.7 67.57 26.99 68.06 26.23 68.55 25.47 68.85 24.73 68.96 24 68.55 24 68.06 24.01 67.5 24 66.94 23.99 66.39 23.97 65.85 23.92 63.73 23.78 62.16 23.09 61.15 21.84 60.7 21.27 60.42 20.62 60.29 19.88 60.16 19.14 60.16 18.38 60.28 17.6 60.4 16.82 60.6 16.07 60.9 15.34 61.2 14.61 61.56 13.98 61.97 13.46 62.46 12.84 63 12.38 63.58 12.06 64.16 11.74 64.77 11.58 65.4 11.58 66.79 11.58 68.06 12.2 69.22 13.46 69.72 14.01 70.16 14.64 70.53 15.36 70.9 16.08 71.21 16.85 71.45 17.67 71.69 18.49 71.84 19.34 71.93 20.23 72.02 21.12 72.01 22.01 71.93 22.9 71.82 23.97 71.58 24.98 71.21 25.91 70.84 26.84 70.37 27.7 69.79 28.49 69.21 29.28 68.55 30 67.79 30.64 67.03 31.28 66.22 31.85 65.34 32.33 64.46 32.81 63.55 33.22 62.58 33.55 61.61 33.88 60.63 34.12 59.62 34.28L58.95 31.45ZM65.41 14.48C65.13 14.48 64.86 14.59 64.6 14.81 64.34 15.03 64.12 15.31 63.92 15.65 63.72 15.99 63.55 16.37 63.41 16.8 63.27 17.23 63.18 17.64 63.12 18.06 63.06 18.48 63.06 18.86 63.12 19.22 63.18 19.58 63.28 19.86 63.44 20.06 63.59 20.26 63.77 20.41 64 20.54 64.23 20.67 64.46 20.76 64.7 20.83 64.94 20.9 65.19 20.96 65.43 20.99 65.67 21.02 65.88 21.05 66.05 21.06 66.67 21.1 67.23 21.11 67.74 21.1 68.25 21.09 68.7 21.07 69.08 21.04 69.05 20.42 68.98 19.84 68.86 19.27 68.74 18.7 68.59 18.19 68.41 17.71 68.23 17.23 68.02 16.8 67.79 16.41 67.56 16.02 67.32 15.69 67.07 15.41 66.97 15.31 66.86 15.21 66.74 15.09 66.62 14.97 66.49 14.88 66.34 14.78 66.19 14.68 66.05 14.61 65.89 14.55 65.73 14.49 65.57 14.46 65.4 14.46Z" fill="#FFFFFF"/><path d="M80.1 23.99C79.63 23.99 79.08 23.93 78.44 23.81 77.8 23.69 77.16 23.54 76.53 23.36 75.9 23.18 75.31 22.98 74.79 22.75 74.27 22.52 73.88 22.3 73.63 22.08L74.83 19.33C75.19 19.56 75.63 19.79 76.13 20.01 76.63 20.23 77.18 20.42 77.76 20.58 78.34 20.74 78.93 20.86 79.54 20.94 80.15 21.02 80.74 21.03 81.31 20.98 81.88 20.93 82.4 20.81 82.89 20.61 83.38 20.41 83.79 20.12 84.12 19.72 84.38 19.42 84.42 18.85 84.22 18.02 84.11 17.54 83.94 17.04 83.7 16.52 83.46 16 83.17 15.48 82.84 14.95 82.51 14.42 82.13 13.92 81.72 13.42 81.31 12.92 80.88 12.46 80.44 12.04 80 11.62 79.54 11.24 79.09 10.91 78.64 10.58 78.18 10.31 77.74 10.12L78.93 7.45C79.51 7.71 80.09 8.06 80.67 8.48 81.25 8.9 81.82 9.37 82.38 9.9 82.94 10.43 83.46 11 83.96 11.61 84.46 12.22 84.92 12.85 85.33 13.5 85.74 14.15 86.1 14.8 86.4 15.46 86.7 16.12 86.93 16.75 87.07 17.38 87.19 17.93 87.25 18.42 87.25 18.86 87.25 19.3 87.21 19.69 87.13 20.03 87.05 20.37 86.94 20.67 86.8 20.92 86.66 21.17 86.52 21.39 86.36 21.58 85.46 22.66 84.21 23.38 82.6 23.73 82.23 23.83 81.84 23.9 81.43 23.94 81.02 23.98 80.59 24 80.13 24Z" fill="#FFFFFF"/><path d="M102.15 14.49C102.42 15.4 102.68 16.3 102.93 17.19 103.03 17.57 103.13 17.97 103.24 18.38 103.35 18.79 103.45 19.2 103.54 19.61 103.63 20.02 103.71 20.42 103.78 20.8 103.85 21.18 103.9 21.55 103.94 21.88 103.94 21.99 103.96 22.11 103.97 22.25 103.98 22.39 103.98 22.54 103.98 22.71 103.98 23.56 103.86 24.38 103.61 25.18 103.36 25.98 103.01 26.75 102.57 27.49 102.13 28.23 101.6 28.93 100.99 29.61 100.38 30.29 99.72 30.92 99 31.51 98.28 32.1 97.53 32.65 96.73 33.16 95.93 33.67 95.13 34.12 94.31 34.52L93.04 31.94C94.07 31.43 95.06 30.84 96.03 30.17 97 29.5 97.86 28.77 98.62 27.98 99.38 27.19 99.98 26.35 100.44 25.46 100.9 24.57 101.13 23.65 101.13 22.71 101.13 22.66 101.13 22.58 101.12 22.47 101.11 22.36 101.1 22.25 101.09 22.14L101.09 22.16C101.06 21.86 101.01 21.53 100.94 21.17 100.87 20.81 100.79 20.45 100.71 20.07 100.63 19.69 100.53 19.32 100.43 18.94 100.33 18.56 100.23 18.2 100.14 17.85 99.91 17.03 99.66 16.21 99.39 15.39L102.17 14.51ZM102.81 8.54 100.42 10.93 98.02 8.53 100.41 6.14 102.81 8.54Z" fill="#FFFFFF"/><path d="M105.69 31.46C107.19 31.16 108.54 30.74 109.73 30.2 110.92 29.66 111.94 29.06 112.79 28.38 113.64 27.7 114.31 26.99 114.8 26.23 115.29 25.47 115.59 24.73 115.7 24 115.29 24 114.8 24.01 114.24 24 113.68 23.99 113.13 23.97 112.59 23.92 110.47 23.78 108.9 23.09 107.89 21.84 107.44 21.27 107.16 20.62 107.03 19.88 106.9 19.14 106.9 18.38 107.02 17.6 107.14 16.82 107.34 16.07 107.64 15.34 107.94 14.61 108.3 13.98 108.71 13.46 109.2 12.84 109.74 12.38 110.32 12.06 110.9 11.74 111.51 11.58 112.14 11.58 113.53 11.58 114.8 12.2 115.96 13.46 116.46 14.01 116.9 14.64 117.27 15.36 117.64 16.08 117.95 16.85 118.19 17.67 118.43 18.49 118.58 19.34 118.67 20.23 118.76 21.12 118.75 22.01 118.67 22.9 118.56 23.97 118.32 24.98 117.95 25.91 117.58 26.84 117.11 27.7 116.53 28.49 115.95 29.28 115.29 30 114.53 30.64 113.77 31.28 112.96 31.85 112.08 32.33 111.2 32.81 110.29 33.22 109.32 33.55 108.35 33.88 107.37 34.12 106.36 34.28L105.69 31.45ZM112.15 14.48C111.87 14.48 111.6 14.59 111.34 14.81 111.08 15.03 110.86 15.31 110.66 15.65 110.46 15.99 110.29 16.37 110.15 16.8 110.01 17.23 109.92 17.64 109.86 18.06 109.8 18.48 109.8 18.86 109.86 19.22 109.92 19.58 110.02 19.86 110.18 20.06 110.33 20.26 110.51 20.41 110.74 20.54 110.97 20.67 111.2 20.76 111.44 20.83 111.68 20.9 111.93 20.96 112.17 20.99 112.41 21.02 112.62 21.05 112.79 21.06 113.41 21.1 113.97 21.11 114.48 21.1 114.99 21.09 115.44 21.07 115.82 21.04 115.79 20.42 115.72 19.84 115.6 19.27 115.48 18.7 115.33 18.19 115.15 17.71 114.97 17.23 114.76 16.8 114.53 16.41 114.3 16.02 114.06 15.69 113.81 15.41 113.71 15.31 113.6 15.21 113.48 15.09 113.36 14.97 113.23 14.88 113.08 14.78 112.93 14.68 112.79 14.61 112.63 14.55 112.47 14.49 112.31 14.46 112.14 14.46Z" fill="#FFFFFF"/><path d="M126.09 14.49C126.36 15.4 126.62 16.3 126.87 17.19 126.97 17.57 127.07 17.97 127.18 18.38 127.29 18.79 127.39 19.2 127.48 19.61 127.57 20.02 127.65 20.42 127.72 20.8 127.79 21.18 127.84 21.55 127.88 21.88 127.88 21.99 127.9 22.11 127.91 22.25 127.92 22.39 127.92 22.54 127.92 22.71 127.92 23.56 127.8 24.38 127.55 25.18 127.3 25.98 126.95 26.75 126.51 27.49 126.07 28.23 125.54 28.93 124.93 29.61 124.32 30.29 123.66 30.92 122.94 31.51 122.22 32.1 121.47 32.65 120.67 33.16 119.87 33.67 119.07 34.12 118.25 34.52L116.98 31.94C118.01 31.43 119 30.84 119.97 30.17 120.94 29.5 121.8 28.77 122.56 27.98 123.32 27.19 123.92 26.35 124.38 25.46 124.84 24.57 125.07 23.65 125.07 22.71 125.07 22.66 125.07 22.58 125.06 22.47 125.05 22.36 125.04 22.25 125.03 22.14L125.03 22.16C125 21.86 124.95 21.53 124.88 21.17 124.81 20.81 124.73 20.45 124.65 20.07 124.57 19.69 124.47 19.32 124.37 18.94 124.27 18.56 124.17 18.2 124.08 17.85 123.85 17.03 123.6 16.21 123.33 15.39L126.11 14.51Z" fill="#FFFFFF"/><path d="M143.21 14.49C143.48 15.4 143.74 16.3 143.99 17.19 144.09 17.57 144.19 17.97 144.3 18.38 144.41 18.79 144.51 19.2 144.6 19.61 144.69 20.02 144.77 20.42 144.84 20.8 144.91 21.18 144.96 21.55 145 21.88 145 21.99 145.02 22.11 145.03 22.25 145.04 22.39 145.04 22.54 145.04 22.71 145.04 23.56 144.92 24.38 144.67 25.18 144.42 25.98 144.07 26.75 143.63 27.49 143.19 28.23 142.66 28.93 142.05 29.61 141.44 30.29 140.78 30.92 140.06 31.51 139.34 32.1 138.59 32.65 137.79 33.16 136.99 33.67 136.19 34.12 135.37 34.52L134.1 31.94C135.13 31.43 136.12 30.84 137.09 30.17 138.06 29.5 138.92 28.77 139.68 27.98 140.44 27.19 141.04 26.35 141.5 25.46 141.96 24.57 142.19 23.65 142.19 22.71 142.19 22.66 142.19 22.58 142.18 22.47 142.17 22.36 142.16 22.25 142.15 22.14L142.15 22.16C142.12 21.86 142.07 21.53 142 21.17 141.93 20.81 141.85 20.45 141.77 20.07 141.69 19.69 141.59 19.32 141.49 18.94 141.39 18.56 141.29 18.2 141.2 17.85 140.97 17.03 140.72 16.21 140.45 15.39L143.23 14.51Z" fill="#FFFFFF"/><path d="M153.28 23.99C152.81 23.99 152.26 23.93 151.62 23.81 150.98 23.69 150.34 23.54 149.71 23.36 149.08 23.18 148.49 22.98 147.97 22.75 147.45 22.52 147.06 22.3 146.81 22.08L148.01 19.33C148.37 19.56 148.81 19.79 149.31 20.01 149.81 20.23 150.36 20.42 150.94 20.58 151.52 20.74 152.11 20.86 152.72 20.94 153.33 21.02 153.92 21.03 154.49 20.98 155.06 20.93 155.58 20.81 156.07 20.61 156.56 20.41 156.97 20.12 157.3 19.72 157.56 19.42 157.6 18.85 157.4 18.02 157.29 17.54 157.12 17.04 156.88 16.52 156.64 16 156.35 15.48 156.02 14.95 155.69 14.42 155.31 13.92 154.9 13.42 154.49 12.92 154.06 12.46 153.62 12.04 153.18 11.62 152.72 11.24 152.27 10.91 151.82 10.58 151.36 10.31 150.92 10.12L152.11 7.45C152.69 7.71 153.27 8.06 153.85 8.48 154.43 8.9 155 9.37 155.56 9.9 156.12 10.43 156.64 11 157.14 11.61 157.64 12.22 158.1 12.85 158.51 13.5 158.92 14.15 159.28 14.8 159.58 15.46 159.88 16.12 160.11 16.75 160.25 17.38 160.37 17.93 160.43 18.42 160.43 18.86 160.43 19.3 160.39 19.69 160.31 20.03 160.23 20.37 160.12 20.67 159.98 20.92 159.84 21.17 159.7 21.39 159.54 21.58 158.64 22.66 157.39 23.38 155.78 23.73 155.41 23.83 155.02 23.9 154.61 23.94 154.2 23.98 153.77 24 153.31 24Z" fill="#FFFFFF"/><path d="M177.27 24.01C176.2 24.01 175.28 23.88 174.51 23.63 173.74 23.38 173.1 22.99 172.57 22.46 172.25 22.14 172 21.79 171.83 21.42 171.66 21.05 171.53 20.68 171.45 20.32 171.37 19.96 171.32 19.61 171.31 19.29 171.3 18.97 171.3 18.68 171.3 18.45L171.3 18.17C171.3 18.17 171.3 17.98 171.31 17.64 171.32 17.3 171.33 16.82 171.33 16.23 171.33 15.64 171.33 14.96 171.33 14.19 171.33 13.42 171.33 12.6 171.32 11.74 171.32 10.9 171.32 10.03 171.29 9.12 171.26 8.21 171.24 7.33 171.2 6.48 171.16 5.63 171.11 4.85 171.04 4.13 170.97 3.41 170.89 2.82 170.81 2.37L173.68 1.84C173.77 2.34 173.85 2.95 173.91 3.67 173.97 4.39 174.03 5.18 174.08 6.03 174.13 6.88 174.16 7.77 174.18 8.69 174.2 9.61 174.21 10.51 174.21 11.39 174.21 12.25 174.22 13.07 174.22 13.86L174.22 15.97C174.22 16.59 174.22 17.09 174.22 17.49 174.22 17.89 174.22 18.13 174.22 18.21L174.22 18.47C174.22 18.9 174.22 19.28 174.26 19.6 174.3 19.92 174.43 20.2 174.66 20.41 175.1 20.87 175.93 21.1 177.15 21.11L177.28 21.11C177.48 21.11 177.66 21.15 177.84 21.23 178.02 21.31 178.17 21.41 178.3 21.55 178.43 21.69 178.54 21.84 178.61 22.01 178.68 22.18 178.73 22.37 178.73 22.57 178.73 22.98 178.59 23.32 178.31 23.6 178.03 23.88 177.69 24.01 177.28 24.01Z" fill="#FFFFFF"/><path d="M175.72 22.56C175.72 22.36 175.76 22.18 175.84 22.01 175.92 21.84 176.03 21.69 176.16 21.56 176.29 21.43 176.46 21.33 176.64 21.25 176.82 21.17 177.01 21.14 177.22 21.14L177.35 21.14C177.94 21.14 178.45 21.14 178.9 21.12 179.35 21.1 179.75 21.1 180.11 21.08 180.47 21.06 180.8 21.04 181.1 21.01 181.4 20.98 181.69 20.95 181.97 20.91 181.24 20.12 180.69 19.34 180.32 18.57 179.95 17.8 179.77 17.06 179.77 16.35 179.77 15.86 179.84 15.35 179.97 14.81 180.1 14.27 180.31 13.75 180.59 13.24 180.87 12.73 181.22 12.27 181.64 11.83 182.06 11.39 182.56 11.04 183.15 10.75L181.99 10.3 183.38 7.66 188.48 9.75C189.39 10.15 190.26 10.55 191.11 10.95 191.96 11.35 192.74 11.75 193.45 12.15 194.16 12.55 194.8 12.96 195.35 13.37 195.9 13.78 196.32 14.19 196.62 14.6 197.52 15.84 197.97 17.11 197.97 18.41 197.97 19.37 197.72 20.26 197.21 21.1 196.7 21.94 195.94 22.63 194.91 23.17L194.92 23.17C194.65 23.32 194.32 23.46 193.95 23.57 193.58 23.68 193.19 23.77 192.79 23.84 192.39 23.91 191.98 23.96 191.57 23.99 191.16 24.02 190.78 24.04 190.44 24.04 189.58 24.04 188.75 23.98 187.94 23.85 187.13 23.72 186.32 23.49 185.49 23.16 184.97 23.32 184.39 23.45 183.74 23.56 183.09 23.67 182.41 23.75 181.7 23.82 180.99 23.89 180.26 23.93 179.52 23.96 178.78 23.99 178.06 24 177.37 24L177.24 24C177.03 24 176.84 23.96 176.66 23.89 176.48 23.82 176.32 23.71 176.18 23.58 176.04 23.45 175.94 23.29 175.86 23.12 175.78 22.95 175.74 22.75 175.74 22.55ZM188.24 15.53C188.24 15.24 188.22 14.93 188.17 14.6 188.12 14.27 188.03 13.96 187.89 13.66 187.75 13.36 187.55 13.1 187.29 12.87 187.03 12.64 186.69 12.48 186.27 12.39 185.73 12.28 185.24 12.33 184.79 12.54 184.34 12.75 183.95 13.05 183.63 13.43 183.31 13.81 183.05 14.24 182.86 14.72 182.67 15.2 182.58 15.66 182.58 16.1 182.58 16.51 182.65 16.9 182.8 17.27 182.95 17.64 183.14 17.99 183.39 18.32 183.64 18.65 183.93 18.95 184.26 19.24 184.59 19.53 184.94 19.79 185.31 20.04 185.81 19.82 186.24 19.53 186.61 19.19 186.98 18.85 187.28 18.48 187.52 18.07 187.76 17.66 187.94 17.24 188.05 16.8 188.16 16.36 188.23 15.93 188.23 15.52ZM191.24 15.65C191.24 16.06 191.18 16.51 191.06 16.98 190.94 17.45 190.78 17.94 190.57 18.42 190.36 18.9 190.1 19.38 189.8 19.85 189.5 20.32 189.16 20.75 188.79 21.14 189.1 21.19 189.36 21.22 189.57 21.23 189.78 21.24 189.97 21.24 190.14 21.24L190.84 21.24C191.58 21.24 192.23 21.16 192.78 21 193.33 20.84 193.79 20.62 194.14 20.35 194.49 20.08 194.76 19.76 194.94 19.39 195.12 19.02 195.2 18.64 195.2 18.24 195.2 17.9 195.11 17.53 194.94 17.13 194.77 16.73 194.5 16.33 194.16 15.92 193.82 15.51 193.38 15.12 192.86 14.73 192.34 14.34 191.74 13.98 191.04 13.66 191.15 14.03 191.21 14.38 191.22 14.71 191.23 15.04 191.23 15.35 191.23 15.65Z" fill="#FFFFFF"/><path d="M212.94 24.01C212.94 24.01 212.77 24.01 212.58 23.99 212.39 23.97 212.15 23.95 211.87 23.91 211.59 23.87 211.27 23.8 210.91 23.7 210.55 23.6 210.19 23.47 209.83 23.3 208.9 22.87 208.2 22.28 207.71 21.54 207.22 20.8 206.98 19.92 206.98 18.92 206.98 17.16 207.78 15.32 209.37 13.4 209.69 13.02 210 12.68 210.3 12.37 210.6 12.06 210.86 11.81 211.08 11.61 210.79 11.35 210.55 11.14 210.38 10.99 210.21 10.84 210.12 10.77 210.12 10.76L211.97 8.52C211.97 8.52 212.08 8.63 212.28 8.8 212.48 8.97 212.74 9.19 213.05 9.49 213.36 9.79 213.72 10.13 214.12 10.52 214.52 10.91 214.93 11.35 215.35 11.82 216.54 13.18 217.43 14.45 218.02 15.64 218.61 16.83 218.91 17.92 218.91 18.93 218.91 19.94 218.69 20.81 218.24 21.55 217.79 22.29 217.14 22.87 216.28 23.29 215.97 23.45 215.65 23.57 215.33 23.66 215.01 23.75 214.7 23.83 214.41 23.88 214.12 23.93 213.84 23.97 213.58 23.98 213.32 23.99 213.1 24 212.93 24ZM213.12 13.7C212.84 13.95 212.51 14.28 212.13 14.67 211.75 15.06 211.4 15.49 211.07 15.96 210.74 16.43 210.46 16.92 210.23 17.43 210 17.94 209.89 18.44 209.89 18.93 209.89 19.08 209.9 19.23 209.93 19.39 209.96 19.55 210.01 19.7 210.09 19.85 210.17 20 210.29 20.15 210.45 20.3 210.61 20.45 210.82 20.58 211.08 20.69 211.27 20.78 211.46 20.85 211.65 20.9 211.84 20.95 212.03 21 212.19 21.02 212.35 21.04 212.51 21.07 212.64 21.08 212.77 21.09 212.88 21.09 212.95 21.09 213.04 21.09 213.16 21.09 213.32 21.09 213.48 21.09 213.66 21.07 213.85 21.05 214.04 21.03 214.24 20.99 214.44 20.93 214.64 20.87 214.83 20.81 215.02 20.72 215.38 20.52 215.64 20.29 215.8 20.01 215.96 19.73 216.04 19.37 216.04 18.93 216.04 18.3 215.8 17.53 215.31 16.64 214.82 15.75 214.11 14.79 213.19 13.76 213.19 13.76 213.17 13.74 213.17 13.73 213.17 13.72 213.15 13.71 213.13 13.7Z" fill="#FFFFFF"/><path d="M226.61 24.01C225.47 24.01 224.4 23.77 223.41 23.29 222.42 22.81 221.51 22.15 220.69 21.3L222.35 18.97C222.94 19.52 223.53 19.95 224.12 20.27 224.71 20.59 225.3 20.82 225.89 20.94 226.48 21.06 227.04 21.1 227.6 21.05 228.16 21 228.71 20.87 229.23 20.66 229.73 20.46 230.14 20.25 230.45 20.02 230.76 19.79 231.01 19.59 231.18 19.43L226.55 8.3 229.22 7.19C229.53 7.95 229.91 8.86 230.35 9.93 230.72 10.85 231.18 11.98 231.74 13.32 232.3 14.66 232.95 16.23 233.7 18.01 233.9 18.48 234.07 18.91 234.22 19.29 234.37 19.67 234.56 20 234.8 20.27 235.04 20.54 235.35 20.75 235.74 20.9 236.13 21.05 236.66 21.13 237.32 21.13 237.72 21.13 238.06 21.27 238.35 21.54 238.64 21.81 238.77 22.16 238.77 22.57 238.77 22.98 238.63 23.32 238.35 23.6 238.07 23.88 237.73 24.01 237.32 24.01 236.69 24.01 236.12 23.96 235.63 23.86 235.14 23.76 234.7 23.62 234.33 23.44 233.96 23.26 233.62 23.06 233.34 22.82 233.06 22.58 232.81 22.33 232.61 22.07 232.32 22.28 231.98 22.51 231.61 22.74 231.24 22.97 230.8 23.19 230.31 23.38 229.76 23.59 229.2 23.75 228.61 23.86 228.02 23.97 227.36 24.01 226.62 24.01Z" fill="#FFFFFF"/><path d="M235.78 22.57C235.78 22.16 235.92 21.82 236.2 21.54 236.48 21.26 236.82 21.13 237.22 21.13L238.73 21.13C239.25 21.15 239.75 21.15 240.22 21.13 240.69 21.11 241.14 21.03 241.54 20.92 241.94 20.81 242.29 20.63 242.6 20.39 242.91 20.15 243.16 19.83 243.35 19.42 243.55 19 243.6 18.4 243.52 17.63 243.44 16.86 243.24 15.95 242.93 14.91 242.82 14.6 242.7 14.26 242.56 13.89 242.42 13.52 242.28 13.18 242.14 12.87 241.98 12.5 241.82 12.13 241.66 11.77L244.27 10.48C244.27 10.48 244.32 10.59 244.41 10.78 244.5 10.97 244.62 11.23 244.75 11.55 244.88 11.87 245.04 12.25 245.2 12.67 245.36 13.09 245.52 13.55 245.67 14.03 246.58 16.83 246.69 19.02 246.01 20.59 245.32 22.16 244.09 23.2 242.32 23.7 241.79 23.86 241.28 23.95 240.77 23.98 240.26 24.01 239.8 24.02 239.36 24.02L237.22 24.02C236.82 24.02 236.48 23.88 236.2 23.61 235.92 23.34 235.78 22.99 235.78 22.58ZM244.54 5.72 242.15 8.11 239.75 5.71 242.14 3.32 244.54 5.72Z" fill="#FFFFFF"/><path d="M255.32 23C255.32 23.85 255.2 24.68 254.95 25.48 254.7 26.28 254.35 27.05 253.91 27.79 253.47 28.53 252.94 29.24 252.33 29.91 251.72 30.58 251.06 31.21 250.34 31.81 249.62 32.41 248.87 32.95 248.07 33.46 247.27 33.97 246.47 34.42 245.65 34.83L244.39 32.24C245.09 31.88 245.79 31.48 246.48 31.05 247.17 30.62 247.83 30.16 248.44 29.66 249.05 29.16 249.62 28.63 250.14 28.08 250.66 27.53 251.09 26.94 251.45 26.34 251.81 25.74 252.07 25.11 252.25 24.46 252.43 23.81 252.48 23.14 252.41 22.45L252.41 22.48C252.34 21.92 252.24 21.32 252.1 20.69 251.96 20.06 251.8 19.42 251.63 18.81 251.46 18.2 251.29 17.62 251.13 17.07 250.97 16.52 250.83 16.08 250.71 15.72L253.46 14.87C253.83 16 254.19 16.97 254.55 17.76 254.91 18.55 255.27 19.21 255.65 19.71 256.03 20.21 256.42 20.58 256.83 20.82 257.24 21.06 257.69 21.17 258.18 21.17L258.25 21.17C258.46 21.17 258.65 21.21 258.82 21.29 258.99 21.37 259.15 21.47 259.28 21.6 259.41 21.73 259.51 21.89 259.59 22.06 259.67 22.23 259.7 22.42 259.7 22.62 259.7 23.03 259.56 23.37 259.28 23.64 259 23.91 258.66 24.04 258.25 24.04L258.24 24.04C258.1 24.04 257.93 24.04 257.71 24.02 257.49 24 257.25 23.97 256.98 23.9 256.71 23.83 256.44 23.72 256.15 23.58 255.86 23.44 255.59 23.23 255.33 22.96L255.33 23.02Z" fill="#FFFFFF"/><path d="M256.58 22.57C256.58 22.16 256.72 21.82 257 21.54 257.28 21.26 257.62 21.13 258.02 21.13L259.53 21.13C260.05 21.15 260.55 21.15 261.02 21.13 261.49 21.11 261.94 21.03 262.34 20.92 262.74 20.81 263.09 20.63 263.4 20.39 263.71 20.15 263.96 19.83 264.15 19.42 264.35 19 264.4 18.4 264.32 17.63 264.24 16.86 264.04 15.95 263.73 14.91 263.62 14.6 263.5 14.26 263.36 13.89 263.22 13.52 263.08 13.18 262.94 12.87 262.78 12.5 262.62 12.13 262.46 11.77L265.07 10.48C265.07 10.48 265.12 10.59 265.21 10.78 265.3 10.97 265.42 11.23 265.55 11.55 265.68 11.87 265.84 12.25 266 12.67 266.16 13.09 266.32 13.55 266.47 14.03 267.38 16.83 267.49 19.02 266.81 20.59 266.12 22.16 264.89 23.2 263.12 23.7 262.59 23.86 262.08 23.95 261.57 23.98 261.06 24.01 260.6 24.02 260.16 24.02L258.02 24.02C257.62 24.02 257.28 23.88 257 23.61 256.72 23.34 256.58 22.99 256.58 22.58ZM264.81 29.51 262.42 31.9 260.02 29.5 262.41 27.11 264.81 29.51Z" fill="#FFFFFF"/><path d="M287.14 33.56C286.29 33.56 285.41 33.52 284.5 33.44 283.59 33.36 282.72 33.19 281.88 32.93 281.04 32.67 280.27 32.32 279.57 31.85 278.87 31.38 278.29 30.77 277.84 30.01 276.79 28.47 276.32 26.47 276.43 24 276.5 22.66 276.74 21.2 277.15 19.62 277.56 18.04 278.15 16.32 278.92 14.45L281.6 15.53C280.35 18.6 279.61 21.21 279.38 23.37 279.15 25.53 279.43 27.21 280.22 28.41 280.62 28.99 281.12 29.43 281.71 29.74 282.3 30.05 282.92 30.27 283.56 30.41 284.2 30.55 284.83 30.62 285.46 30.64 286.09 30.66 286.65 30.67 287.14 30.67 287.42 30.67 287.82 30.65 288.34 30.6 288.86 30.55 289.42 30.48 290.02 30.37 290.62 30.26 291.24 30.12 291.87 29.94 292.5 29.76 293.07 29.54 293.58 29.27 294.09 29 294.51 28.69 294.83 28.33 295.15 27.97 295.31 27.55 295.31 27.07 295.31 26.95 295.26 26.81 295.15 26.65 295.04 26.49 294.87 26.32 294.63 26.13 294.39 25.94 294.08 25.75 293.7 25.54 293.32 25.33 292.85 25.13 292.29 24.92 291.95 24.8 291.61 24.69 291.27 24.59 290.93 24.49 290.62 24.4 290.33 24.33 290.04 24.26 289.77 24.19 289.52 24.13 289.27 24.07 289.08 24.03 288.92 24L288.6 23.94 288.82 21.1 300.1 21.12C300.5 21.12 300.84 21.26 301.13 21.53 301.42 21.8 301.55 22.15 301.55 22.56 301.55 22.97 301.41 23.31 301.13 23.59 300.85 23.87 300.51 24 300.1 24L296.6 24C296.93 24.27 297.2 24.55 297.41 24.83 297.62 25.11 297.78 25.38 297.9 25.64 298.02 25.9 298.1 26.16 298.13 26.4 298.16 26.64 298.19 26.87 298.19 27.07 298.19 27.9 297.99 28.64 297.62 29.28 297.25 29.92 296.76 30.49 296.16 30.97 295.56 31.45 294.87 31.85 294.09 32.18 293.31 32.51 292.53 32.77 291.71 32.98 290.89 33.19 290.09 33.33 289.29 33.42 288.49 33.51 287.77 33.55 287.12 33.55Z" fill="#FFFFFF"/><path d="M298.26 22.57C298.26 22.17 298.4 21.83 298.67 21.57 298.94 21.31 299.28 21.16 299.68 21.14L299.69 21.14C300.51 21.14 301.2 21.01 301.77 20.74 302.34 20.47 302.83 20.12 303.25 19.67 303.67 19.22 304.04 18.72 304.35 18.15 304.66 17.58 304.97 16.99 305.27 16.38 305.52 15.85 305.78 15.35 306.03 14.87 306.28 14.39 306.58 13.95 306.91 13.55 307.79 12.48 308.85 11.94 310.1 11.94 311.57 11.94 312.8 12.53 313.78 13.71 314.56 14.65 315.03 15.83 315.19 17.24 315.29 17.91 315.3 18.57 315.23 19.22 315.16 19.87 315.02 20.48 314.81 21.05 314.53 21.75 314.15 22.33 313.68 22.79 313.21 23.25 312.67 23.55 312.05 23.72 310.96 24.01 309.72 23.88 308.34 23.32 307.39 22.95 306.4 22.38 305.37 21.62 305.3 21.69 305.25 21.73 305.22 21.75 303.76 23.25 301.92 24.01 299.68 24.01L299.67 24.01C299.27 24.01 298.93 23.87 298.66 23.59 298.39 23.31 298.25 22.97 298.25 22.57ZM307.06 19.24C307.95 19.89 308.76 20.37 309.49 20.66 310.22 20.95 310.83 21.03 311.32 20.89 311.49 20.85 311.65 20.74 311.8 20.55 311.95 20.36 312.09 20.13 312.2 19.83 312.31 19.53 312.39 19.2 312.43 18.82 312.47 18.44 312.47 18.03 312.41 17.59 312.41 17.52 312.38 17.4 312.34 17.24 312.3 17.08 312.24 16.89 312.17 16.68 312.1 16.47 312 16.26 311.88 16.04 311.76 15.82 311.62 15.62 311.46 15.44 311.3 15.26 311.1 15.11 310.87 14.99 310.64 14.87 310.39 14.81 310.09 14.81 309.89 14.81 309.71 14.87 309.54 14.98 309.37 15.09 309.2 15.27 309.03 15.5 308.86 15.73 308.68 16.03 308.49 16.38 308.3 16.73 308.08 17.15 307.84 17.63L307.05 19.23Z" fill="#FFFFFF"/><path d="M324.42 24.01C323.35 24.01 322.43 23.88 321.66 23.63 320.89 23.38 320.25 22.99 319.72 22.46 319.4 22.14 319.15 21.79 318.98 21.42 318.81 21.05 318.68 20.68 318.6 20.32 318.52 19.96 318.47 19.61 318.46 19.29 318.45 18.97 318.45 18.68 318.45 18.45L318.45 18.17C318.45 18.17 318.45 17.98 318.46 17.64 318.47 17.3 318.48 16.82 318.48 16.23 318.48 15.64 318.48 14.96 318.48 14.19 318.48 13.42 318.48 12.6 318.47 11.74 318.47 10.9 318.47 10.03 318.44 9.12 318.41 8.21 318.39 7.33 318.35 6.48 318.31 5.63 318.26 4.85 318.19 4.13 318.12 3.41 318.04 2.82 317.96 2.37L320.83 1.84C320.92 2.34 321 2.95 321.06 3.67 321.12 4.39 321.18 5.18 321.23 6.03 321.28 6.88 321.31 7.77 321.33 8.69 321.35 9.61 321.36 10.51 321.36 11.39 321.36 12.25 321.37 13.07 321.37 13.86L321.37 15.97C321.37 16.59 321.37 17.09 321.37 17.49 321.37 17.89 321.37 18.13 321.37 18.21L321.37 18.47C321.37 18.9 321.37 19.28 321.41 19.6 321.45 19.92 321.58 20.2 321.81 20.41 322.25 20.87 323.08 21.1 324.3 21.11L324.43 21.11C324.63 21.11 324.81 21.15 324.99 21.23 325.17 21.31 325.32 21.41 325.45 21.55 325.58 21.69 325.69 21.84 325.76 22.01 325.83 22.18 325.88 22.37 325.88 22.57 325.88 22.98 325.74 23.32 325.46 23.6 325.18 23.88 324.84 24.01 324.43 24.01Z" fill="#FFFFFF"/><path d="M323.04 22.59C323.04 22.4 323.07 22.23 323.14 22.06 323.21 21.89 323.3 21.74 323.43 21.61 323.56 21.48 323.7 21.37 323.86 21.3 324.02 21.23 324.2 21.17 324.39 21.15 324.97 21.15 325.49 21.04 325.95 20.81 326.41 20.58 326.82 20.29 327.18 19.91 327.54 19.53 327.85 19.1 328.12 18.61 328.39 18.12 328.63 17.61 328.82 17.08 329.01 16.55 329.18 16.01 329.31 15.47 329.44 14.93 329.56 14.42 329.65 13.94L332.55 14.56C332.47 14.79 332.38 15.1 332.26 15.47 332.14 15.84 332.04 16.24 331.93 16.66 331.82 17.08 331.73 17.52 331.65 17.96 331.57 18.4 331.53 18.82 331.53 19.2 331.53 19.46 331.55 19.72 331.6 19.97 331.65 20.22 331.73 20.44 331.85 20.64 331.97 20.84 332.13 20.99 332.33 21.11 332.53 21.23 332.79 21.29 333.11 21.29 333.61 21.29 334.05 21.15 334.45 20.88 334.85 20.61 335.2 20.25 335.5 19.81 335.8 19.37 336.07 18.87 336.3 18.32 336.53 17.77 336.72 17.2 336.88 16.62 337.04 16.04 337.18 15.48 337.28 14.94 337.38 14.4 337.47 13.93 337.53 13.53L340.34 14.04C340.23 14.67 340.14 15.22 340.07 15.67 340 16.12 339.93 16.61 339.87 17.12 339.81 17.63 339.78 18.09 339.78 18.49 339.78 18.85 339.81 19.2 339.86 19.52 339.91 19.84 340 20.14 340.12 20.38 340.24 20.62 340.4 20.83 340.6 21 340.8 21.17 341.05 21.26 341.34 21.29 341.79 21.35 342.16 21.34 342.46 21.28 342.76 21.22 342.99 21.12 343.17 21.01 343.35 20.9 343.48 20.78 343.56 20.65 343.64 20.52 343.7 20.43 343.73 20.37L343.72 20.37C343.86 20.16 343.95 19.91 344.01 19.64 344.07 19.37 344.09 19.07 344.09 18.76 344.09 18.2 344.01 17.6 343.86 16.96 343.71 16.32 343.53 15.68 343.32 15.06 343.11 14.44 342.89 13.86 342.66 13.33 342.43 12.8 342.24 12.37 342.08 12.06L344.64 10.71C344.69 10.81 344.78 11 344.92 11.27 345.06 11.54 345.21 11.89 345.39 12.3 345.57 12.71 345.75 13.16 345.94 13.67 346.13 14.18 346.3 14.71 346.46 15.27 346.62 15.83 346.75 16.41 346.85 16.99 346.95 17.57 347 18.15 347 18.7 347 19.54 346.88 20.3 346.65 20.98 346.42 21.66 346.06 22.24 345.6 22.72 345.14 23.2 344.54 23.57 343.83 23.83 343.12 24.09 342.29 24.21 341.35 24.2 340.97 24.2 340.59 24.14 340.22 24.02 339.85 23.9 339.49 23.74 339.15 23.54 338.81 23.34 338.49 23.11 338.2 22.84 337.91 22.57 337.66 22.28 337.45 21.97 336.86 22.65 336.2 23.19 335.46 23.59 334.72 23.99 333.93 24.19 333.1 24.19 332.74 24.19 332.37 24.14 331.98 24.05 331.59 23.96 331.23 23.82 330.87 23.63 330.51 23.44 330.2 23.21 329.91 22.94 329.62 22.67 329.4 22.35 329.24 21.99 328.65 22.61 327.99 23.09 327.25 23.45 326.51 23.81 325.62 24 324.58 24.02L324.35 24.02C324.16 24.02 323.99 23.97 323.82 23.89 323.65 23.81 323.51 23.71 323.39 23.58 323.27 23.45 323.17 23.3 323.1 23.13 323.03 22.96 323 22.78 323 22.58Z" fill="#FFFFFF"/><path d="M350.11 23.99C350.26 21.77 350.35 19.68 350.38 17.7 350.41 15.72 350.41 13.9 350.38 12.22 350.35 10.54 350.28 9.04 350.2 7.7 350.12 6.36 350.03 5.23 349.94 4.29 349.85 3.35 349.78 2.63 349.71 2.12 349.64 1.61 349.61 1.35 349.61 1.33L352.48 0.89C352.5 0.95 352.57 1.54 352.7 2.66 352.77 3.22 352.83 3.82 352.88 4.47 352.93 5.12 352.98 5.81 353.03 6.56 353.08 7.31 353.12 8.01 353.15 8.68 353.18 9.35 353.2 9.99 353.22 10.61 353.28 12.41 353.3 14.45 353.29 16.73 353.28 19.01 353.18 21.49 353 24.16L350.11 24Z" fill="#FFFFFF"/><path d="M11.72 82.72 11.18 69.14C11.18 69.08 11.18 68.94 11.18 68.73 11.18 68.52 11.22 68.27 11.29 67.99 11.36 67.71 11.48 67.42 11.64 67.13 11.8 66.84 12.05 66.57 12.36 66.33 12.49 66.23 12.64 66.14 12.82 66.04 13 65.94 13.21 65.88 13.44 65.83 13.67 65.78 13.94 65.77 14.22 65.78 14.5 65.79 14.83 65.84 15.18 65.94 15.29 65.61 15.42 65.26 15.58 64.89 15.74 64.52 15.92 64.13 16.12 63.73 16.42 63.16 16.73 62.66 17.04 62.23 17.35 61.8 17.66 61.42 17.97 61.09 18.97 60.11 20.04 59.64 21.19 59.68 21.98 59.71 22.7 59.88 23.34 60.2 23.98 60.52 24.54 60.98 25.01 61.6 25.37 62.08 25.65 62.63 25.86 63.25 26.07 63.87 26.19 64.52 26.25 65.19 26.31 65.86 26.28 66.53 26.19 67.19 26.1 67.85 25.93 68.46 25.7 69.02 25.42 69.73 25.05 70.31 24.6 70.73 24.15 71.15 23.64 71.42 23.08 71.52 22.81 71.56 22.5 71.55 22.17 71.5 21.84 71.45 21.46 71.36 21.03 71.23 20.6 71.1 20.11 70.93 19.57 70.72 19.03 70.51 18.41 70.26 17.7 69.98 17.15 69.75 16.61 69.52 16.07 69.31 15.53 69.1 15.01 68.91 14.52 68.75 14.43 68.72 14.35 68.7 14.28 68.68 14.21 68.66 14.15 68.65 14.1 68.65 14.07 68.8 14.06 68.91 14.06 69L14.59 82.7 11.72 82.7ZM18.82 67.33C19.27 67.53 19.71 67.7 20.13 67.86 20.55 68.02 20.95 68.17 21.32 68.31 21.69 68.45 22.03 68.55 22.34 68.63 22.65 68.71 22.84 68.75 22.9 68.76 23.05 68.53 23.17 68.23 23.26 67.88 23.35 67.53 23.42 67.16 23.45 66.78 23.48 66.4 23.49 66.02 23.47 65.65 23.45 65.28 23.4 64.94 23.31 64.66 23.16 64.16 22.99 63.77 22.78 63.49 22.57 63.21 22.36 63 22.14 62.87 21.92 62.74 21.72 62.65 21.53 62.62 21.34 62.59 21.19 62.58 21.08 62.58 20.74 62.58 20.36 62.79 19.94 63.22 19.52 63.65 19.11 64.27 18.71 65.07 18.53 65.39 18.38 65.72 18.25 66.04 18.12 66.36 18 66.67 17.89 66.94L18.81 67.32Z" fill="#FFFFFF"/><path d="M29.2 71.99C29.35 69.77 29.44 67.68 29.47 65.7 29.5 63.72 29.5 61.9 29.47 60.22 29.44 58.54 29.37 57.04 29.29 55.7 29.21 54.36 29.12 53.23 29.03 52.29 28.94 51.35 28.87 50.63 28.8 50.12 28.73 49.61 28.7 49.35 28.7 49.33L31.57 48.89C31.59 48.95 31.66 49.54 31.79 50.66 31.86 51.22 31.92 51.82 31.97 52.47 32.02 53.12 32.07 53.81 32.12 54.56 32.17 55.31 32.21 56.01 32.24 56.68 32.27 57.35 32.29 57.99 32.31 58.61 32.37 60.41 32.39 62.45 32.38 64.73 32.37 67.01 32.27 69.49 32.09 72.16L29.2 72Z" fill="#FFFFFF"/><path d="M41.78 71C41.78 71.85 41.66 72.68 41.41 73.48 41.16 74.28 40.81 75.05 40.37 75.79 39.93 76.53 39.4 77.24 38.79 77.91 38.18 78.58 37.52 79.21 36.8 79.81 36.08 80.41 35.33 80.95 34.53 81.46 33.73 81.97 32.93 82.42 32.11 82.83L30.85 80.24C31.55 79.88 32.25 79.48 32.94 79.05 33.63 78.62 34.29 78.16 34.9 77.66 35.51 77.16 36.08 76.63 36.6 76.08 37.12 75.53 37.55 74.94 37.91 74.34 38.27 73.74 38.53 73.11 38.71 72.46 38.89 71.81 38.94 71.14 38.87 70.45L38.87 70.48C38.8 69.92 38.7 69.32 38.56 68.69 38.42 68.06 38.26 67.42 38.09 66.81 37.92 66.2 37.75 65.62 37.59 65.07 37.43 64.52 37.29 64.08 37.17 63.72L39.92 62.87C40.29 64 40.65 64.97 41.01 65.76 41.37 66.55 41.73 67.21 42.11 67.71 42.49 68.21 42.88 68.58 43.29 68.82 43.7 69.06 44.15 69.17 44.64 69.17L44.71 69.17C44.92 69.17 45.11 69.21 45.28 69.29 45.45 69.37 45.61 69.47 45.74 69.6 45.87 69.73 45.97 69.89 46.05 70.06 46.13 70.23 46.16 70.42 46.16 70.62 46.16 71.03 46.02 71.37 45.74 71.64 45.46 71.91 45.12 72.04 44.71 72.04L44.7 72.04C44.56 72.04 44.39 72.04 44.17 72.02 43.95 72 43.71 71.97 43.44 71.9 43.17 71.83 42.9 71.72 42.61 71.58 42.32 71.44 42.05 71.23 41.79 70.96L41.79 71.02Z" fill="#FFFFFF"/><path d="M43.05 70.59C43.05 70.18 43.2 69.84 43.49 69.56 43.78 69.28 44.16 69.14 44.63 69.14L46.17 69.14C46.76 69.14 47.37 69.14 48 69.12 48.63 69.1 49.24 69.05 49.82 68.94 50.4 68.83 50.93 68.68 51.4 68.46 51.87 68.24 52.25 67.92 52.52 67.51 52.84 67.02 53.03 66.49 53.08 65.91 53.13 65.33 53.08 64.71 52.9 64.03 52.79 63.63 52.53 63.12 52.1 62.5 51.67 61.88 51.15 61.22 50.53 60.51 49.91 59.8 49.21 59.08 48.44 58.33 47.67 57.58 46.88 56.89 46.08 56.25L46.42 53.25 58.46 48.09 59.59 50.76 49.1 55.17C49.58 55.58 50.1 56.04 50.67 56.55 51.24 57.06 51.8 57.62 52.35 58.24 53.09 59.06 53.7 59.84 54.18 60.59 54.66 61.34 55.03 62.05 55.29 62.72 55.55 63.39 55.73 64.03 55.82 64.63 55.91 65.23 55.93 65.8 55.88 66.32 55.83 66.84 55.73 67.34 55.58 67.78 55.43 68.22 55.25 68.64 55.05 69.01 54.18 70.55 52.71 71.51 50.64 71.89 50.27 71.96 49.84 71.99 49.37 71.99L44.64 71.99C44.17 71.99 43.79 71.85 43.5 71.58 43.21 71.31 43.06 70.97 43.06 70.57ZM57.96 46.23 46.18 51.21 46.28 49.33 57.27 44.74 57.96 46.22Z" fill="#FFFFFF"/><path d="M68.68 72.01C67.61 72.01 66.69 71.88 65.92 71.63 65.15 71.38 64.51 70.99 63.98 70.46 63.66 70.14 63.41 69.79 63.24 69.42 63.07 69.05 62.94 68.68 62.86 68.32 62.78 67.96 62.73 67.61 62.72 67.29 62.71 66.97 62.71 66.68 62.71 66.45L62.71 66.17C62.71 66.17 62.71 65.98 62.72 65.64 62.73 65.3 62.74 64.82 62.74 64.23 62.74 63.64 62.74 62.96 62.74 62.19 62.74 61.42 62.74 60.6 62.73 59.74 62.73 58.9 62.73 58.03 62.7 57.12 62.67 56.21 62.65 55.33 62.61 54.48 62.57 53.63 62.52 52.85 62.45 52.13 62.38 51.41 62.3 50.82 62.22 50.37L65.09 49.84C65.18 50.34 65.26 50.95 65.32 51.67 65.38 52.39 65.44 53.18 65.49 54.03 65.54 54.88 65.57 55.77 65.59 56.69 65.61 57.61 65.62 58.51 65.62 59.39 65.62 60.25 65.63 61.07 65.63 61.86L65.63 63.97C65.63 64.59 65.63 65.09 65.63 65.49 65.63 65.89 65.63 66.13 65.63 66.21L65.63 66.47C65.63 66.9 65.63 67.28 65.67 67.6 65.71 67.92 65.84 68.2 66.07 68.41 66.51 68.87 67.34 69.1 68.56 69.11L68.69 69.11C68.89 69.11 69.07 69.15 69.25 69.23 69.43 69.31 69.58 69.41 69.71 69.55 69.84 69.69 69.95 69.84 70.02 70.01 70.09 70.18 70.14 70.37 70.14 70.57 70.14 70.98 70 71.32 69.72 71.6 69.44 71.88 69.1 72.01 68.69 72.01Z" fill="#FFFFFF"/><path d="M67.12 70.57C67.12 70.16 67.26 69.82 67.53 69.54 67.8 69.26 68.15 69.12 68.56 69.12L69.67 69.12C70.49 69.12 71.28 69.07 72.03 68.97 72.78 68.87 73.44 68.69 74.01 68.43 74.58 68.17 75.03 67.81 75.36 67.35 75.69 66.89 75.84 66.31 75.81 65.6 75.79 65.05 75.74 64.49 75.67 63.9 75.6 63.31 75.45 62.65 75.24 61.89L77.98 61.11C78.07 61.45 78.15 61.81 78.23 62.19 78.31 62.57 78.38 62.95 78.44 63.34 78.5 63.73 78.55 64.12 78.59 64.52 78.63 64.92 78.67 65.3 78.69 65.68 78.71 66.04 78.75 66.42 78.82 66.82 78.89 67.22 79.01 67.59 79.19 67.93 79.37 68.27 79.61 68.55 79.92 68.78 80.23 69.01 80.63 69.12 81.13 69.12 81.54 69.12 81.89 69.26 82.17 69.53 82.45 69.8 82.59 70.15 82.59 70.56 82.59 70.77 82.55 70.95 82.47 71.12 82.39 71.29 82.29 71.44 82.16 71.57 82.03 71.7 81.88 71.8 81.71 71.88 81.54 71.96 81.36 71.99 81.16 71.99 80.17 71.99 79.36 71.81 78.71 71.45 78.06 71.09 77.54 70.65 77.13 70.11 76.78 70.45 76.32 70.74 75.77 70.98 75.22 71.22 74.6 71.41 73.93 71.56 73.26 71.71 72.56 71.81 71.83 71.88 71.1 71.95 70.38 71.98 69.68 71.98L68.57 71.98C68.16 71.98 67.82 71.84 67.54 71.57 67.26 71.3 67.13 70.95 67.13 70.54ZM74.55 56.07 72.18 58.44 69.78 56.05 72.15 53.66 74.55 56.06ZM80.56 56.08 78.19 58.47 75.79 56.07 78.16 53.7 80.56 56.09Z" fill="#FFFFFF"/><path d="M79.82 70.57C79.82 70.38 79.86 70.21 79.94 70.03 80.02 69.85 80.13 69.71 80.26 69.58 80.39 69.45 80.55 69.34 80.72 69.26 80.89 69.18 81.08 69.14 81.26 69.13L81.41 69.13C81.82 69.13 82.21 69.02 82.58 68.8 82.95 68.58 83.3 68.3 83.62 67.96 83.94 67.62 84.24 67.24 84.51 66.82 84.78 66.4 85.02 65.99 85.24 65.59 85.45 65.2 85.63 64.81 85.79 64.42 85.95 64.03 86.1 63.67 86.22 63.34 86.34 63.01 86.45 62.7 86.53 62.43 86.61 62.16 86.68 61.95 86.73 61.79 86.78 61.57 86.8 61.45 86.8 61.44L89.61 62.22C89.61 62.22 89.59 62.26 89.57 62.32 89.55 62.38 89.53 62.46 89.5 62.57 89.44 62.79 89.37 63.12 89.28 63.55 89.19 63.98 89.11 64.46 89.03 64.99 88.92 65.84 88.9 66.58 88.96 67.22 89.02 67.86 89.15 68.34 89.36 68.68 89.5 68.93 89.71 69.08 90 69.11 90.12 69.14 90.22 69.15 90.32 69.15 90.69 69.15 91.05 69.03 91.39 68.78 91.83 68.45 92.26 67.92 92.68 67.21 93.1 66.5 93.48 65.62 93.81 64.59 93.98 64.11 94.11 63.66 94.22 63.23 94.33 62.8 94.41 62.44 94.47 62.13 94.52 61.89 94.56 61.69 94.59 61.55 94.62 61.41 94.63 61.33 94.63 61.31L97.49 61.85C97.49 61.85 97.45 61.94 97.43 62.08 97.41 62.22 97.38 62.42 97.33 62.67 97.28 62.92 97.24 63.23 97.2 63.6 97.16 63.97 97.14 64.35 97.13 64.77 97.08 65.66 97.13 66.43 97.25 67.08 97.37 67.73 97.58 68.23 97.85 68.56 97.96 68.7 98.1 68.82 98.28 68.93 98.46 69.04 98.73 69.09 99.09 69.09 99.6 69.09 100.01 68.91 100.32 68.56 100.65 68.2 100.92 67.67 101.12 66.96 101.32 66.25 101.45 65.43 101.51 64.47 101.53 64.03 101.54 63.62 101.54 63.25 101.54 62.88 101.54 62.55 101.51 62.28 101.48 62.04 101.46 61.84 101.46 61.69 101.46 61.54 101.46 61.46 101.46 61.45L104.33 61.22C104.33 61.22 104.37 61.54 104.39 62.04 104.42 62.25 104.45 62.48 104.49 62.74 104.53 63 104.57 63.29 104.63 63.6 104.69 63.91 104.76 64.23 104.84 64.57 104.92 64.91 105.01 65.24 105.12 65.57 105.89 67.95 106.97 69.14 108.36 69.14L108.65 69.14C109.06 69.14 109.4 69.28 109.68 69.55 109.96 69.82 110.09 70.17 110.09 70.58 110.09 70.99 109.95 71.32 109.68 71.6 109.41 71.88 109.06 72.02 108.65 72.02L108.36 72.02C107.57 72.02 106.83 71.86 106.14 71.53 105.45 71.2 104.83 70.72 104.29 70.09 104.02 69.79 103.75 69.42 103.48 68.99 103.21 69.6 102.88 70.1 102.51 70.5 102.07 71 101.56 71.38 100.99 71.63 100.42 71.88 99.79 72.02 99.11 72.02 98.39 72.02 97.73 71.88 97.13 71.6 96.53 71.32 96.03 70.92 95.61 70.39 95.47 70.21 95.35 70.03 95.23 69.83 95.11 69.63 95.01 69.43 94.91 69.2 94.36 70 93.77 70.65 93.12 71.13 92.25 71.75 91.33 72.05 90.35 72.05 90.21 72.05 90.08 72.05 89.95 72.03 89.82 72.01 89.69 72 89.55 71.98 88.4 71.77 87.51 71.18 86.9 70.22 86.8 70.05 86.71 69.88 86.64 69.7 86.57 69.52 86.48 69.33 86.41 69.14 86.09 69.56 85.76 69.93 85.43 70.24 84.22 71.42 82.89 72.01 81.43 72.01L81.28 72.01C81.08 72.01 80.9 71.97 80.72 71.9 80.54 71.83 80.39 71.72 80.26 71.59 80.13 71.46 80.02 71.3 79.95 71.13 79.88 70.96 79.83 70.77 79.83 70.57Z" fill="#FFFFFF"/><path d="M107.14 70.57C107.14 70.17 107.28 69.83 107.55 69.55 107.82 69.27 108.17 69.13 108.58 69.13L108.83 69.13C110.47 69.13 111.66 68.83 112.4 68.24 113.14 67.65 113.51 66.77 113.51 65.61 113.51 65.34 113.51 65.06 113.48 64.78 113.45 64.5 113.43 64.21 113.38 63.92 113.33 63.63 113.28 63.31 113.2 62.98 113.12 62.65 113.04 62.3 112.93 61.93L115.68 61.15C115.78 61.49 115.86 61.82 115.93 62.14 116 62.46 116.06 62.79 116.11 63.14 116.16 63.49 116.21 63.87 116.25 64.28 116.29 64.69 116.33 65.15 116.37 65.67 116.4 66.03 116.45 66.41 116.52 66.81 116.59 67.21 116.71 67.58 116.89 67.92 117.07 68.26 117.31 68.54 117.62 68.77 117.93 69 118.33 69.11 118.83 69.11 119.03 69.11 119.21 69.15 119.39 69.22 119.57 69.29 119.72 69.4 119.85 69.53 119.98 69.66 120.09 69.82 120.16 69.99 120.23 70.16 120.28 70.35 120.28 70.55 120.28 70.76 120.24 70.94 120.16 71.11 120.08 71.28 119.98 71.43 119.85 71.56 119.72 71.69 119.57 71.79 119.4 71.87 119.23 71.95 119.05 71.98 118.85 71.98 118.36 71.98 117.91 71.94 117.51 71.85 117.11 71.76 116.74 71.64 116.41 71.48 116.08 71.32 115.79 71.13 115.53 70.9 115.27 70.67 115.04 70.43 114.83 70.17 114.21 70.78 113.42 71.23 112.43 71.53 111.44 71.83 110.24 71.99 108.82 71.99L108.57 71.99C108.16 71.99 107.82 71.85 107.54 71.58 107.26 71.31 107.13 70.96 107.13 70.55ZM116.53 55.17 114.14 57.56 111.74 55.16 114.13 52.77 116.53 55.17Z" fill="#FFFFFF"/><path d="M116.66 70.57C116.66 70.16 116.8 69.82 117.08 69.54 117.36 69.26 117.7 69.13 118.1 69.13L119.73 69.13C120.07 69.13 120.44 69.14 120.84 69.13 121.24 69.12 121.65 69.1 122.06 69.06 122.47 69.02 122.87 68.96 123.27 68.89 123.67 68.82 124.03 68.71 124.36 68.58 124.69 68.45 124.98 68.29 125.24 68.09 125.5 67.89 125.68 67.66 125.81 67.39 126.01 66.97 126.06 66.37 125.98 65.6 125.9 64.83 125.7 63.92 125.39 62.88 125.28 62.57 125.16 62.23 125.02 61.86 124.88 61.49 124.74 61.15 124.6 60.84 124.44 60.47 124.28 60.1 124.12 59.74L126.73 58.45C126.73 58.45 126.78 58.56 126.87 58.75 126.96 58.94 127.08 59.2 127.21 59.52 127.34 59.84 127.5 60.22 127.66 60.64 127.82 61.06 127.98 61.52 128.13 62 129.04 64.8 129.15 66.99 128.47 68.56 127.78 70.13 126.55 71.17 124.78 71.67 124.52 71.75 124.18 71.81 123.77 71.85 123.36 71.89 122.94 71.93 122.51 71.94 122.08 71.95 121.67 71.97 121.28 71.98 120.89 71.99 120.59 71.98 120.37 71.98L118.11 71.98C117.71 71.98 117.37 71.84 117.09 71.57 116.81 71.3 116.67 70.95 116.67 70.54ZM123.72 77.06 121.35 79.43 118.95 77.04 121.32 74.65 123.72 77.05ZM129.73 77.08 127.36 79.47 124.96 77.07 127.33 74.7 129.73 77.09Z" fill="#FFFFFF"/><path d="M132.98 71.99C133.13 69.77 133.22 67.68 133.25 65.7 133.28 63.72 133.28 61.9 133.25 60.22 133.22 58.54 133.15 57.04 133.07 55.7 132.99 54.36 132.9 53.23 132.81 52.29 132.72 51.35 132.65 50.63 132.58 50.12 132.51 49.61 132.48 49.35 132.48 49.33L135.35 48.89C135.37 48.95 135.44 49.54 135.57 50.66 135.64 51.22 135.7 51.82 135.75 52.47 135.8 53.12 135.85 53.81 135.9 54.56 135.95 55.31 135.99 56.01 136.02 56.68 136.05 57.35 136.07 57.99 136.09 58.61 136.15 60.41 136.17 62.45 136.16 64.73 136.15 67.01 136.05 69.49 135.87 72.16L132.98 72Z" fill="#FFFFFF"/><path d="M150.94 62.49C151.21 63.4 151.47 64.3 151.72 65.19 151.82 65.57 151.92 65.97 152.03 66.38 152.14 66.79 152.24 67.2 152.33 67.61 152.42 68.02 152.5 68.42 152.57 68.8 152.64 69.18 152.69 69.55 152.73 69.88 152.73 69.99 152.75 70.11 152.76 70.25 152.77 70.39 152.77 70.54 152.77 70.71 152.77 71.56 152.65 72.38 152.4 73.18 152.15 73.98 151.8 74.75 151.36 75.49 150.92 76.23 150.39 76.93 149.78 77.61 149.17 78.29 148.51 78.92 147.79 79.51 147.07 80.1 146.32 80.65 145.52 81.16 144.72 81.67 143.92 82.12 143.1 82.52L141.83 79.94C142.86 79.43 143.85 78.84 144.82 78.17 145.79 77.5 146.65 76.77 147.41 75.98 148.17 75.19 148.77 74.35 149.23 73.46 149.69 72.57 149.92 71.65 149.92 70.71 149.92 70.66 149.92 70.58 149.91 70.47 149.9 70.36 149.89 70.25 149.88 70.14L149.88 70.16C149.85 69.86 149.8 69.53 149.73 69.17 149.66 68.81 149.58 68.45 149.5 68.07 149.42 67.69 149.32 67.32 149.22 66.94 149.12 66.56 149.02 66.2 148.93 65.85 148.7 65.03 148.45 64.21 148.18 63.39L150.96 62.51Z" fill="#FFFFFF"/><path d="M161.01 71.99C160.54 71.99 159.99 71.93 159.35 71.81 158.71 71.69 158.07 71.54 157.44 71.36 156.81 71.18 156.22 70.98 155.7 70.75 155.18 70.52 154.79 70.3 154.54 70.08L155.74 67.33C156.1 67.56 156.54 67.79 157.04 68.01 157.54 68.23 158.09 68.42 158.67 68.58 159.25 68.74 159.84 68.86 160.45 68.94 161.06 69.02 161.65 69.03 162.22 68.98 162.79 68.93 163.31 68.81 163.8 68.61 164.29 68.41 164.7 68.12 165.03 67.72 165.29 67.42 165.33 66.85 165.13 66.02 165.02 65.54 164.85 65.04 164.61 64.52 164.37 64 164.08 63.48 163.75 62.95 163.42 62.42 163.04 61.92 162.63 61.42 162.22 60.92 161.79 60.46 161.35 60.04 160.91 59.62 160.45 59.24 160 58.91 159.55 58.58 159.09 58.31 158.65 58.12L159.84 55.45C160.42 55.71 161 56.06 161.58 56.48 162.16 56.9 162.73 57.37 163.29 57.9 163.85 58.43 164.37 59 164.87 59.61 165.37 60.22 165.83 60.85 166.24 61.5 166.65 62.15 167.01 62.8 167.31 63.46 167.61 64.12 167.84 64.75 167.98 65.38 168.1 65.93 168.16 66.42 168.16 66.86 168.16 67.3 168.12 67.69 168.04 68.03 167.96 68.37 167.85 68.67 167.71 68.92 167.57 69.17 167.43 69.39 167.27 69.58 166.37 70.66 165.12 71.38 163.51 71.73 163.14 71.83 162.75 71.9 162.34 71.94 161.93 71.98 161.5 72 161.04 72Z" fill="#FFFFFF"/><path d="M180.86 64.88C180.99 65.95 181.28 66.84 181.75 67.52 182.22 68.2 182.93 68.77 183.91 69.2 184.88 69.62 185.98 69.83 187.21 69.83 188.04 69.83 188.79 69.75 189.45 69.56 190.11 69.37 190.68 69.11 191.15 68.77 191.62 68.43 191.97 68.04 192.21 67.6 192.45 67.16 192.56 66.68 192.54 66.19 192.54 65.52 192.35 64.93 191.96 64.42 191.57 63.91 190.93 63.49 190.02 63.15 189.74 63.04 189.28 62.9 188.64 62.73 188 62.56 187.19 62.35 186.19 62.11 185.19 61.87 184.35 61.63 183.67 61.41 182.99 61.19 182.44 60.97 182.04 60.76 181 60.22 180.24 59.56 179.74 58.77 179.24 57.98 178.99 57.08 178.99 56.09 178.99 55.01 179.3 54 179.91 53.06 180.53 52.1 181.42 51.38 182.61 50.91 183.81 50.42 185.12 50.18 186.55 50.18 188.14 50.18 189.55 50.44 190.76 50.95 191.97 51.46 192.91 52.22 193.57 53.21 194.23 54.2 194.58 55.33 194.62 56.59L191.9 56.8C191.75 55.44 191.26 54.42 190.41 53.72 189.56 53.02 188.32 52.68 186.67 52.68 185.02 52.68 183.71 53 182.91 53.63 182.13 54.26 181.74 55.02 181.74 55.9 181.74 56.67 182.02 57.31 182.57 57.8 183.11 58.3 184.53 58.81 186.85 59.34 189.15 59.85 190.74 60.3 191.61 60.7 192.87 61.29 193.8 62.02 194.39 62.9 194.98 63.78 195.28 64.79 195.28 65.95 195.28 67.11 194.95 68.18 194.3 69.19 193.65 70.19 192.7 70.97 191.47 71.55 190.25 72.11 188.87 72.38 187.34 72.38 185.39 72.38 183.76 72.1 182.45 71.54 181.14 70.98 180.11 70.13 179.35 68.98 178.62 67.86 178.23 66.57 178.18 65.11L180.86 64.88Z" fill="#FFFFFF"/><path d="M210.16 67.34C209.72 68.94 208.92 70.18 207.77 71.05 206.62 71.92 205.13 72.36 203.32 72.36 201.04 72.36 199.24 71.66 197.9 70.26 196.57 68.86 195.91 66.9 195.91 64.36 195.91 61.82 196.58 59.72 197.93 58.27 199.28 56.82 201.03 56.1 203.17 56.1 205.31 56.1 206.95 56.81 208.27 58.22 209.59 59.65 210.25 61.64 210.25 64.2L210.25 64.49C210.25 64.61 210.25 64.74 210.24 64.9L198.64 64.9C198.74 66.61 199.22 67.92 200.09 68.83 200.95 69.74 202.03 70.19 203.34 70.19 204.31 70.19 205.13 69.94 205.82 69.43 206.51 68.92 207.05 68.11 207.45 67L210.17 67.34ZM207.46 62.74C207.34 61.44 207.01 60.46 206.46 59.8 205.62 58.78 204.53 58.28 203.19 58.28 201.99 58.28 200.97 58.68 200.13 59.49 199.31 60.3 198.86 61.38 198.77 62.74L207.46 62.74Z" fill="#FFFFFF"/><path d="M211.88 77.97 211.88 56.45 214.28 56.45 214.28 58.47C214.85 57.68 215.49 57.09 216.2 56.69 216.91 56.29 217.78 56.1 218.79 56.1 220.13 56.1 221.3 56.44 222.31 57.12 223.32 57.8 224.08 58.77 224.61 60.03 225.13 61.29 225.39 62.65 225.39 64.12 225.39 65.7 225.1 67.14 224.53 68.43 223.96 69.7 223.13 70.68 222.04 71.36 220.96 72.03 219.81 72.37 218.61 72.37 217.72 72.37 216.93 72.18 216.24 71.81 215.55 71.44 214.98 70.97 214.53 70.4L214.53 77.97 211.89 77.97ZM214.27 64.32C214.27 66.32 214.68 67.8 215.49 68.76 216.3 69.72 217.28 70.2 218.43 70.2 219.58 70.2 220.59 69.71 221.43 68.72 222.27 67.71 222.69 66.18 222.69 64.11 222.69 62.04 222.28 60.64 221.46 59.66 220.65 58.67 219.68 58.18 218.54 58.18 217.4 58.18 216.41 58.71 215.55 59.76 214.69 60.8 214.26 62.32 214.26 64.33Z" fill="#FFFFFF"/><path d="M232.87 71.98C232.15 72.14 231.48 72.21 230.88 72.21 229.92 72.21 229.18 72.06 228.65 71.75 228.12 71.44 227.75 71.05 227.54 70.56 227.33 70.07 227.22 69.03 227.22 67.44L227.22 58.49 225.29 58.49 225.29 56.44 227.22 56.44 227.22 52.59 229.84 51.01 229.84 56.45 232.49 56.45 232.49 58.5 229.84 58.5 229.84 67.6C229.84 68.35 229.88 68.84 229.97 69.05 230.07 69.26 230.22 69.43 230.42 69.56 230.63 69.69 230.94 69.75 231.33 69.75 231.48 69.75 231.64 69.75 231.84 69.73 232.04 69.71 232.25 69.69 232.49 69.65L232.87 71.98Z" fill="#FFFFFF"/><path d="M247.5 67.34C247.06 68.94 246.26 70.18 245.11 71.05 243.96 71.92 242.47 72.36 240.66 72.36 238.38 72.36 236.58 71.66 235.24 70.26 233.91 68.86 233.25 66.9 233.25 64.36 233.25 61.82 233.92 59.72 235.27 58.27 236.62 56.82 238.37 56.1 240.51 56.1 242.65 56.1 244.29 56.81 245.61 58.22 246.93 59.65 247.59 61.64 247.59 64.2L247.59 64.49C247.59 64.61 247.59 64.74 247.58 64.9L235.98 64.9C236.08 66.61 236.56 67.92 237.43 68.83 238.29 69.74 239.37 70.19 240.68 70.19 241.65 70.19 242.47 69.94 243.16 69.43 243.85 68.92 244.39 68.11 244.79 67L247.51 67.34ZM244.8 62.74C244.68 61.44 244.35 60.46 243.8 59.8 242.96 58.78 241.87 58.28 240.53 58.28 239.33 58.28 238.31 58.68 237.47 59.49 236.65 60.3 236.2 61.38 236.11 62.74L244.8 62.74Z" fill="#FFFFFF"/><path d="M249.22 72.01 249.22 56.45 251.58 56.45 251.58 58.63C252.08 57.87 252.73 57.26 253.54 56.79 254.35 56.32 255.27 56.09 256.3 56.09 257.45 56.09 258.4 56.33 259.13 56.81 259.86 57.29 260.39 57.96 260.69 58.82 261.92 57 263.52 56.1 265.49 56.1 267.04 56.1 268.23 56.52 269.06 57.37 269.89 58.22 270.3 59.54 270.3 61.33L270.3 72.01 267.68 72.01 267.68 62.21C267.68 61.16 267.59 60.4 267.42 59.94 267.25 59.46 266.95 59.08 266.5 58.81 266.04 58.53 265.51 58.39 264.92 58.39 263.82 58.39 262.91 58.76 262.2 59.49 261.48 60.21 261.12 61.37 261.12 62.98L261.12 72.02 258.48 72.02 258.48 61.91C258.48 60.73 258.27 59.85 257.84 59.27 257.41 58.69 256.71 58.4 255.73 58.4 254.98 58.4 254.29 58.6 253.66 58.99 253.03 59.39 252.57 59.96 252.3 60.7 252.02 61.46 251.88 62.55 251.88 63.95L251.88 72.02 249.24 72.02Z" fill="#FFFFFF"/><path d="M274.44 72.01 271.99 72.01 271.99 50.54 274.63 50.54 274.63 58.2C275.74 56.8 277.16 56.11 278.89 56.11 279.86 56.11 280.76 56.3 281.61 56.69 282.46 57.08 283.16 57.62 283.71 58.32 284.26 59.02 284.7 59.87 285.01 60.85 285.32 61.83 285.48 62.88 285.48 64.01 285.48 66.69 284.82 68.75 283.5 70.19 282.18 71.65 280.6 72.37 278.75 72.37 276.9 72.37 275.46 71.6 274.43 70.07L274.43 72.02ZM274.41 64.11C274.41 65.98 274.66 67.32 275.17 68.15 276 69.51 277.12 70.19 278.54 70.19 279.69 70.19 280.69 69.69 281.53 68.7 282.37 67.68 282.79 66.19 282.79 64.22 282.79 62.25 282.38 60.7 281.57 59.72 280.76 58.75 279.79 58.27 278.65 58.27 277.51 58.27 276.49 58.77 275.66 59.78 274.82 60.79 274.4 62.23 274.4 64.12Z" fill="#FFFFFF"/><path d="M300.16 67.34C299.72 68.94 298.92 70.18 297.77 71.05 296.62 71.92 295.13 72.36 293.32 72.36 291.04 72.36 289.24 71.66 287.9 70.26 286.57 68.86 285.91 66.9 285.91 64.36 285.91 61.82 286.58 59.72 287.93 58.27 289.28 56.82 291.03 56.1 293.17 56.1 295.31 56.1 296.95 56.81 298.27 58.22 299.59 59.65 300.25 61.64 300.25 64.2L300.25 64.49C300.25 64.61 300.25 64.74 300.24 64.9L288.64 64.9C288.74 66.61 289.22 67.92 290.09 68.83 290.95 69.74 292.03 70.19 293.34 70.19 294.31 70.19 295.13 69.94 295.82 69.43 296.51 68.92 297.05 68.11 297.45 67L300.17 67.34ZM297.46 62.74C297.34 61.44 297.01 60.46 296.46 59.8 295.62 58.78 294.53 58.28 293.19 58.28 291.99 58.28 290.97 58.68 290.13 59.49 289.31 60.3 288.86 61.38 288.77 62.74L297.46 62.74Z" fill="#FFFFFF"/><path d="M301.85 72.01 301.85 56.45 304.22 56.45 304.22 58.81C304.83 57.71 305.38 56.98 305.89 56.63 306.4 56.28 306.96 56.1 307.59 56.1 308.48 56.1 309.38 56.38 310.3 56.95L309.39 59.4C308.75 59.02 308.1 58.83 307.46 58.83 306.87 58.83 306.35 59 305.9 59.35 305.45 59.7 305.12 60.18 304.93 60.79 304.64 61.73 304.49 62.75 304.49 63.87L304.49 72.01 301.85 72.01Z" fill="#FFFFFF"/><path d="M336.37 50.43C336.53 51.27 336.65 52.05 336.73 52.76 336.81 53.47 336.85 54.13 336.85 54.72 336.85 56.59 336.45 58 335.66 58.97 335.29 59.41 334.85 59.75 334.33 59.98 333.81 60.21 333.25 60.33 332.62 60.33 332.38 60.33 332.12 60.3 331.84 60.25 331.56 60.2 331.29 60.1 331.01 59.97 330.73 59.84 330.45 59.65 330.18 59.42 329.91 59.19 329.65 58.89 329.4 58.54L329.11 58.98C328.64 59.51 328.13 59.91 327.59 60.18 327.05 60.45 326.39 60.59 325.64 60.59 325.27 60.59 324.95 60.57 324.67 60.52 324.39 60.47 324.11 60.4 323.81 60.29 323.83 60.42 323.85 60.53 323.86 60.64 323.87 60.75 323.89 60.86 323.91 60.98 324.04 61.92 324.14 62.87 324.21 63.84 324.28 64.81 324.34 65.77 324.38 66.73 324.42 67.69 324.45 68.63 324.46 69.57 324.47 70.51 324.48 71.41 324.48 72.28L321.56 72.28C321.58 71.88 321.59 71.46 321.6 71.03 321.61 70.6 321.6 70.18 321.6 69.79 321.6 68.38 321.55 67 321.45 65.65 321.35 64.3 321.21 62.98 321.02 61.72 320.83 60.46 320.59 59.25 320.29 58.1 319.99 56.95 319.66 55.87 319.26 54.86 319.24 54.82 319.21 54.75 319.17 54.65 319.15 54.61 319.14 54.57 319.13 54.53 318.97 54.16 318.81 53.79 318.62 53.42 318.43 53.05 318.24 52.69 318.01 52.34L320.66 50.77C320.73 50.89 320.81 51.03 320.9 51.19 320.99 51.35 321.09 51.54 321.19 51.73 321.29 51.92 321.39 52.13 321.48 52.34 321.57 52.55 321.68 52.75 321.77 52.95 321.99 53.42 322.22 53.91 322.46 54.43 322.72 55.04 322.96 55.54 323.16 55.95 323.36 56.36 323.57 56.69 323.78 56.95 323.99 57.21 324.24 57.39 324.53 57.5 324.82 57.61 325.17 57.67 325.61 57.67 325.93 57.67 326.18 57.62 326.35 57.52 326.52 57.42 326.69 57.27 326.86 57.07 327.13 56.76 327.35 56.31 327.51 55.72 327.67 55.13 327.76 54.44 327.78 53.65 327.78 53.54 327.78 53.36 327.77 53.09 327.76 52.82 327.75 52.54 327.73 52.25 327.71 51.96 327.69 51.69 327.68 51.44 327.67 51.19 327.65 51.04 327.64 50.98L330.54 50.63 330.54 50.76C330.54 50.82 330.54 50.87 330.55 50.91 330.57 51.02 330.59 51.19 330.62 51.43 330.65 51.67 330.67 51.95 330.69 52.27 330.75 52.87 330.83 53.49 330.93 54.16 331.03 54.83 331.16 55.41 331.32 55.92 331.45 56.26 331.57 56.53 331.7 56.73 331.83 56.93 331.95 57.08 332.07 57.18 332.19 57.28 332.29 57.34 332.38 57.36 332.47 57.38 332.55 57.4 332.61 57.4 332.86 57.4 333.05 57.37 333.16 57.3 333.27 57.23 333.35 57.17 333.4 57.1 333.45 57.04 333.5 56.96 333.57 56.84 333.64 56.72 333.69 56.58 333.75 56.39 333.81 56.2 333.85 55.97 333.89 55.69 333.93 55.41 333.95 55.08 333.95 54.69 333.95 54.26 333.92 53.74 333.85 53.13 333.78 52.52 333.67 51.8 333.51 50.96L336.35 50.42Z" fill="#FFFFFF"/><path d="M339.22 63.48C339.22 62.8 339.35 62.15 339.61 61.55 339.87 60.95 340.22 60.42 340.67 59.97 341.12 59.52 341.64 59.16 342.24 58.89 342.84 58.62 343.49 58.5 344.18 58.5 344.87 58.5 345.51 58.63 346.11 58.89 346.71 59.15 347.24 59.51 347.69 59.97 348.14 60.43 348.5 60.95 348.77 61.55 349.04 62.15 349.17 62.79 349.17 63.48 349.17 64.17 349.04 64.82 348.77 65.42 348.5 66.02 348.15 66.55 347.69 67 347.23 67.45 346.71 67.8 346.11 68.06 345.51 68.32 344.87 68.45 344.18 68.45 343.49 68.45 342.84 68.32 342.24 68.06 341.64 67.8 341.11 67.45 340.67 67 340.23 66.55 339.87 66.03 339.61 65.42 339.35 64.81 339.22 64.17 339.22 63.48ZM341.61 63.48C341.61 63.83 341.68 64.16 341.82 64.48 341.96 64.8 342.14 65.07 342.38 65.3 342.62 65.53 342.89 65.72 343.2 65.86 343.51 66 343.84 66.07 344.2 66.07 344.56 66.07 344.89 66 345.2 65.86 345.51 65.72 345.79 65.54 346.03 65.3 346.27 65.06 346.45 64.79 346.59 64.48 346.73 64.17 346.8 63.84 346.8 63.48 346.8 63.12 346.73 62.79 346.59 62.48 346.45 62.17 346.27 61.89 346.03 61.65 345.79 61.41 345.52 61.23 345.2 61.09 344.88 60.95 344.55 60.88 344.2 60.88 343.85 60.88 343.52 60.95 343.2 61.09 342.88 61.23 342.61 61.41 342.38 61.65 342.15 61.89 341.96 62.16 341.82 62.48 341.68 62.8 341.61 63.13 341.61 63.48Z" fill="#FFFFFF"/><path d="M32.19 119.99C31.72 119.99 31.17 119.93 30.53 119.81 29.89 119.69 29.25 119.54 28.62 119.36 27.99 119.18 27.4 118.98 26.88 118.75 26.36 118.52 25.97 118.3 25.72 118.08L26.92 115.33C27.28 115.56 27.72 115.79 28.22 116.01 28.72 116.23 29.27 116.42 29.85 116.58 30.43 116.74 31.02 116.86 31.63 116.94 32.24 117.02 32.83 117.03 33.4 116.98 33.97 116.93 34.49 116.81 34.98 116.61 35.47 116.41 35.88 116.12 36.21 115.72 36.47 115.42 36.51 114.85 36.31 114.02 36.2 113.54 36.03 113.04 35.79 112.52 35.55 112 35.26 111.48 34.93 110.95 34.6 110.42 34.22 109.92 33.81 109.42 33.4 108.92 32.97 108.46 32.53 108.04 32.09 107.62 31.63 107.24 31.18 106.91 30.73 106.58 30.27 106.31 29.83 106.12L31.02 103.45C31.6 103.71 32.18 104.06 32.76 104.48 33.34 104.9 33.91 105.37 34.47 105.9 35.03 106.43 35.55 107 36.05 107.61 36.55 108.22 37.01 108.85 37.42 109.5 37.83 110.15 38.19 110.8 38.49 111.46 38.79 112.12 39.02 112.75 39.16 113.38 39.28 113.93 39.34 114.42 39.34 114.86 39.34 115.3 39.3 115.69 39.22 116.03 39.14 116.37 39.03 116.67 38.89 116.92 38.75 117.17 38.61 117.39 38.45 117.58 37.55 118.66 36.3 119.38 34.69 119.73 34.32 119.83 33.93 119.9 33.52 119.94 33.11 119.98 32.68 120 32.22 120Z" fill="#FFFFFF"/><path d="M40.36 127.46C41.86 127.16 43.21 126.74 44.4 126.2 45.59 125.66 46.61 125.06 47.46 124.38 48.31 123.7 48.98 122.99 49.47 122.23 49.96 121.47 50.26 120.73 50.37 120 49.96 120 49.47 120.01 48.91 120 48.35 119.99 47.8 119.97 47.26 119.92 45.14 119.78 43.57 119.09 42.56 117.84 42.11 117.27 41.83 116.62 41.7 115.88 41.57 115.14 41.57 114.38 41.69 113.6 41.81 112.82 42.01 112.07 42.31 111.34 42.61 110.61 42.97 109.98 43.38 109.46 43.87 108.84 44.41 108.38 44.99 108.06 45.57 107.74 46.18 107.58 46.81 107.58 48.2 107.58 49.47 108.2 50.63 109.46 51.04 109.92 51.41 110.44 51.74 111.01 52.07 111.58 52.36 112.2 52.59 112.86 52.82 113.52 53.01 114.21 53.15 114.93 53.29 115.65 53.36 116.38 53.38 117.12L54.48 117.12C54.69 117.12 54.88 117.16 55.05 117.23 55.22 117.3 55.38 117.41 55.51 117.54 55.64 117.67 55.75 117.83 55.82 118 55.89 118.17 55.94 118.37 55.94 118.57 55.94 118.77 55.9 118.95 55.82 119.12 55.74 119.29 55.64 119.44 55.51 119.57 55.38 119.7 55.22 119.8 55.05 119.88 54.88 119.96 54.68 119.99 54.48 119.99L53.16 119.99C52.87 121.44 52.34 122.74 51.57 123.91 50.8 125.08 49.88 126.1 48.79 126.96 47.7 127.82 46.49 128.54 45.15 129.1 43.81 129.66 42.44 130.05 41.02 130.27L40.35 127.44ZM46.82 110.48C46.54 110.48 46.27 110.59 46.01 110.81 45.75 111.03 45.53 111.31 45.33 111.65 45.13 111.99 44.96 112.37 44.82 112.8 44.68 113.23 44.59 113.64 44.53 114.06 44.47 114.48 44.47 114.86 44.53 115.22 44.59 115.58 44.69 115.86 44.85 116.06 45 116.26 45.18 116.41 45.41 116.54 45.64 116.67 45.87 116.76 46.11 116.83 46.35 116.9 46.6 116.96 46.84 116.99 47.08 117.02 47.29 117.05 47.46 117.06 48.08 117.1 48.64 117.11 49.15 117.1 49.66 117.09 50.11 117.07 50.49 117.04 50.46 116.42 50.39 115.84 50.27 115.27 50.15 114.7 50 114.19 49.82 113.71 49.64 113.23 49.43 112.8 49.2 112.41 48.97 112.02 48.73 111.69 48.48 111.41 48.38 111.31 48.27 111.21 48.15 111.09 48.03 110.97 47.9 110.88 47.75 110.78 47.6 110.68 47.46 110.61 47.3 110.55 47.14 110.49 46.98 110.46 46.81 110.46Z" fill="#FFFFFF"/><path d="M53.15 118.59C53.15 118.4 53.18 118.23 53.25 118.06 53.32 117.89 53.41 117.74 53.54 117.61 53.67 117.48 53.81 117.37 53.97 117.3 54.13 117.23 54.31 117.17 54.5 117.15 55.08 117.15 55.6 117.04 56.06 116.81 56.52 116.58 56.93 116.29 57.29 115.91 57.65 115.53 57.96 115.1 58.23 114.61 58.5 114.12 58.74 113.61 58.93 113.08 59.12 112.55 59.29 112.01 59.42 111.47 59.55 110.93 59.67 110.42 59.76 109.94L62.66 110.56C62.58 110.79 62.49 111.1 62.37 111.47 62.25 111.84 62.15 112.24 62.04 112.66 61.93 113.08 61.84 113.52 61.76 113.96 61.68 114.4 61.64 114.82 61.64 115.2 61.64 115.46 61.66 115.72 61.71 115.97 61.76 116.22 61.84 116.44 61.96 116.64 62.08 116.84 62.24 116.99 62.44 117.11 62.64 117.23 62.9 117.29 63.22 117.29 63.72 117.29 64.16 117.15 64.56 116.88 64.96 116.61 65.31 116.25 65.61 115.81 65.91 115.37 66.18 114.87 66.41 114.32 66.64 113.77 66.83 113.2 66.99 112.62 67.15 112.04 67.29 111.48 67.39 110.94 67.49 110.4 67.58 109.93 67.64 109.53L70.45 110.04C70.34 110.67 70.25 111.22 70.18 111.67 70.11 112.12 70.04 112.61 69.98 113.12 69.92 113.63 69.89 114.09 69.89 114.49 69.89 114.85 69.92 115.2 69.97 115.52 70.02 115.84 70.11 116.14 70.23 116.38 70.35 116.62 70.51 116.83 70.71 117 70.91 117.17 71.16 117.26 71.45 117.29 71.9 117.35 72.27 117.34 72.57 117.28 72.87 117.22 73.1 117.12 73.28 117.01 73.46 116.9 73.59 116.78 73.67 116.65 73.75 116.52 73.81 116.43 73.84 116.37L73.83 116.37C73.97 116.16 74.06 115.91 74.12 115.64 74.18 115.37 74.2 115.07 74.2 114.76 74.2 114.2 74.12 113.6 73.97 112.96 73.82 112.32 73.64 111.68 73.43 111.06 73.22 110.44 73 109.86 72.77 109.33 72.54 108.8 72.35 108.37 72.19 108.06L74.75 106.71C74.8 106.81 74.89 107 75.03 107.27 75.17 107.54 75.32 107.89 75.5 108.3 75.68 108.71 75.86 109.16 76.05 109.67 76.24 110.18 76.41 110.71 76.57 111.27 76.73 111.83 76.86 112.41 76.96 112.99 77.06 113.57 77.11 114.15 77.11 114.7 77.11 115.54 76.99 116.3 76.76 116.98 76.53 117.66 76.17 118.24 75.71 118.72 75.25 119.2 74.65 119.57 73.94 119.83 73.23 120.09 72.4 120.21 71.46 120.2 71.08 120.2 70.7 120.14 70.33 120.02 69.96 119.9 69.6 119.74 69.26 119.54 68.92 119.34 68.6 119.11 68.31 118.84 68.02 118.57 67.77 118.28 67.56 117.97 66.97 118.65 66.31 119.19 65.57 119.59 64.83 119.99 64.04 120.19 63.21 120.19 62.85 120.19 62.48 120.14 62.09 120.05 61.7 119.96 61.34 119.82 60.98 119.63 60.62 119.44 60.31 119.21 60.02 118.94 59.73 118.67 59.51 118.35 59.35 117.99 58.76 118.61 58.1 119.09 57.36 119.45 56.62 119.81 55.73 120 54.69 120.02L54.46 120.02C54.27 120.02 54.1 119.97 53.93 119.89 53.76 119.81 53.62 119.71 53.5 119.58 53.38 119.45 53.28 119.3 53.21 119.13 53.14 118.96 53.11 118.78 53.11 118.58ZM62.35 102.58 64.72 100.19 67.12 102.59 64.75 104.98 62.35 102.58ZM65.88 98.17 68.05 96 70.23 98.18 68.06 100.35 65.88 98.17ZM68.78 102.59 71.15 100.22 73.55 102.62 71.18 104.99 68.78 102.59Z" fill="#FFFFFF"/><path d="M98.4 129.56C97.55 129.56 96.67 129.52 95.76 129.44 94.85 129.36 93.98 129.19 93.14 128.93 92.3 128.67 91.53 128.32 90.83 127.85 90.13 127.38 89.55 126.77 89.1 126.01 88.05 124.47 87.58 122.47 87.69 120 87.76 118.66 88 117.2 88.41 115.62 88.82 114.04 89.41 112.32 90.18 110.45L92.86 111.53C91.61 114.6 90.87 117.21 90.64 119.37 90.41 121.53 90.69 123.21 91.48 124.41 91.88 124.99 92.38 125.43 92.97 125.74 93.56 126.05 94.18 126.27 94.82 126.41 95.46 126.55 96.09 126.62 96.72 126.64 97.35 126.66 97.91 126.67 98.4 126.67 98.68 126.67 99.08 126.65 99.6 126.6 100.12 126.55 100.68 126.48 101.28 126.37 101.88 126.26 102.5 126.12 103.13 125.94 103.76 125.76 104.33 125.54 104.84 125.27 105.35 125 105.77 124.69 106.09 124.33 106.41 123.97 106.57 123.55 106.57 123.07 106.57 122.95 106.52 122.81 106.41 122.65 106.3 122.49 106.13 122.32 105.89 122.13 105.65 121.94 105.34 121.75 104.96 121.54 104.58 121.33 104.11 121.13 103.55 120.92 103.21 120.8 102.87 120.69 102.53 120.59 102.19 120.49 101.88 120.4 101.59 120.33 101.3 120.26 101.03 120.19 100.78 120.13 100.53 120.07 100.34 120.03 100.18 120L99.86 119.94 100.08 117.1 111.36 117.12C111.76 117.12 112.1 117.26 112.39 117.53 112.68 117.8 112.81 118.15 112.81 118.56 112.81 118.97 112.67 119.31 112.39 119.59 112.11 119.87 111.77 120 111.36 120L107.86 120C108.19 120.27 108.46 120.55 108.67 120.83 108.88 121.11 109.04 121.38 109.16 121.64 109.28 121.9 109.36 122.16 109.39 122.4 109.42 122.64 109.45 122.87 109.45 123.07 109.45 123.9 109.25 124.64 108.88 125.28 108.51 125.92 108.02 126.49 107.42 126.97 106.82 127.45 106.13 127.85 105.35 128.18 104.57 128.51 103.79 128.77 102.97 128.98 102.15 129.19 101.35 129.33 100.55 129.42 99.75 129.51 99.03 129.55 98.38 129.55Z" fill="#FFFFFF"/><path d="M109.52 118.57C109.52 118.17 109.66 117.83 109.93 117.57 110.2 117.31 110.54 117.16 110.94 117.14L110.95 117.14C111.77 117.14 112.46 117.01 113.03 116.74 113.6 116.47 114.09 116.12 114.51 115.67 114.93 115.22 115.3 114.72 115.61 114.15 115.92 113.58 116.23 112.99 116.53 112.38 116.78 111.85 117.04 111.35 117.29 110.87 117.54 110.39 117.84 109.95 118.17 109.55 119.05 108.48 120.11 107.94 121.36 107.94 122.83 107.94 124.06 108.53 125.04 109.71 125.82 110.65 126.29 111.83 126.45 113.24 126.55 113.91 126.56 114.57 126.49 115.22 126.42 115.87 126.28 116.48 126.07 117.05 125.79 117.75 125.41 118.33 124.94 118.79 124.47 119.25 123.93 119.55 123.31 119.72 122.22 120.01 120.98 119.88 119.6 119.32 118.65 118.95 117.66 118.38 116.63 117.62 116.56 117.69 116.51 117.73 116.48 117.75 115.02 119.25 113.18 120.01 110.94 120.01L110.93 120.01C110.53 120.01 110.19 119.87 109.92 119.59 109.65 119.31 109.51 118.97 109.51 118.57ZM118.32 115.24C119.21 115.89 120.02 116.37 120.75 116.66 121.48 116.95 122.09 117.03 122.58 116.89 122.75 116.85 122.91 116.74 123.06 116.55 123.21 116.36 123.35 116.13 123.46 115.83 123.57 115.53 123.65 115.2 123.69 114.82 123.73 114.44 123.73 114.03 123.67 113.59 123.67 113.52 123.64 113.4 123.6 113.24 123.56 113.08 123.5 112.89 123.43 112.68 123.36 112.47 123.26 112.26 123.14 112.04 123.02 111.82 122.88 111.62 122.72 111.44 122.56 111.26 122.36 111.11 122.13 110.99 121.9 110.87 121.65 110.81 121.35 110.81 121.15 110.81 120.97 110.87 120.8 110.98 120.63 111.09 120.46 111.27 120.29 111.5 120.12 111.73 119.94 112.03 119.75 112.38 119.56 112.73 119.34 113.15 119.1 113.63L118.31 115.23Z" fill="#FFFFFF"/><path d="M137.36 130.72 136.82 117.14C136.82 117.08 136.82 116.94 136.82 116.73 136.82 116.52 136.86 116.27 136.93 115.99 137 115.71 137.12 115.42 137.28 115.13 137.44 114.84 137.69 114.57 138 114.33 138.13 114.23 138.28 114.14 138.46 114.04 138.64 113.94 138.85 113.88 139.08 113.83 139.31 113.78 139.58 113.77 139.86 113.78 140.14 113.79 140.47 113.84 140.82 113.94 140.93 113.61 141.06 113.26 141.22 112.89 141.38 112.52 141.56 112.13 141.76 111.73 142.06 111.16 142.37 110.66 142.68 110.23 142.99 109.8 143.3 109.42 143.61 109.09 144.61 108.11 145.68 107.64 146.83 107.68 147.62 107.71 148.34 107.88 148.98 108.2 149.62 108.52 150.18 108.98 150.65 109.6 151.01 110.08 151.29 110.63 151.5 111.25 151.71 111.87 151.83 112.52 151.89 113.19 151.95 113.86 151.92 114.53 151.83 115.19 151.74 115.85 151.57 116.46 151.34 117.02 151.06 117.73 150.69 118.31 150.24 118.73 149.79 119.15 149.28 119.42 148.72 119.52 148.45 119.56 148.14 119.55 147.81 119.5 147.48 119.45 147.1 119.36 146.67 119.23 146.24 119.1 145.75 118.93 145.21 118.72 144.67 118.51 144.05 118.26 143.34 117.98 142.79 117.75 142.25 117.52 141.71 117.31 141.17 117.1 140.65 116.91 140.16 116.75 140.07 116.72 139.99 116.7 139.92 116.68 139.85 116.66 139.79 116.65 139.74 116.65 139.71 116.8 139.7 116.91 139.7 117L140.23 130.7 137.36 130.7ZM144.46 115.33C144.91 115.53 145.35 115.7 145.77 115.86 146.19 116.02 146.59 116.17 146.96 116.31 147.33 116.45 147.67 116.55 147.98 116.63 148.29 116.71 148.48 116.75 148.54 116.76 148.69 116.53 148.81 116.23 148.9 115.88 148.99 115.53 149.06 115.16 149.09 114.78 149.12 114.4 149.13 114.02 149.11 113.65 149.09 113.28 149.04 112.94 148.95 112.66 148.8 112.16 148.63 111.77 148.42 111.49 148.21 111.21 148 111 147.78 110.87 147.56 110.74 147.36 110.65 147.17 110.62 146.98 110.59 146.83 110.58 146.72 110.58 146.38 110.58 146 110.79 145.58 111.22 145.16 111.65 144.75 112.27 144.35 113.07 144.17 113.39 144.02 113.72 143.89 114.04 143.76 114.36 143.64 114.67 143.53 114.94L144.45 115.32Z" fill="#FFFFFF"/><path d="M170.45 116.61C170.8 116.81 171.12 116.93 171.42 117 171.72 117.07 171.9 117.1 171.98 117.12L172.42 117.14 172.55 117.14C172.75 117.14 172.93 117.18 173.11 117.25 173.29 117.32 173.44 117.43 173.57 117.56 173.7 117.69 173.81 117.85 173.88 118.02 173.95 118.19 174 118.38 174 118.58 174 118.99 173.86 119.33 173.58 119.61 173.3 119.89 172.96 120.02 172.55 120.02L171.83 120.02C171.72 120.02 171.51 120 171.18 119.97 170.85 119.94 170.48 119.84 170.06 119.68 169.64 119.52 169.2 119.28 168.75 118.96 168.3 118.64 167.89 118.18 167.53 117.59 166.8 118.41 165.96 119.07 165.01 119.57 164.06 120.07 162.97 120.47 161.73 120.77 160.84 120.96 159.94 121.07 159.03 121.1 158.12 121.13 157.21 121.08 156.31 120.93L156.81 118.07C157.43 118.19 158.1 118.23 158.85 118.21 159.6 118.19 160.34 118.09 161.09 117.92 160.93 117.05 160.7 116.16 160.39 115.23 160.08 114.3 159.73 113.39 159.34 112.47 158.95 111.55 158.52 110.65 158.07 109.77 157.62 108.89 157.17 108.05 156.73 107.26 156.29 106.47 155.86 105.74 155.44 105.06 155.02 104.38 154.66 103.81 154.34 103.32 154.02 102.83 153.77 102.44 153.58 102.16 153.39 101.88 153.29 101.73 153.28 101.72L155.64 100.05C155.64 100.05 155.76 100.25 155.97 100.55 156.18 100.85 156.46 101.27 156.8 101.79 157.14 102.31 157.53 102.93 157.97 103.65 158.41 104.37 158.87 105.16 159.35 106.02 160.53 108.11 161.49 110.06 162.24 111.87 162.99 113.68 163.52 115.36 163.85 116.9 164.23 116.69 164.58 116.43 164.9 116.14 165.22 115.85 165.49 115.52 165.71 115.17 165.93 114.82 166.09 114.44 166.19 114.04 166.29 113.64 166.32 113.21 166.27 112.77 166.2 111.71 166.12 110.6 166.03 109.46 165.94 108.32 165.84 107.2 165.75 106.1 165.66 105 165.56 103.96 165.47 102.97 165.38 101.98 165.3 101.12 165.23 100.37 165.16 99.62 165.11 99.03 165.06 98.58 165.01 98.13 164.99 97.91 164.99 97.9L167.86 97.59C167.86 97.59 167.88 97.76 167.91 98.06 167.94 98.36 167.99 98.77 168.03 99.29 168.07 99.81 168.14 100.42 168.21 101.12 168.28 101.82 168.35 102.58 168.42 103.41 168.49 104.24 168.57 105.09 168.65 105.99 168.73 106.89 168.8 107.81 168.88 108.73 168.96 109.65 169.02 110.57 169.09 111.47 169.16 112.37 169.21 113.23 169.26 114.05 169.28 114.34 169.31 114.62 169.36 114.87 169.41 115.12 169.47 115.36 169.56 115.57 169.65 115.78 169.77 115.98 169.91 116.15 170.05 116.32 170.25 116.48 170.48 116.61Z" fill="#FFFFFF"/><path d="M183.74 111.16C183.41 110.8 183.02 110.47 182.58 110.18 182.21 109.93 181.76 109.7 181.23 109.49 180.7 109.28 180.11 109.18 179.44 109.18 178.87 109.18 178.38 109.28 177.95 109.47 177.52 109.66 177.16 109.92 176.87 110.24 176.58 110.56 176.36 110.93 176.22 111.35 176.08 111.77 176 112.2 176 112.65 176 113.27 176.14 113.82 176.41 114.32 176.68 114.82 177.05 115.24 177.5 115.6 177.95 115.96 178.48 116.22 179.07 116.39 179.66 116.56 180.29 116.63 180.95 116.6 181.54 116.56 182.09 116.51 182.62 116.45 183.15 116.39 183.62 116.32 184.03 116.24 184.51 116.16 184.96 116.07 185.38 115.98L185.73 118.76C185.18 118.91 184.56 119.05 183.86 119.2 183.16 119.35 182.35 119.48 181.41 119.6 180.47 119.72 179.41 119.81 178.22 119.89 177.03 119.97 175.65 120.01 174.1 120.01L170.91 120.04C170.5 120.04 170.15 119.9 169.87 119.63 169.59 119.36 169.45 119.01 169.45 118.6 169.45 118.19 169.59 117.85 169.87 117.57 170.15 117.29 170.5 117.16 170.91 117.16L175.07 117.12C174.36 116.48 173.86 115.79 173.57 115.06 173.28 114.33 173.14 113.53 173.14 112.66 173.14 111.79 173.3 110.99 173.62 110.22 173.94 109.45 174.38 108.78 174.95 108.21 175.52 107.64 176.18 107.18 176.95 106.84 177.72 106.5 178.55 106.33 179.46 106.33 179.91 106.33 180.34 106.37 180.76 106.44 181.18 106.51 181.58 106.61 181.95 106.74 182.32 106.87 182.67 107.01 182.99 107.17 183.31 107.33 183.61 107.49 183.87 107.65 184.49 108.04 185.06 108.48 185.55 108.97L183.75 111.18Z" fill="#FFFFFF"/><path d="M189.01 119.99C189.16 117.77 189.25 115.68 189.28 113.7 189.31 111.72 189.31 109.9 189.28 108.22 189.25 106.54 189.18 105.04 189.1 103.7 189.02 102.36 188.93 101.23 188.84 100.29 188.75 99.35 188.68 98.63 188.61 98.12 188.54 97.61 188.51 97.35 188.51 97.33L191.38 96.89C191.4 96.95 191.47 97.54 191.6 98.66 191.67 99.22 191.73 99.82 191.78 100.47 191.83 101.12 191.88 101.81 191.93 102.56 191.98 103.31 192.02 104.01 192.05 104.68 192.08 105.35 192.1 105.99 192.12 106.61 192.18 108.41 192.2 110.45 192.19 112.73 192.18 115.01 192.08 117.49 191.9 120.16L189.01 120Z" fill="#FFFFFF"/><path d="M211.18 120.01 202.86 98.54 205.94 98.54 211.52 114.14C211.74 114.76 211.95 115.37 212.14 115.95 212.33 116.53 212.5 117.1 212.65 117.66 212.82 117.07 212.99 116.49 213.18 115.9 213.37 115.31 213.58 114.73 213.8 114.14L219.6 98.54 222.5 98.54 214.09 120.01 211.17 120.01Z" fill="#FFFFFF"/><path d="M221.12 120.01 229.37 98.54 232.43 98.54 241.22 120.01 237.98 120.01 235.48 113.51 226.5 113.51 224.14 120.01 221.12 120.01ZM227.32 111.19 234.6 111.19 232.36 105.24C232.02 104.33 231.72 103.51 231.47 102.77 231.22 102.03 231.01 101.37 230.84 100.79 230.56 102.19 230.17 103.55 229.68 104.89L227.32 111.19Z" fill="#FFFFFF"/><path d="M241.97 120.01 241.97 98.54 244.81 98.54 244.81 117.48 255.39 117.48 255.39 120.02 241.97 120.02Z" fill="#FFFFFF"/><path d="M255.46 120.01 263.71 98.54 266.77 98.54 275.56 120.01 272.32 120.01 269.82 113.51 260.84 113.51 258.48 120.01 255.46 120.01ZM261.66 111.19 268.94 111.19 266.7 105.24C266.36 104.33 266.06 103.51 265.81 102.77 265.56 102.03 265.35 101.37 265.18 100.79 264.9 102.19 264.51 103.55 264.02 104.89L261.66 111.19Z" fill="#FFFFFF"/><path d="M282.57 120.01 274.25 98.54 277.33 98.54 282.91 114.14C283.13 114.76 283.34 115.37 283.53 115.95 283.72 116.53 283.89 117.1 284.04 117.66 284.21 117.07 284.38 116.49 284.57 115.9 284.76 115.31 284.97 114.73 285.19 114.14L290.99 98.54 293.89 98.54 285.48 120.01 282.56 120.01Z" fill="#FFFFFF"/><path d="M295.35 120.01 295.35 98.54 298.19 98.54 298.19 120.01 295.35 120.01Z" fill="#FFFFFF"/><path d="M302.61 112.88C302.74 113.95 303.03 114.84 303.5 115.52 303.97 116.2 304.68 116.77 305.66 117.2 306.63 117.62 307.73 117.83 308.96 117.83 309.79 117.83 310.54 117.75 311.2 117.56 311.86 117.37 312.43 117.11 312.9 116.77 313.37 116.43 313.72 116.04 313.96 115.6 314.2 115.16 314.31 114.68 314.29 114.19 314.29 113.52 314.1 112.93 313.71 112.42 313.32 111.91 312.68 111.49 311.77 111.15 311.49 111.04 311.03 110.9 310.39 110.73 309.75 110.56 308.94 110.35 307.94 110.11 306.94 109.87 306.1 109.63 305.42 109.41 304.74 109.19 304.19 108.97 303.79 108.76 302.75 108.22 301.99 107.56 301.49 106.77 300.99 105.98 300.74 105.08 300.74 104.09 300.74 103.01 301.05 102 301.66 101.06 302.28 100.1 303.17 99.38 304.36 98.91 305.56 98.42 306.87 98.18 308.3 98.18 309.89 98.18 311.3 98.44 312.51 98.95 313.72 99.46 314.66 100.22 315.32 101.21 315.98 102.2 316.33 103.33 316.37 104.59L313.65 104.8C313.5 103.44 313.01 102.42 312.16 101.72 311.31 101.02 310.07 100.68 308.42 100.68 306.77 100.68 305.46 101 304.66 101.63 303.88 102.26 303.49 103.02 303.49 103.9 303.49 104.67 303.77 105.31 304.32 105.8 304.86 106.3 306.28 106.81 308.6 107.34 310.9 107.85 312.49 108.3 313.36 108.7 314.62 109.29 315.55 110.02 316.14 110.9 316.73 111.78 317.03 112.79 317.03 113.95 317.03 115.11 316.7 116.18 316.05 117.19 315.4 118.19 314.45 118.97 313.22 119.55 312 120.11 310.62 120.38 309.09 120.38 307.14 120.38 305.51 120.1 304.2 119.54 302.89 118.98 301.86 118.13 301.1 116.98 300.37 115.86 299.98 114.57 299.93 113.11L302.61 112.88Z" fill="#FFFFFF"/><path d="M316.52 120.01 324.77 98.54 327.83 98.54 336.62 120.01 333.38 120.01 330.88 113.51 321.9 113.51 319.54 120.01 316.52 120.01ZM322.72 111.19 330 111.19 327.76 105.24C327.42 104.33 327.12 103.51 326.87 102.77 326.62 102.03 326.41 101.37 326.24 100.79 325.96 102.19 325.57 103.55 325.08 104.89L322.72 111.19Z" fill="#FFFFFF"/></svg>