<svg viewBox="0 0 379.84 121.98" xmlns="http://www.w3.org/2000/svg" xmlns:xlink="http://www.w3.org/1999/xlink" id="Layer_1" overflow="hidden"><defs><linearGradient x1="202.54" y1="1.41" x2="179.6" y2="115.06" gradientUnits="userSpaceOnUse" id="linear-gradient"><stop offset="0" stop-color="#FFFFFF"/><stop offset="0.26" stop-color="#FBFBFB"/><stop offset="0.47" stop-color="#F1F1F1"/><stop offset="0.66" stop-color="#E0E0E0"/><stop offset="0.85" stop-color="#C8C8C9"/><stop offset="1" stop-color="#AEAEAF"/></linearGradient><linearGradient x1="192.14" y1="-42.69" x2="192.14" y2="66.33" gradientUnits="userSpaceOnUse" id="linear-gradient-2"><stop offset="0" stop-color="#FFFFFF"/><stop offset="0.78" stop-color="#E7E7E9"/><stop offset="1" stop-color="#E0E0E2"/></linearGradient><linearGradient x1="57" y1="-46.18" x2="218.85" y2="121.32" gradientUnits="userSpaceOnUse" id="linear-gradient-3"><stop offset="0" stop-color="#FFFFFF"/><stop offset="0.02" stop-color="#FBFBFB" stop-opacity="0.98"/><stop offset="0.36" stop-color="#C7C7C7" stop-opacity="0.64"/><stop offset="0.51" stop-color="#B3B3B3" stop-opacity="0.5"/></linearGradient></defs><path d="M377.33 64.35C377.33 96.18 355.62 121.98 328.84 121.98L48.49 121.98C21.71 121.98 0 96.18 0 64.35L0 64.35C0 32.52 22.26 6.72 49.04 6.72L328.84 6.72C355.62 6.72 377.33 32.52 377.33 64.35L377.33 64.35Z" opacity="0.57"/><g><path d="M379.84 57.63C379.84 89.46 358.13 115.26 331.35 115.26L51 115.26C24.22 115.26 2.51 89.46 2.51 57.63L2.51 57.63C2.51 25.8 24.76 0 51.54 0L331.35 0C358.13 0 379.84 25.8 379.84 57.63L379.84 57.63Z" fill="url(#linear-gradient)"/><path d="M377.99 57.63C377.99 87.74 356.64 112.14 330.3 112.14L53.98 112.14C27.64 112.14 6.29 87.73 6.29 57.63L6.29 57.63C6.29 27.53 27.64 3.12 53.98 3.12L330.29 3.12C356.63 3.12 377.98 27.52 377.98 57.63L377.98 57.63Z" fill="url(#linear-gradient-2)"/></g><path d="M276.1 3.12C222.45 6.12 84.24 11.77 56.01 41.24 37.88 60.17 34.53 82.52 39.95 107.95 20.19 99.48 13.91 83 11.36 75.48 8.39 66.72 3.53 29.9 30.24 12.48 44.73 3.02 54.95 3.65 54.95 3.65 54.95 3.65 231.45 3.12 276.1 3.12Z" fill="url(#linear-gradient-3)" opacity="0.78"/><g><path d="M129.49 53.42 128.95 39.84C128.95 39.78 128.95 39.64 128.95 39.43 128.95 39.22 128.99 38.97 129.06 38.69 129.13 38.41 129.25 38.12 129.41 37.82 129.58 37.52 129.82 37.26 130.13 37.02 130.26 36.92 130.41 36.83 130.59 36.73 130.77 36.64 130.98 36.57 131.21 36.52 131.44 36.48 131.71 36.46 131.99 36.47 132.27 36.48 132.6 36.53 132.95 36.63 133.06 36.3 133.19 35.95 133.35 35.58 133.51 35.21 133.69 34.82 133.89 34.42 134.19 33.85 134.5 33.35 134.81 32.92 135.12 32.49 135.43 32.11 135.74 31.79 136.74 30.81 137.81 30.34 138.96 30.38 139.75 30.41 140.47 30.58 141.11 30.9 141.75 31.22 142.31 31.68 142.78 32.3 143.14 32.78 143.42 33.33 143.63 33.96 143.84 34.59 143.96 35.23 144.02 35.9 144.07 36.57 144.05 37.23 143.96 37.9 143.87 38.57 143.7 39.17 143.47 39.73 143.19 40.44 142.82 41.01 142.37 41.44 141.92 41.87 141.41 42.13 140.85 42.23 140.58 42.27 140.27 42.26 139.94 42.22 139.61 42.18 139.23 42.08 138.8 41.95 138.37 41.82 137.88 41.65 137.34 41.44 136.8 41.23 136.18 40.98 135.47 40.7 134.92 40.47 134.38 40.24 133.84 40.03 133.3 39.82 132.78 39.63 132.29 39.47 132.2 39.44 132.12 39.42 132.05 39.4 131.98 39.38 131.92 39.37 131.87 39.37 131.84 39.52 131.83 39.63 131.83 39.72L132.36 53.42 129.49 53.42ZM136.59 38.02C137.04 38.22 137.48 38.39 137.9 38.55 138.32 38.71 138.72 38.86 139.09 39 139.46 39.14 139.8 39.24 140.11 39.32 140.42 39.4 140.61 39.44 140.67 39.45 140.82 39.22 140.94 38.92 141.03 38.57 141.12 38.22 141.19 37.85 141.22 37.47 141.25 37.09 141.26 36.71 141.24 36.34 141.22 35.96 141.17 35.63 141.08 35.35 140.93 34.85 140.76 34.46 140.55 34.18 140.34 33.9 140.13 33.69 139.91 33.56 139.69 33.43 139.49 33.34 139.3 33.31 139.11 33.28 138.96 33.27 138.85 33.27 138.51 33.27 138.13 33.48 137.71 33.91 137.29 34.34 136.88 34.96 136.48 35.76 136.3 36.08 136.15 36.41 136.02 36.73 135.89 37.06 135.77 37.36 135.66 37.63L136.58 38.01Z"/><path d="M146.79 42.7C146.94 40.48 147.03 38.39 147.06 36.41 147.09 34.43 147.09 32.61 147.06 30.93 147.02 29.25 146.96 27.75 146.88 26.41 146.8 25.07 146.71 23.93 146.62 23 146.53 22.07 146.46 21.34 146.39 20.83 146.32 20.32 146.29 20.06 146.29 20.04L149.16 19.6C149.18 19.66 149.25 20.25 149.38 21.37 149.45 21.93 149.51 22.53 149.56 23.18 149.61 23.83 149.66 24.53 149.71 25.27 149.76 26.01 149.8 26.72 149.83 27.39 149.86 28.06 149.88 28.7 149.9 29.32 149.96 31.12 149.98 33.16 149.97 35.44 149.96 37.72 149.86 40.2 149.68 42.87L146.79 42.71Z"/><path d="M159.18 41.7C159.18 42.55 159.06 43.37 158.81 44.18 158.56 44.99 158.21 45.75 157.77 46.49 157.33 47.23 156.8 47.94 156.19 48.61 155.58 49.28 154.92 49.91 154.2 50.51 153.48 51.11 152.73 51.66 151.93 52.16 151.13 52.66 150.33 53.12 149.51 53.53L148.25 50.94C148.95 50.58 149.65 50.18 150.34 49.75 151.03 49.32 151.69 48.86 152.3 48.36 152.91 47.86 153.48 47.33 154 46.78 154.52 46.23 154.95 45.64 155.31 45.04 155.67 44.44 155.93 43.81 156.11 43.16 156.29 42.51 156.34 41.84 156.27 41.15L156.27 41.18C156.2 40.62 156.1 40.02 155.96 39.39 155.82 38.75 155.66 38.12 155.49 37.51 155.32 36.9 155.15 36.32 154.99 35.77 154.83 35.23 154.69 34.78 154.57 34.42L157.32 33.57C157.69 34.7 158.05 35.67 158.41 36.46 158.77 37.25 159.13 37.91 159.51 38.41 159.89 38.91 160.28 39.28 160.69 39.52 161.1 39.76 161.55 39.87 162.04 39.87L162.11 39.87C162.32 39.87 162.51 39.91 162.68 39.99 162.85 40.07 163.01 40.17 163.14 40.31 163.27 40.44 163.37 40.6 163.45 40.77 163.53 40.94 163.56 41.13 163.56 41.33 163.56 41.74 163.42 42.08 163.14 42.35 162.86 42.62 162.52 42.75 162.11 42.75L162.1 42.75C161.96 42.75 161.79 42.75 161.57 42.74 161.35 42.73 161.11 42.69 160.84 42.62 160.57 42.55 160.3 42.44 160.01 42.3 159.72 42.16 159.45 41.95 159.19 41.68L159.19 41.74Z"/><path d="M160.45 41.29C160.45 40.88 160.6 40.54 160.89 40.26 161.18 39.98 161.56 39.84 162.03 39.84L163.57 39.84C164.16 39.84 164.77 39.84 165.4 39.82 166.03 39.81 166.64 39.75 167.22 39.64 167.8 39.54 168.33 39.38 168.8 39.16 169.27 38.94 169.65 38.62 169.92 38.21 170.24 37.72 170.43 37.19 170.48 36.61 170.53 36.03 170.48 35.41 170.3 34.73 170.19 34.33 169.93 33.82 169.5 33.2 169.08 32.58 168.55 31.91 167.93 31.21 167.31 30.5 166.61 29.78 165.84 29.03 165.07 28.28 164.28 27.59 163.48 26.95L163.82 23.95 175.86 18.79 176.99 21.46 166.5 25.87C166.98 26.28 167.5 26.74 168.07 27.25 168.64 27.76 169.2 28.32 169.75 28.93 170.49 29.75 171.1 30.53 171.58 31.28 172.06 32.03 172.43 32.74 172.69 33.41 172.95 34.08 173.13 34.72 173.22 35.32 173.31 35.92 173.33 36.49 173.28 37.01 173.23 37.53 173.13 38.03 172.98 38.47 172.83 38.91 172.65 39.33 172.45 39.7 171.58 41.24 170.11 42.2 168.04 42.59 167.67 42.66 167.24 42.69 166.77 42.69L162.04 42.69C161.57 42.69 161.19 42.55 160.9 42.28 160.61 42.01 160.46 41.67 160.46 41.27ZM175.36 16.93 163.58 21.91 163.68 20.03 174.67 15.45 175.36 16.93Z"/><path d="M185.89 42.71C184.82 42.71 183.9 42.58 183.13 42.33 182.36 42.08 181.72 41.69 181.19 41.16 180.87 40.84 180.62 40.49 180.45 40.12 180.28 39.75 180.15 39.38 180.07 39.02 179.99 38.66 179.94 38.31 179.93 37.99 179.93 37.66 179.92 37.38 179.92 37.15L179.92 36.87C179.92 36.87 179.92 36.68 179.93 36.33 179.93 35.98 179.95 35.52 179.95 34.92 179.95 34.33 179.95 33.65 179.95 32.88 179.95 32.11 179.95 31.29 179.94 30.43 179.94 29.59 179.94 28.72 179.91 27.81 179.88 26.9 179.86 26.02 179.82 25.17 179.78 24.32 179.73 23.54 179.66 22.82 179.59 22.1 179.51 21.51 179.43 21.06L182.3 20.53C182.39 21.03 182.47 21.64 182.53 22.36 182.59 23.08 182.65 23.87 182.7 24.72 182.75 25.57 182.78 26.46 182.8 27.38 182.82 28.3 182.83 29.2 182.83 30.08 182.83 30.94 182.84 31.76 182.84 32.56L182.84 34.67C182.84 35.29 182.84 35.79 182.84 36.19 182.84 36.59 182.84 36.83 182.84 36.91L182.84 37.17C182.84 37.6 182.84 37.98 182.88 38.31 182.92 38.64 183.05 38.91 183.28 39.12 183.72 39.58 184.55 39.81 185.77 39.82L185.9 39.82C186.1 39.82 186.28 39.86 186.46 39.94 186.64 40.02 186.79 40.12 186.92 40.25 187.05 40.38 187.16 40.54 187.23 40.71 187.3 40.88 187.35 41.07 187.35 41.27 187.35 41.68 187.21 42.02 186.93 42.3 186.65 42.58 186.31 42.71 185.9 42.71Z"/><path d="M184.33 41.27C184.33 40.86 184.47 40.52 184.74 40.24 185.01 39.96 185.36 39.82 185.77 39.82L186.88 39.82C187.7 39.82 188.49 39.77 189.24 39.67 189.99 39.57 190.65 39.39 191.22 39.13 191.79 38.87 192.24 38.51 192.57 38.05 192.9 37.6 193.05 37.01 193.02 36.3 193 35.75 192.95 35.19 192.88 34.6 192.81 34.01 192.66 33.35 192.45 32.59L195.19 31.81C195.28 32.15 195.36 32.51 195.44 32.89 195.52 33.27 195.59 33.65 195.65 34.04 195.71 34.43 195.76 34.82 195.8 35.22 195.84 35.61 195.88 36 195.9 36.38 195.92 36.74 195.96 37.12 196.03 37.52 196.1 37.92 196.22 38.29 196.4 38.63 196.58 38.97 196.82 39.25 197.13 39.48 197.44 39.71 197.84 39.82 198.34 39.82 198.75 39.82 199.1 39.96 199.38 40.23 199.66 40.5 199.8 40.85 199.8 41.26 199.8 41.47 199.76 41.65 199.68 41.82 199.6 41.99 199.5 42.14 199.37 42.28 199.24 42.41 199.09 42.51 198.92 42.59 198.75 42.66 198.57 42.7 198.37 42.7 197.38 42.7 196.57 42.52 195.92 42.17 195.28 41.81 194.75 41.37 194.34 40.83 193.99 41.17 193.53 41.46 192.98 41.7 192.42 41.94 191.81 42.13 191.14 42.28 190.47 42.43 189.77 42.53 189.04 42.6 188.31 42.67 187.59 42.7 186.89 42.7L185.78 42.7C185.37 42.7 185.03 42.56 184.75 42.29 184.47 42.02 184.34 41.67 184.34 41.26ZM191.76 26.77 189.39 29.14 186.99 26.75 189.36 24.36 191.76 26.76ZM197.77 26.78 195.4 29.17 193 26.77 195.37 24.4 197.77 26.79Z"/><path d="M197.03 41.27C197.03 41.08 197.07 40.91 197.15 40.74 197.23 40.57 197.34 40.42 197.47 40.28 197.6 40.15 197.76 40.04 197.93 39.97 198.1 39.9 198.29 39.85 198.47 39.84L198.62 39.84C199.03 39.84 199.42 39.73 199.79 39.51 200.16 39.29 200.51 39.01 200.83 38.67 201.15 38.33 201.45 37.95 201.72 37.53 201.99 37.11 202.23 36.7 202.45 36.3 202.66 35.91 202.84 35.52 203 35.13 203.16 34.75 203.31 34.38 203.43 34.05 203.56 33.71 203.66 33.41 203.74 33.14 203.82 32.87 203.89 32.66 203.94 32.5 203.99 32.28 204.01 32.16 204.01 32.15L206.82 32.93C206.82 32.93 206.8 32.97 206.78 33.03 206.76 33.09 206.74 33.17 206.71 33.28 206.65 33.5 206.58 33.83 206.49 34.26 206.4 34.69 206.32 35.17 206.24 35.7 206.13 36.55 206.11 37.29 206.17 37.93 206.23 38.57 206.36 39.05 206.57 39.39 206.71 39.64 206.92 39.79 207.21 39.81 207.33 39.84 207.43 39.85 207.53 39.85 207.9 39.85 208.26 39.73 208.6 39.48 209.04 39.15 209.47 38.63 209.89 37.91 210.31 37.19 210.69 36.32 211.02 35.29 211.19 34.81 211.32 34.36 211.43 33.93 211.54 33.5 211.62 33.13 211.68 32.83 211.73 32.59 211.77 32.39 211.8 32.25 211.83 32.11 211.84 32.03 211.84 32.01L214.7 32.55C214.7 32.55 214.66 32.64 214.64 32.78 214.62 32.92 214.59 33.12 214.54 33.37 214.49 33.62 214.45 33.93 214.41 34.3 214.37 34.67 214.35 35.05 214.34 35.47 214.29 36.36 214.34 37.13 214.46 37.78 214.58 38.43 214.79 38.93 215.06 39.26 215.17 39.4 215.31 39.52 215.49 39.63 215.67 39.74 215.94 39.79 216.3 39.79 216.81 39.79 217.22 39.61 217.53 39.26 217.86 38.9 218.13 38.37 218.33 37.66 218.53 36.95 218.66 36.13 218.72 35.17 218.74 34.73 218.75 34.32 218.75 33.95 218.75 33.58 218.75 33.25 218.72 32.98 218.69 32.74 218.67 32.54 218.67 32.39 218.67 32.24 218.67 32.16 218.67 32.15L221.54 31.92C221.54 31.92 221.58 32.24 221.6 32.74 221.63 32.95 221.66 33.18 221.7 33.44 221.74 33.7 221.78 33.99 221.84 34.3 221.9 34.61 221.97 34.93 222.05 35.27 222.13 35.61 222.22 35.94 222.33 36.27 223.1 38.65 224.18 39.84 225.57 39.84L225.86 39.84C226.27 39.84 226.61 39.98 226.89 40.25 227.17 40.52 227.3 40.87 227.3 41.28 227.3 41.69 227.16 42.02 226.89 42.3 226.62 42.58 226.27 42.72 225.86 42.72L225.57 42.72C224.78 42.72 224.04 42.56 223.35 42.23 222.66 41.9 222.04 41.42 221.5 40.79 221.23 40.49 220.96 40.12 220.69 39.69 220.42 40.3 220.09 40.8 219.72 41.2 219.28 41.7 218.77 42.08 218.2 42.34 217.62 42.6 217 42.73 216.32 42.73 215.6 42.73 214.94 42.59 214.34 42.31 213.74 42.03 213.24 41.63 212.82 41.1 212.68 40.92 212.56 40.74 212.44 40.54 212.32 40.34 212.22 40.13 212.12 39.91 211.57 40.71 210.98 41.36 210.33 41.84 209.46 42.46 208.54 42.76 207.56 42.76 207.42 42.76 207.29 42.76 207.16 42.74 207.03 42.72 206.9 42.71 206.76 42.69 205.61 42.48 204.72 41.89 204.11 40.93 204.01 40.76 203.92 40.59 203.85 40.41 203.77 40.23 203.69 40.04 203.62 39.85 203.3 40.27 202.97 40.64 202.64 40.95 201.43 42.13 200.1 42.72 198.64 42.72L198.49 42.72C198.29 42.72 198.11 42.68 197.93 42.61 197.75 42.54 197.6 42.43 197.47 42.3 197.34 42.17 197.23 42.01 197.16 41.84 197.09 41.67 197.04 41.48 197.04 41.28Z"/><path d="M224.34 41.27C224.34 40.87 224.48 40.53 224.75 40.25 225.02 39.97 225.37 39.83 225.78 39.83L226.03 39.83C227.67 39.83 228.86 39.53 229.6 38.94 230.34 38.35 230.71 37.47 230.71 36.31 230.71 36.04 230.71 35.76 230.68 35.48 230.66 35.2 230.63 34.91 230.58 34.61 230.54 34.31 230.48 34 230.4 33.67 230.33 33.34 230.24 32.99 230.13 32.62L232.88 31.84C232.98 32.18 233.06 32.51 233.13 32.83 233.2 33.15 233.26 33.48 233.31 33.83 233.36 34.18 233.41 34.56 233.45 34.97 233.49 35.38 233.53 35.84 233.57 36.36 233.6 36.72 233.65 37.1 233.72 37.5 233.79 37.9 233.91 38.27 234.09 38.61 234.27 38.95 234.51 39.23 234.82 39.46 235.13 39.69 235.53 39.8 236.03 39.8 236.23 39.8 236.41 39.84 236.59 39.91 236.77 39.98 236.92 40.09 237.05 40.22 237.18 40.35 237.29 40.51 237.36 40.68 237.43 40.85 237.48 41.04 237.48 41.24 237.48 41.45 237.44 41.63 237.36 41.8 237.28 41.97 237.18 42.12 237.05 42.26 236.92 42.39 236.77 42.49 236.6 42.57 236.43 42.64 236.25 42.68 236.05 42.68 235.56 42.68 235.11 42.64 234.71 42.55 234.31 42.46 233.94 42.34 233.61 42.18 233.28 42.02 232.99 41.83 232.73 41.6 232.47 41.37 232.24 41.13 232.03 40.87 231.41 41.48 230.62 41.93 229.63 42.23 228.64 42.53 227.44 42.68 226.02 42.68L225.77 42.68C225.36 42.68 225.02 42.54 224.74 42.27 224.46 42 224.33 41.65 224.33 41.24ZM233.73 25.87 231.34 28.26 228.94 25.86 231.33 23.47 233.73 25.87Z"/><path d="M233.87 41.27C233.87 40.86 234.01 40.52 234.29 40.24 234.57 39.96 234.91 39.83 235.31 39.83L236.94 39.83C237.28 39.83 237.65 39.84 238.05 39.83 238.45 39.83 238.86 39.8 239.27 39.76 239.68 39.72 240.08 39.67 240.48 39.59 240.88 39.52 241.24 39.41 241.57 39.28 241.9 39.15 242.19 38.98 242.45 38.79 242.71 38.6 242.89 38.36 243.02 38.09 243.22 37.67 243.27 37.07 243.19 36.3 243.11 35.52 242.91 34.62 242.6 33.58 242.49 33.27 242.37 32.93 242.23 32.56 242.09 32.19 241.95 31.85 241.81 31.54 241.65 31.17 241.49 30.8 241.33 30.44L243.94 29.15C243.94 29.15 243.99 29.26 244.08 29.45 244.17 29.64 244.29 29.9 244.42 30.22 244.55 30.54 244.71 30.92 244.87 31.34 245.04 31.76 245.19 32.22 245.34 32.69 246.25 35.49 246.36 37.68 245.68 39.25 244.99 40.82 243.76 41.86 241.99 42.36 241.73 42.44 241.39 42.5 240.98 42.54 240.57 42.58 240.15 42.62 239.72 42.64 239.29 42.66 238.88 42.67 238.49 42.68 238.1 42.68 237.8 42.68 237.58 42.68L235.32 42.68C234.92 42.68 234.58 42.54 234.3 42.27 234.02 42 233.88 41.65 233.88 41.24ZM240.93 47.76 238.56 50.13 236.16 47.74 238.53 45.35 240.93 47.75ZM246.94 47.77 244.57 50.16 242.17 47.76 244.54 45.39 246.94 47.78Z"/><path d="M250.01 42.7C250.16 40.48 250.25 38.39 250.28 36.41 250.31 34.43 250.31 32.61 250.28 30.93 250.24 29.25 250.18 27.75 250.1 26.41 250.02 25.07 249.93 23.93 249.84 23 249.75 22.07 249.68 21.34 249.61 20.83 249.54 20.32 249.51 20.06 249.51 20.04L252.38 19.6C252.4 19.66 252.47 20.25 252.6 21.37 252.67 21.93 252.73 22.53 252.78 23.18 252.83 23.83 252.88 24.53 252.93 25.27 252.98 26.01 253.02 26.72 253.05 27.39 253.08 28.06 253.1 28.7 253.12 29.32 253.18 31.12 253.2 33.16 253.19 35.44 253.18 37.72 253.08 40.2 252.9 42.87L250.01 42.71Z"/><path d="M116.17 90.71 107.85 69.24 110.93 69.24 116.51 84.84C116.73 85.46 116.94 86.07 117.13 86.65 117.32 87.23 117.49 87.8 117.64 88.36 117.81 87.77 117.98 87.19 118.17 86.6 118.36 86.01 118.57 85.43 118.79 84.84L124.59 69.24 127.49 69.24 119.08 90.71 116.16 90.71Z"/><path d="M126.86 90.71 135.11 69.24 138.17 69.24 146.96 90.71 143.72 90.71 141.22 84.21 132.24 84.21 129.88 90.71 126.86 90.71ZM133.06 81.89 140.34 81.89 138.1 75.94C137.76 75.03 137.46 74.21 137.21 73.47 136.96 72.73 136.75 72.07 136.58 71.48 136.3 72.88 135.91 74.24 135.42 75.58L133.06 81.88Z"/><path d="M148.46 90.71 148.46 69.24 151.3 69.24 151.3 88.18 161.88 88.18 161.88 90.71 148.46 90.71Z"/><path d="M162.7 90.71 170.95 69.24 174.01 69.24 182.8 90.71 179.56 90.71 177.06 84.21 168.08 84.21 165.72 90.71 162.7 90.71ZM168.9 81.89 176.18 81.89 173.94 75.94C173.6 75.03 173.3 74.21 173.05 73.47 172.8 72.73 172.59 72.07 172.42 71.48 172.14 72.88 171.75 74.24 171.26 75.58L168.9 81.88Z"/><path d="M190.56 90.71 182.24 69.24 185.32 69.24 190.9 84.84C191.12 85.46 191.33 86.07 191.52 86.65 191.71 87.23 191.88 87.8 192.03 88.36 192.2 87.77 192.37 87.19 192.56 86.6 192.75 86.01 192.96 85.43 193.18 84.84L198.98 69.24 201.88 69.24 193.47 90.71 190.55 90.71Z"/><path d="M204.09 90.71 204.09 69.24 206.93 69.24 206.93 90.71 204.09 90.71Z"/><path d="M212.1 83.58C212.23 84.65 212.52 85.54 212.99 86.22 213.45 86.91 214.17 87.47 215.15 87.9 216.12 88.32 217.22 88.53 218.45 88.53 219.28 88.53 220.03 88.45 220.69 88.26 221.35 88.07 221.92 87.81 222.39 87.47 222.86 87.13 223.21 86.74 223.45 86.3 223.69 85.86 223.8 85.38 223.78 84.89 223.78 84.22 223.59 83.63 223.2 83.13 222.81 82.63 222.17 82.2 221.26 81.86 220.98 81.75 220.52 81.61 219.88 81.44 219.24 81.27 218.43 81.06 217.43 80.82 216.43 80.58 215.59 80.34 214.91 80.12 214.23 79.9 213.68 79.68 213.28 79.47 212.24 78.93 211.48 78.27 210.98 77.48 210.48 76.69 210.23 75.8 210.23 74.8 210.23 73.72 210.54 72.71 211.15 71.77 211.77 70.81 212.66 70.1 213.85 69.62 215.05 69.13 216.36 68.89 217.79 68.89 219.38 68.89 220.79 69.15 222 69.66 223.22 70.17 224.15 70.93 224.81 71.92 225.47 72.91 225.82 74.04 225.86 75.3L223.14 75.51C222.99 74.15 222.5 73.13 221.65 72.43 220.8 71.73 219.56 71.39 217.91 71.39 216.26 71.39 214.95 71.71 214.15 72.34 213.37 72.97 212.98 73.73 212.98 74.61 212.98 75.38 213.26 76.02 213.81 76.51 214.35 77.01 215.77 77.52 218.09 78.05 220.39 78.56 221.98 79.01 222.85 79.41 224.11 80 225.04 80.73 225.63 81.61 226.22 82.49 226.52 83.5 226.52 84.66 226.52 85.82 226.19 86.89 225.54 87.9 224.89 88.9 223.94 89.68 222.71 90.26 221.49 90.82 220.11 91.09 218.58 91.09 216.63 91.09 215 90.81 213.69 90.25 212.39 89.69 211.35 88.84 210.59 87.69 209.86 86.57 209.47 85.28 209.42 83.82L212.1 83.59Z"/><path d="M234.58 90.71 234.58 71.77 227.5 71.77 227.5 69.24 244.52 69.24 244.52 71.77 237.42 71.77 237.42 90.71 234.58 90.71Z"/><path d="M244.69 90.71 252.94 69.24 256 69.24 264.79 90.71 261.55 90.71 259.05 84.21 250.07 84.21 247.71 90.71 244.69 90.71ZM250.89 81.89 258.17 81.89 255.93 75.94C255.59 75.03 255.29 74.21 255.04 73.47 254.79 72.73 254.58 72.07 254.41 71.48 254.13 72.88 253.74 74.24 253.25 75.58L250.89 81.88Z"/></g></svg>